<?xml version="1.0" standalone="no"?>
<!DOCTYPE svg PUBLIC "-//W3C//DTD SVG 1.1//EN" "http://www.w3.org/Graphics/SVG/1.1/DTD/svg11.dtd" >
<svg xmlns="http://www.w3.org/2000/svg" xmlns:xlink="http://www.w3.org/1999/xlink" version="1.1">
<metadata>
Created by FontForge 20201107 at Thu Jul 22 19:55:02 2021
 By 
Copyright 2017 The Markazi Text Project Authors (https://github.com/BornaIz/markazitext)
</metadata>
<defs>
<font id="MarkaziText-Medium" horiz-adv-x="0" >
  <font-face 
    font-family="Markazi Text Medium"
    font-weight="500"
    font-stretch="normal"
    units-per-em="2048"
    panose-1="0 0 0 0 0 0 0 0 0 0"
    ascent="1638"
    descent="-410"
    x-height="754"
    cap-height="990"
    bbox="-346 -914 2503 1673"
    underline-thickness="50"
    underline-position="-125"
    unicode-range="U+000D-FEFC"
  />
<missing-glyph horiz-adv-x="1024" 
d="M102 -740v2040h820v-2040h-820zM204 -638h616v1836h-616v-1836z" />
    <glyph glyph-name="fi" unicode="fi" horiz-adv-x="1039" 
d="M153 6v747q0 115 41.5 201.5t115.5 134t173 47.5q59 0 99 -16l-12 -133q-59 14 -109 14q-71 0 -100 -40t-29 -139v-112l2 -20v-684h-181zM32 649l7 83q56 16 122 22h375l-8 -105h-496zM57 0l6 67q28 14 57 23t58 16l-25 -80v142h181v-142l-22 71l175 -28l-5 -69h-425z
M712 6v677l182 19v-696h-182zM712 511v128l29 -51l-138 69l5 49q47 22 108 36.5t128 20.5h50v-159zM610 0l6 67q25 12 55.5 21.5t66.5 17.5l-26 -81v143h182v-143l-22 73l129 -29l-6 -69h-385zM788 879q-53 0 -84 30t-31 81t31 81t84 30t84 -30t31 -81t-31 -81t-84 -30z" />
    <glyph glyph-name="fl" unicode="fl" horiz-adv-x="1049" 
d="M153 6v747q0 115 41.5 201.5t115.5 134t173 47.5q59 0 99 -16l-12 -133q-59 14 -109 14q-71 0 -100 -40t-29 -139v-112l2 -20v-684h-181zM32 649l7 83q56 16 122 22h375l-8 -105h-496zM57 0l6 67q28 14 57 23t58 16l-25 -80v142h181v-142l-22 71l175 -28l-5 -69h-425z
M712 6v1028l182 -29v-999h-182zM604 0l6 67q26 11 57.5 20.5t69.5 18.5l-25 -81v143h182v-143l-21 73l134 -29l-6 -69h-397zM712 896v125l21 -47l-135 56l5 48q98 35 223 40h68v-172z" />
    <glyph glyph-name="uniFC03" unicode="&#xfe8b;&#xfef0;" horiz-adv-x="1632" arabic-form="isolated" 
d="M1106 0v179h282q31 0 38.5 9.5t-1.5 54.5q-10 46 -37.5 132t-67.5 189l135 11q46 -108 69 -199.5t23 -168.5q0 -42 -7.5 -79t-20.5 -65q-18 -38 -36.5 -50.5t-52.5 -12.5h-324zM1106 0q-30 0 -42 22t-12 67q0 49 11 69.5t43 20.5v-179zM1159 637l-4 1l-8 80l94 38l5 -34
q-40 25 -58 59t-18 71q0 70 45.5 119t119.5 49q39 0 72.5 -14.5t59.5 -34.5l-28 -77q-25 11 -48.5 18.5t-46.5 9.5q-49 5 -73.5 -15.5t-24.5 -41.5q0 -28 36.5 -51.5t72.5 -16.5l47.5 9.5l87.5 17.5l-20 -101q-108 -20 -184 -41.5t-127 -44.5zM678 19l59 160h505v-179h-170
l35 48q41 -73 41 -144q0 -92 -61.5 -167.5t-165.5 -124.5q-89 -41 -194 -66.5t-198 -25.5q-147 0 -244 60.5t-144.5 165t-47.5 237.5q0 158 64 335l102 -25q-21 -74 -33 -140.5t-12 -124.5q0 -144 76.5 -228.5t244.5 -84.5q78 0 169.5 18t170.5 48q69 24 111 54t42 60
q0 22 -19.5 40t-57.5 32q-32 15 -79.5 23t-96.5 12t-89 4zM1242 0v179q31 0 42.5 -20.5t11.5 -69.5q0 -45 -12 -67t-42 -22z" />
    <glyph glyph-name="uniFC04" unicode="&#xfe8b;&#xfef2;" horiz-adv-x="1632" arabic-form="isolated" 
d="M722 -817l-153 114l93 118l151 -114zM476 -817l-152 114l92 118l152 -114zM1106 0v179h282q31 0 38.5 9.5t-1.5 54.5q-10 46 -37.5 132t-67.5 189l135 11q46 -108 69 -199.5t23 -168.5q0 -42 -7.5 -79t-20.5 -65q-18 -38 -36.5 -50.5t-52.5 -12.5h-324zM1106 0
q-30 0 -42 22t-12 67q0 49 11 69.5t43 20.5v-179zM1159 637l-4 1l-8 81l94 37l5 -34q-40 25 -58.5 59t-18.5 71q0 70 46 119t119 49q39 0 73 -14.5t60 -34.5l-29 -77q-25 11 -48.5 18.5t-45.5 9.5q-49 6 -74 -14.5t-25 -41.5q0 -29 37 -52.5t72 -16.5q10 3 47.5 10.5
t88.5 16.5l-20 -101q-108 -20 -184 -41.5t-127 -44.5zM678 19l59 160h505v-179h-170l35 48q41 -73 41 -144q0 -92 -61.5 -167.5t-165.5 -124.5q-89 -41 -194 -66.5t-198 -25.5q-147 0 -244 60.5t-144.5 165t-47.5 237.5q0 158 64 335l102 -25q-21 -74 -33 -140.5t-12 -124.5
q0 -144 76.5 -228.5t244.5 -84.5q78 0 169.5 18t170.5 48q69 24 111 54t42 60q0 22 -19.5 40t-57.5 32q-32 15 -79.5 23t-96.5 12t-89 4zM1242 0v179q31 0 42.5 -20.5t11.5 -69.5q0 -45 -12 -67t-42 -22z" />
    <glyph glyph-name="uniFC09" unicode="&#xfe91;&#xfef0;" horiz-adv-x="1702" arabic-form="isolated" 
d="M1176 0v179h282q31 0 38.5 9.5t-1.5 54.5q-10 46 -37.5 132t-67.5 189l135 11q46 -108 69 -199.5t23 -168.5q0 -42 -7.5 -79t-20.5 -65q-18 -38 -36.5 -50.5t-52.5 -12.5h-324zM1176 0q-30 0 -42 22t-12 67q0 49 11 69.5t43 20.5v-179zM1443 -392l-163 121l98 125
l162 -121zM678 19l59 160h505v-179h-170l35 48q41 -73 41 -144q0 -92 -61.5 -167.5t-165.5 -124.5q-89 -41 -194 -66.5t-198 -25.5q-147 0 -244 60.5t-144.5 165t-47.5 237.5q0 158 64 335l102 -25q-21 -74 -33 -140.5t-12 -124.5q0 -144 76.5 -228.5t244.5 -84.5
q78 0 169.5 18t170.5 48q69 24 111 54t42 60q0 22 -19.5 40t-57.5 32q-32 15 -79.5 23t-96.5 12t-89 4zM1242 0v179q31 0 42.5 -20.5t11.5 -69.5q0 -45 -12 -67t-42 -22z" />
    <glyph glyph-name="uniFC0A" unicode="&#xfe91;&#xfef2;" horiz-adv-x="1702" arabic-form="isolated" 
d="M1442 -392l-162 121l98 125l162 -121zM722 -817l-153 114l93 118l151 -114zM476 -817l-152 114l92 118l152 -114zM1176 0v179h282q31 0 38.5 9.5t-1.5 54.5q-10 46 -37.5 132t-67.5 189l135 11q46 -108 69 -199.5t23 -168.5q0 -42 -7.5 -79t-20.5 -65
q-18 -38 -36.5 -50.5t-52.5 -12.5h-324zM1176 0q-30 0 -42 22t-12 67q0 49 11 69.5t43 20.5v-179zM1442 -392l-162 121l98 125l162 -121zM678 19l59 160h505v-179h-170l35 48q41 -73 41 -144q0 -92 -61.5 -167.5t-165.5 -124.5q-89 -41 -194 -66.5t-198 -25.5
q-147 0 -244 60.5t-144.5 165t-47.5 237.5q0 158 64 335l102 -25q-21 -74 -33 -140.5t-12 -124.5q0 -144 76.5 -228.5t244.5 -84.5q78 0 169.5 18t170.5 48q69 24 111 54t42 60q0 22 -19.5 40t-57.5 32q-32 15 -79.5 23t-96.5 12t-89 4zM1242 0v179q31 0 42.5 -20.5
t11.5 -69.5q0 -45 -12 -67t-42 -22z" />
    <glyph glyph-name="uniFC0F" unicode="&#xfe97;&#xfef0;" horiz-adv-x="1632" arabic-form="isolated" 
d="M1476 694l-153 113l93 118l151 -114zM1231 694l-153 113l92 118l152 -114zM1106 0v179h282q31 0 38.5 9.5t-1.5 54.5q-10 46 -37.5 132t-67.5 189l135 11q46 -108 69 -199.5t23 -168.5q0 -42 -7.5 -79t-20.5 -65q-18 -38 -36.5 -50.5t-52.5 -12.5h-324zM1106 0
q-30 0 -42 22t-12 67q0 49 11 69.5t43 20.5v-179zM678 19l59 160h505v-179h-170l35 48q41 -73 41 -144q0 -92 -61.5 -167.5t-165.5 -124.5q-89 -41 -194 -66.5t-198 -25.5q-147 0 -244 60.5t-144.5 165t-47.5 237.5q0 158 64 335l102 -25q-21 -74 -33 -140.5t-12 -124.5
q0 -144 76.5 -228.5t244.5 -84.5q78 0 169.5 18t170.5 48q69 24 111 54t42 60q0 22 -19.5 40t-57.5 32q-32 15 -79.5 23t-96.5 12t-89 4zM1242 0v179q31 0 42.5 -20.5t11.5 -69.5q0 -45 -12 -67t-42 -22z" />
    <glyph glyph-name="uniFC10" unicode="&#xfe97;&#xfef2;" horiz-adv-x="1632" arabic-form="isolated" 
d="M1476 694l-153 113l93 118l151 -114zM1231 694l-153 113l92 118l152 -114zM722 -817l-153 114l93 118l151 -114zM476 -817l-152 114l92 118l152 -114zM1106 0v179h282q31 0 38.5 9.5t-1.5 54.5q-10 46 -37.5 132t-67.5 189l135 11q46 -108 69 -199.5t23 -168.5
q0 -42 -7.5 -79t-20.5 -65q-18 -38 -36.5 -50.5t-52.5 -12.5h-324zM1106 0q-30 0 -42 22t-12 67q0 49 11 69.5t43 20.5v-179zM678 19l59 160h505v-179h-170l35 48q41 -73 41 -144q0 -92 -61.5 -167.5t-165.5 -124.5q-89 -41 -194 -66.5t-198 -25.5q-147 0 -244 60.5
t-144.5 165t-47.5 237.5q0 158 64 335l102 -25q-21 -74 -33 -140.5t-12 -124.5q0 -144 76.5 -228.5t244.5 -84.5q78 0 169.5 18t170.5 48q69 24 111 54t42 60q0 22 -19.5 40t-57.5 32q-32 15 -79.5 23t-96.5 12t-89 4zM1242 0v179q31 0 42.5 -20.5t11.5 -69.5q0 -45 -12 -67
t-42 -22z" />
    <glyph glyph-name="uniFC13" unicode="&#xfe9b;&#xfef0;" horiz-adv-x="1632" arabic-form="isolated" 
d="M1173 922l150 -112l-91 -116l-149 113zM1415 922l150 -112l-91 -116l-149 113zM1254 1147l150 -111l-90 -116l-149 112zM1106 0v179h282q31 0 38.5 9.5t-1.5 54.5q-10 46 -37.5 132t-67.5 189l135 11q46 -108 69 -199.5t23 -168.5q0 -42 -7.5 -79t-20.5 -65
q-18 -38 -36.5 -50.5t-52.5 -12.5h-324zM1106 0q-30 0 -42 22t-12 67q0 49 11 69.5t43 20.5v-179zM678 19l59 160h505v-179h-170l35 48q41 -73 41 -144q0 -92 -61.5 -167.5t-165.5 -124.5q-89 -41 -194 -66.5t-198 -25.5q-147 0 -244 60.5t-144.5 165t-47.5 237.5
q0 158 64 335l102 -25q-21 -74 -33 -140.5t-12 -124.5q0 -144 76.5 -228.5t244.5 -84.5q78 0 169.5 18t170.5 48q69 24 111 54t42 60q0 22 -19.5 40t-57.5 32q-32 15 -79.5 23t-96.5 12t-89 4zM1242 0v179q31 0 42.5 -20.5t11.5 -69.5q0 -45 -12 -67t-42 -22z" />
    <glyph glyph-name="uniFC14" unicode="&#xfe9b;&#xfef2;" horiz-adv-x="1632" arabic-form="isolated" 
d="M1173 922l150 -112l-91 -116l-149 113zM1415 922l150 -112l-91 -116l-149 113zM1254 1147l150 -111l-90 -116l-149 112zM722 -817l-153 114l93 118l151 -114zM476 -817l-152 114l92 118l152 -114zM1106 0v179h282q31 0 38.5 9.5t-1.5 54.5q-10 46 -37.5 132t-67.5 189
l135 11q46 -108 69 -199.5t23 -168.5q0 -42 -7.5 -79t-20.5 -65q-18 -38 -36.5 -50.5t-52.5 -12.5h-324zM1106 0q-30 0 -42 22t-12 67q0 49 11 69.5t43 20.5v-179zM678 19l59 160h505v-179h-170l35 48q41 -73 41 -144q0 -92 -61.5 -167.5t-165.5 -124.5q-89 -41 -194 -66.5
t-198 -25.5q-147 0 -244 60.5t-144.5 165t-47.5 237.5q0 158 64 335l102 -25q-21 -74 -33 -140.5t-12 -124.5q0 -144 76.5 -228.5t244.5 -84.5q78 0 169.5 18t170.5 48q69 24 111 54t42 60q0 22 -19.5 40t-57.5 32q-32 15 -79.5 23t-96.5 12t-89 4zM1242 0v179
q31 0 42.5 -20.5t11.5 -69.5q0 -45 -12 -67t-42 -22z" />
    <glyph glyph-name="uniFC31" unicode="&#xfed3;&#xfef0;" horiz-adv-x="1807" arabic-form="isolated" 
d="M1037 0v179h348q85 0 132 9t65 36.5t18 82.5v68q0 50 -12.5 105.5t-36.5 104.5t-62 79.5t-89 30.5q-70 0 -118.5 -46.5t-48.5 -105.5q0 -39 38 -61t97.5 -30t125.5 -8q57 0 102 3.5t72 5.5l-24 -145q-41 -11 -89.5 -18.5t-111.5 -7.5q-128 0 -196 36t-93 90.5t-25 109.5
q0 90 38.5 168t104 126.5t144.5 48.5q80 0 137 -43.5t92.5 -114.5t52 -155t16.5 -165q0 -63 -10.5 -118t-27.5 -98q-25 -60 -59 -93t-93 -50q-43 -12 -117.5 -18t-206.5 -6h-163zM1037 0q-30 0 -42 22t-12 67q0 49 11 69.5t43 20.5v-179zM1408 966l-163 121l98 125l162 -121
zM678 19l59 160h505v-179h-170l35 48q41 -73 41 -144q0 -92 -61.5 -167.5t-165.5 -124.5q-89 -41 -194 -66.5t-198 -25.5q-147 0 -244 60.5t-144.5 165t-47.5 237.5q0 158 64 335l102 -25q-21 -74 -33 -140.5t-12 -124.5q0 -144 76.5 -228.5t244.5 -84.5q78 0 169.5 18
t170.5 48q69 24 111 54t42 60q0 22 -19.5 40t-57.5 32q-32 15 -79.5 23t-96.5 12t-89 4zM1242 0v179q31 0 42.5 -20.5t11.5 -69.5q0 -45 -12 -67t-42 -22z" />
    <glyph glyph-name="uniFC32" unicode="&#xfed3;&#xfef2;" horiz-adv-x="1807" arabic-form="isolated" 
d="M1408 966l-163 121l99 125l162 -121zM722 -817l-153 114l93 118l151 -114zM476 -817l-152 114l92 118l152 -114zM1037 0v179h349q84 0 131 9t65.5 36.5t17.5 82.5v68q0 50 -12 105.5t-36.5 104.5t-62 79.5t-89.5 30.5q-70 0 -118.5 -46.5t-48.5 -105.5q0 -39 38 -61
t98 -30t125 -8q57 0 102 3.5t72 5.5l-23 -145q-42 -11 -90.5 -18.5t-111.5 -7.5q-128 0 -196 36t-93 90.5t-25 109.5q0 90 39 168t104 126.5t144 48.5q81 0 137.5 -43.5t92 -114.5t52 -155t16.5 -165q0 -63 -10.5 -118t-27.5 -98q-25 -60 -59 -93t-93 -50
q-43 -12 -117.5 -18t-206.5 -6h-163zM1037 0q-30 0 -42 22t-12 67q0 49 11 69.5t43 20.5v-179zM1408 966l-163 121l99 125l162 -121zM678 19l59 160h505v-179h-170l35 48q41 -73 41 -144q0 -92 -61.5 -167.5t-165.5 -124.5q-89 -41 -194 -66.5t-198 -25.5q-147 0 -244 60.5
t-144.5 165t-47.5 237.5q0 158 64 335l102 -25q-21 -74 -33 -140.5t-12 -124.5q0 -144 76.5 -228.5t244.5 -84.5q78 0 169.5 18t170.5 48q69 24 111 54t42 60q0 22 -19.5 40t-57.5 32q-32 15 -79.5 23t-96.5 12t-89 4zM1242 0v179q31 0 42.5 -20.5t11.5 -69.5q0 -45 -12 -67
t-42 -22z" />
    <glyph glyph-name="uniFC35" unicode="&#xfed7;&#xfef0;" horiz-adv-x="1807" arabic-form="isolated" 
d="M1533 964l-153 113l92 118l152 -114zM1287 964l-153 113l93 118l151 -114zM1037 0v179h349q84 0 131 9t65.5 36.5t17.5 82.5v68q0 50 -12 105.5t-36.5 104.5t-62 79.5t-89.5 30.5q-70 0 -118.5 -46.5t-48.5 -105.5q0 -39 38 -61t98 -30t125 -8q57 0 102 3.5t72 5.5
l-23 -145q-42 -11 -90.5 -18.5t-111.5 -7.5q-128 0 -196 36t-93 90.5t-25 109.5q0 90 39 168t104 126.5t144 48.5q81 0 137.5 -43.5t92 -114.5t52 -155t16.5 -165q0 -63 -10.5 -118t-27.5 -98q-25 -60 -59 -93t-93 -50q-43 -12 -117.5 -18t-206.5 -6h-163zM1037 0
q-30 0 -42 22t-12 67q0 49 11 69.5t43 20.5v-179zM678 19l59 160h505v-179h-170l35 48q41 -73 41 -144q0 -92 -61.5 -167.5t-165.5 -124.5q-89 -41 -194 -66.5t-198 -25.5q-147 0 -244 60.5t-144.5 165t-47.5 237.5q0 158 64 335l102 -25q-21 -74 -33 -140.5t-12 -124.5
q0 -144 76.5 -228.5t244.5 -84.5q78 0 169.5 18t170.5 48q69 24 111 54t42 60q0 22 -19.5 40t-57.5 32q-32 15 -79.5 23t-96.5 12t-89 4zM1242 0v179q31 0 42.5 -20.5t11.5 -69.5q0 -45 -12 -67t-42 -22z" />
    <glyph glyph-name="uniFC36" unicode="&#xfed7;&#xfef2;" horiz-adv-x="1807" arabic-form="isolated" 
d="M1533 964l-153 113l92 118l152 -114zM1287 964l-153 113l93 118l151 -114zM722 -817l-153 114l93 118l151 -114zM476 -817l-152 114l92 118l152 -114zM1037 0v179h349q84 0 131 9t65.5 36.5t17.5 82.5v68q0 50 -12 105.5t-36.5 104.5t-62 79.5t-89.5 30.5
q-70 0 -118.5 -46.5t-48.5 -105.5q0 -39 38 -61t98 -30t125 -8q57 0 102 3.5t72 5.5l-23 -145q-42 -11 -90.5 -18.5t-111.5 -7.5q-128 0 -196 36t-93 90.5t-25 109.5q0 90 39 168t104 126.5t144 48.5q81 0 137.5 -43.5t92 -114.5t52 -155t16.5 -165q0 -63 -10.5 -118
t-27.5 -98q-25 -60 -59 -93t-93 -50q-43 -12 -117.5 -18t-206.5 -6h-163zM1037 0q-30 0 -42 22t-12 67q0 49 11 69.5t43 20.5v-179zM678 19l59 160h505v-179h-170l35 48q41 -73 41 -144q0 -92 -61.5 -167.5t-165.5 -124.5q-89 -41 -194 -66.5t-198 -25.5q-147 0 -244 60.5
t-144.5 165t-47.5 237.5q0 158 64 335l102 -25q-21 -74 -33 -140.5t-12 -124.5q0 -144 76.5 -228.5t244.5 -84.5q78 0 169.5 18t170.5 48q69 24 111 54t42 60q0 22 -19.5 40t-57.5 32q-32 15 -79.5 23t-96.5 12t-89 4zM1242 0v179q31 0 42.5 -20.5t11.5 -69.5q0 -45 -12 -67
t-42 -22z" />
    <glyph glyph-name="uniFC3D" unicode="&#xfedb;&#xfef0;" horiz-adv-x="1688" arabic-form="isolated" 
d="M678 19l59 160h505v-179h-170l35 48q41 -73 41 -144q0 -92 -61.5 -167.5t-165.5 -124.5q-89 -41 -194 -66.5t-198 -25.5q-147 0 -244 60.5t-144.5 165t-47.5 237.5q0 158 64 335l102 -25q-21 -74 -33 -140.5t-12 -124.5q0 -144 76.5 -228.5t244.5 -84.5q78 0 169.5 18
t170.5 48q69 24 111 54t42 60q0 22 -19.5 40t-57.5 32q-32 15 -79.5 23t-96.5 12t-89 4zM1242 0v179q31 0 42.5 -20.5t11.5 -69.5q0 -45 -12 -67t-42 -22zM902 0v179h524q45 0 45 24q0 13 -12.5 33.5t-23.5 35.5q-39 54 -95.5 109.5t-120.5 109t-123 99.5l78 1l-78 -72
l-170 165l26 119l642 301l11 -155l-496 -213l5 41q131 -103 239 -208t172 -201t64 -174q0 -75 -41.5 -134.5t-101.5 -59.5h-544zM902 0q-30 0 -42 22t-12 67q0 49 11 69.5t43 20.5v-179z" />
    <glyph glyph-name="uniFC3E" unicode="&#xfedb;&#xfef2;" horiz-adv-x="1688" arabic-form="isolated" 
d="M722 -817l-153 114l93 118l151 -114zM476 -817l-152 114l92 118l152 -114zM902 0v179h524q45 0 45 24q0 13 -12.5 33.5t-23.5 35.5q-39 54 -95.5 109.5t-120.5 109t-123 99.5l78 1l-78 -72l-170 165l26 119l642 301l11 -155l-496 -213l5 41q131 -103 239 -208t172 -201
t64 -174q0 -75 -41.5 -134.5t-101.5 -59.5h-544zM902 0q-30 0 -42 22t-12 67q0 49 11 69.5t43 20.5v-179zM678 19l59 160h505v-179h-170l35 48q41 -73 41 -144q0 -92 -61.5 -167.5t-165.5 -124.5q-89 -41 -194 -66.5t-198 -25.5q-147 0 -244 60.5t-144.5 165t-47.5 237.5
q0 158 64 335l102 -25q-21 -74 -33 -140.5t-12 -124.5q0 -144 76.5 -228.5t244.5 -84.5q78 0 169.5 18t170.5 48q69 24 111 54t42 60q0 22 -19.5 40t-57.5 32q-32 15 -79.5 23t-96.5 12t-89 4zM1242 0v179q31 0 42.5 -20.5t11.5 -69.5q0 -45 -12 -67t-42 -22z" />
    <glyph glyph-name="uniFC43" unicode="&#xfedf;&#xfef0;" horiz-adv-x="1549" arabic-form="isolated" 
d="M1136 0v179h149q43 0 55 12.5t8 55.5q-6 57 -14 129t-18 154t-21 169.5t-23 176t-24 174.5l142 10q11 -110 23 -232.5t23 -238t18.5 -204t10.5 -130.5q5 -62 -4 -104.5t-42 -91.5q-25 -35 -60 -47t-100 -12h-123zM1136 0q-30 0 -42 22t-12 67q0 49 11 69.5t43 20.5v-179z
M678 19l59 160h505v-179h-170l35 48q41 -73 41 -144q0 -92 -61.5 -167.5t-165.5 -124.5q-89 -41 -194 -66.5t-198 -25.5q-147 0 -244 60.5t-144.5 165t-47.5 237.5q0 158 64 335l102 -25q-21 -74 -33 -140.5t-12 -124.5q0 -144 76.5 -228.5t244.5 -84.5q78 0 169.5 18
t170.5 48q69 24 111 54t42 60q0 22 -19.5 40t-57.5 32q-32 15 -79.5 23t-96.5 12t-89 4zM1242 0v179q31 0 42.5 -20.5t11.5 -69.5q0 -45 -12 -67t-42 -22z" />
    <glyph glyph-name="uniFC44" unicode="&#xfedf;&#xfef2;" horiz-adv-x="1549" arabic-form="isolated" 
d="M722 -817l-153 114l93 118l151 -114zM476 -817l-152 114l92 118l152 -114zM1136 0v179h149q43 0 55 12.5t8 55.5q-6 57 -14 129t-18 154t-21 169.5t-23 176t-24 174.5l142 10q11 -110 23 -232.5t23 -238t18.5 -204t10.5 -130.5q5 -62 -4 -104.5t-42 -91.5
q-25 -35 -60 -47t-100 -12h-123zM1136 0q-30 0 -42 22t-12 67q0 49 11 69.5t43 20.5v-179zM678 19l59 160h505v-179h-170l35 48q41 -73 41 -144q0 -92 -61.5 -167.5t-165.5 -124.5q-89 -41 -194 -66.5t-198 -25.5q-147 0 -244 60.5t-144.5 165t-47.5 237.5q0 158 64 335
l102 -25q-21 -74 -33 -140.5t-12 -124.5q0 -144 76.5 -228.5t244.5 -84.5q78 0 169.5 18t170.5 48q69 24 111 54t42 60q0 22 -19.5 40t-57.5 32q-32 15 -79.5 23t-96.5 12t-89 4zM1242 0v179q31 0 42.5 -20.5t11.5 -69.5q0 -45 -12 -67t-42 -22z" />
    <glyph glyph-name="uniFC4F" unicode="&#xfee7;&#xfef0;" horiz-adv-x="1632" arabic-form="isolated" 
d="M1106 0v179h282q31 0 38.5 9.5t-1.5 54.5q-10 46 -37.5 132t-67.5 189l135 11q46 -108 69 -199.5t23 -168.5q0 -42 -7.5 -79t-20.5 -65q-18 -38 -36.5 -50.5t-52.5 -12.5h-324zM1106 0q-30 0 -42 22t-12 67q0 49 11 69.5t43 20.5v-179zM1355 696l-163 121l98 125
l162 -121zM678 19l59 160h505v-179h-170l35 48q41 -73 41 -144q0 -92 -61.5 -167.5t-165.5 -124.5q-89 -41 -194 -66.5t-198 -25.5q-147 0 -244 60.5t-144.5 165t-47.5 237.5q0 158 64 335l102 -25q-21 -74 -33 -140.5t-12 -124.5q0 -144 76.5 -228.5t244.5 -84.5
q78 0 169.5 18t170.5 48q69 24 111 54t42 60q0 22 -19.5 40t-57.5 32q-32 15 -79.5 23t-96.5 12t-89 4zM1242 0v179q31 0 42.5 -20.5t11.5 -69.5q0 -45 -12 -67t-42 -22z" />
    <glyph glyph-name="uniFC50" unicode="&#xfee7;&#xfef2;" horiz-adv-x="1632" arabic-form="isolated" 
d="M1354 696l-162 121l98 125l162 -121zM722 -817l-153 114l93 118l151 -114zM476 -817l-152 114l92 118l152 -114zM1106 0v179h282q31 0 38.5 9.5t-1.5 54.5q-10 46 -37.5 132t-67.5 189l135 11q46 -108 69 -199.5t23 -168.5q0 -42 -7.5 -79t-20.5 -65q-18 -38 -36.5 -50.5
t-52.5 -12.5h-324zM1106 0q-30 0 -42 22t-12 67q0 49 11 69.5t43 20.5v-179zM1354 696l-162 121l98 125l162 -121zM678 19l59 160h505v-179h-170l35 48q41 -73 41 -144q0 -92 -61.5 -167.5t-165.5 -124.5q-89 -41 -194 -66.5t-198 -25.5q-147 0 -244 60.5t-144.5 165
t-47.5 237.5q0 158 64 335l102 -25q-21 -74 -33 -140.5t-12 -124.5q0 -144 76.5 -228.5t244.5 -84.5q78 0 169.5 18t170.5 48q69 24 111 54t42 60q0 22 -19.5 40t-57.5 32q-32 15 -79.5 23t-96.5 12t-89 4zM1242 0v179q31 0 42.5 -20.5t11.5 -69.5q0 -45 -12 -67t-42 -22z
" />
    <glyph glyph-name="uniFC53" unicode="&#xfeeb;&#xfef0;" horiz-adv-x="2234" arabic-form="isolated" 
d="M1939 -9q-91 0 -201 17.5t-205 50.5l117 -1q-128 -36 -231 -47t-196 -11h-87v179h52q62 0 126 1.5t126 9.5l-40 -47q-33 40 -55 98t-22 126q0 101 51 185t130 141l30 -79l-124 77l87 144q109 -62 203 -118t169 -110q93 -66 153 -125.5t89.5 -121t29.5 -133.5
q0 -57 -15.5 -100t-34.5 -68q-25 -36 -58 -52t-94 -16zM1587 227q39 -4 76.5 12t64 44.5t30.5 64.5q6 45 -13.5 90.5t-51.5 78.5t-66 41q-47 12 -93.5 -17.5t-76.5 -74.5t-30 -81q0 -27 19 -62t55 -62.5t86 -33.5zM1750 131l-34 62q61 -18 125.5 -27.5t106.5 -11.5
q41 -1 68.5 8t27.5 38q0 14 -6 29t-17 32q-28 49 -88.5 102t-137.5 101l61 19q19 -205 -106 -352zM1136 0q-30 0 -42 22t-12 67q0 49 11 69.5t43 20.5v-179zM678 19l59 160h505v-179h-170l35 48q41 -73 41 -144q0 -92 -61.5 -167.5t-165.5 -124.5q-89 -41 -194 -66.5
t-198 -25.5q-147 0 -244 60.5t-144.5 165t-47.5 237.5q0 158 64 335l102 -25q-21 -74 -33 -140.5t-12 -124.5q0 -144 76.5 -228.5t244.5 -84.5q78 0 169.5 18t170.5 48q69 24 111 54t42 60q0 22 -19.5 40t-57.5 32q-32 15 -79.5 23t-96.5 12t-89 4zM1242 0v179
q31 0 42.5 -20.5t11.5 -69.5q0 -45 -12 -67t-42 -22z" />
    <glyph glyph-name="uniFC54" unicode="&#xfeeb;&#xfef2;" horiz-adv-x="2234" arabic-form="isolated" 
d="M722 -817l-153 114l93 118l151 -114zM476 -817l-152 114l92 118l152 -114zM1939 -9q-91 0 -201 17.5t-205 50.5l117 -1q-128 -36 -231 -47t-196 -11h-87v179h52q62 0 126 1.5t126 9.5l-40 -47q-33 40 -55 98t-22 126q0 101 51 185t130 141l30 -79l-124 77l87 144
q109 -62 203 -118t169 -110q93 -66 153 -125.5t89.5 -121t29.5 -133.5q0 -57 -15.5 -100t-34.5 -68q-25 -36 -58 -52t-94 -16zM1587 227q39 -4 76.5 12t64 44.5t30.5 64.5q6 45 -13.5 90.5t-51.5 78.5t-66 41q-47 12 -93.5 -17.5t-76.5 -74.5t-30 -81q0 -27 19 -62t55 -62.5
t86 -33.5zM1750 131l-34 62q61 -18 125.5 -27.5t106.5 -11.5q41 -1 68.5 8t27.5 38q0 14 -6 29t-17 32q-28 49 -88.5 102t-137.5 101l61 19q19 -205 -106 -352zM1136 0q-30 0 -42 22t-12 67q0 49 11 69.5t43 20.5v-179zM678 19l59 160h505v-179h-170l35 48q41 -73 41 -144
q0 -92 -61.5 -167.5t-165.5 -124.5q-89 -41 -194 -66.5t-198 -25.5q-147 0 -244 60.5t-144.5 165t-47.5 237.5q0 158 64 335l102 -25q-21 -74 -33 -140.5t-12 -124.5q0 -144 76.5 -228.5t244.5 -84.5q78 0 169.5 18t170.5 48q69 24 111 54t42 60q0 22 -19.5 40t-57.5 32
q-32 15 -79.5 23t-96.5 12t-89 4zM1242 0v179q31 0 42.5 -20.5t11.5 -69.5q0 -45 -12 -67t-42 -22z" />
    <glyph glyph-name="uniFC68" unicode="&#xfe8c;&#xfef0;" horiz-adv-x="1663" arabic-form="final" 
d="M1136 0v179h252q30 0 36.5 12t-1.5 52l-55 288l125 9q28 -111 48 -213t23 -193l-43 45h142v-179h-27q-53 0 -99 11t-78 27l87 -2q-44 -20 -122 -28t-190 -8h-98zM1663 0v179q32 0 43.5 -20.5t11.5 -69.5q0 -45 -12.5 -67t-42.5 -22zM1136 0q-30 0 -42 22t-12 67
q0 49 11 69.5t43 20.5v-179zM1214 604l-4 1l-8 80l94 38l5 -34q-40 25 -58 59t-18 71q0 70 45.5 119t119.5 49q39 0 72.5 -14.5t59.5 -34.5l-28 -77q-25 11 -48.5 18.5t-46.5 9.5q-49 5 -73.5 -15.5t-24.5 -41.5q0 -28 36.5 -51.5t72.5 -16.5l47.5 9.5l87.5 17.5l-20 -101
q-108 -20 -184 -41.5t-127 -44.5zM678 19l59 160h505v-179h-170l35 48q41 -73 41 -144q0 -92 -61.5 -167.5t-165.5 -124.5q-89 -41 -194 -66.5t-198 -25.5q-147 0 -244 60.5t-144.5 165t-47.5 237.5q0 158 64 335l102 -25q-21 -74 -33 -140.5t-12 -124.5q0 -144 76.5 -228.5
t244.5 -84.5q78 0 169.5 18t170.5 48q69 24 111 54t42 60q0 22 -19.5 40t-57.5 32q-32 15 -79.5 23t-96.5 12t-89 4zM1242 0v179q31 0 42.5 -20.5t11.5 -69.5q0 -45 -12 -67t-42 -22z" />
    <glyph glyph-name="uniFC69" unicode="&#xfe8c;&#xfef2;" horiz-adv-x="1663" arabic-form="final" 
d="M722 -817l-153 114l93 118l151 -114zM476 -817l-152 114l92 118l152 -114zM1136 0v179h252q30 0 36.5 12t-1.5 52l-55 288l125 9q28 -111 48 -213t23 -193l-43 45h142v-179h-27q-53 0 -99 11t-78 27l87 -2q-44 -20 -122 -28t-190 -8h-98zM1663 0v179q32 0 43.5 -20.5
t11.5 -69.5q0 -45 -12.5 -67t-42.5 -22zM1136 0q-30 0 -42 22t-12 67q0 49 11 69.5t43 20.5v-179zM1214 604l-4 1l-8 80l94 38l5 -34q-40 24 -58 58.5t-18 71.5q0 70 45.5 118.5t119.5 48.5q39 0 72.5 -14.5t59.5 -34.5l-28 -76q-25 11 -48.5 18.5t-46.5 9.5
q-49 5 -73.5 -15.5t-24.5 -41.5q0 -29 36.5 -52t71.5 -16q11 2 48.5 9.5l87.5 17.5l-20 -101q-108 -20 -184 -41.5t-127 -44.5zM678 19l59 160h505v-179h-170l35 48q41 -73 41 -144q0 -92 -61.5 -167.5t-165.5 -124.5q-89 -41 -194 -66.5t-198 -25.5q-147 0 -244 60.5
t-144.5 165t-47.5 237.5q0 158 64 335l102 -25q-21 -74 -33 -140.5t-12 -124.5q0 -144 76.5 -228.5t244.5 -84.5q78 0 169.5 18t170.5 48q69 24 111 54t42 60q0 22 -19.5 40t-57.5 32q-32 15 -79.5 23t-96.5 12t-89 4zM1242 0v179q31 0 42.5 -20.5t11.5 -69.5q0 -45 -12 -67
t-42 -22z" />
    <glyph glyph-name="uniFC6E" unicode="&#xfe92;&#xfef0;" horiz-adv-x="1663" arabic-form="final" 
d="M1136 0v179h252q30 0 36.5 12t-1.5 52l-55 288l125 9q28 -111 48 -213t23 -193l-43 45h142v-179h-27q-53 0 -99 11t-78 27l87 -2q-44 -20 -122 -28t-190 -8h-98zM1663 0v179q32 0 43.5 -20.5t11.5 -69.5q0 -45 -12.5 -67t-42.5 -22zM1136 0q-30 0 -42 22t-12 67
q0 49 11 69.5t43 20.5v-179zM1415 -395l-163 121l98 125l162 -121zM678 19l59 160h505v-179h-170l35 48q41 -73 41 -144q0 -92 -61.5 -167.5t-165.5 -124.5q-89 -41 -194 -66.5t-198 -25.5q-147 0 -244 60.5t-144.5 165t-47.5 237.5q0 158 64 335l102 -25
q-21 -74 -33 -140.5t-12 -124.5q0 -144 76.5 -228.5t244.5 -84.5q78 0 169.5 18t170.5 48q69 24 111 54t42 60q0 22 -19.5 40t-57.5 32q-32 15 -79.5 23t-96.5 12t-89 4zM1242 0v179q31 0 42.5 -20.5t11.5 -69.5q0 -45 -12 -67t-42 -22z" />
    <glyph glyph-name="uniFC6F" unicode="&#xfe92;&#xfef2;" horiz-adv-x="1663" arabic-form="final" 
d="M1415 -396l-163 122l98 125l162 -121zM722 -817l-153 114l93 118l151 -114zM476 -817l-152 114l92 118l152 -114zM1136 0v179h252q30 0 36.5 12t-1.5 52l-55 288l125 9q28 -111 48 -213t23 -193l-43 45h142v-179h-27q-53 0 -99 11t-78 27l87 -2q-44 -20 -122 -28t-190 -8
h-98zM1663 0v179q32 0 43.5 -20.5t11.5 -69.5q0 -45 -12.5 -67t-42.5 -22zM1136 0q-30 0 -42 22t-12 67q0 49 11 69.5t43 20.5v-179zM1415 -396l-163 122l98 125l162 -121zM678 19l59 160h505v-179h-170l35 48q41 -73 41 -144q0 -92 -61.5 -167.5t-165.5 -124.5
q-89 -41 -194 -66.5t-198 -25.5q-147 0 -244 60.5t-144.5 165t-47.5 237.5q0 158 64 335l102 -25q-21 -74 -33 -140.5t-12 -124.5q0 -144 76.5 -228.5t244.5 -84.5q78 0 169.5 18t170.5 48q69 24 111 54t42 60q0 22 -19.5 40t-57.5 32q-32 15 -79.5 23t-96.5 12t-89 4z
M1242 0v179q31 0 42.5 -20.5t11.5 -69.5q0 -45 -12 -67t-42 -22z" />
    <glyph glyph-name="uniFC74" unicode="&#xfe98;&#xfef0;" horiz-adv-x="1663" arabic-form="final" 
d="M1522 665l-153 113l93 118l151 -114zM1276 665l-152 113l92 118l152 -114zM1136 0v179h252q30 0 36.5 12t-1.5 52l-55 288l125 9q28 -111 48 -213t23 -193l-43 45h142v-179h-27q-53 0 -99 11t-78 27l87 -2q-44 -20 -122 -28t-190 -8h-98zM1663 0v179q32 0 43.5 -20.5
t11.5 -69.5q0 -45 -12.5 -67t-42.5 -22zM1136 0q-30 0 -42 22t-12 67q0 49 11 69.5t43 20.5v-179zM678 19l59 160h505v-179h-170l35 48q41 -73 41 -144q0 -92 -61.5 -167.5t-165.5 -124.5q-89 -41 -194 -66.5t-198 -25.5q-147 0 -244 60.5t-144.5 165t-47.5 237.5
q0 158 64 335l102 -25q-21 -74 -33 -140.5t-12 -124.5q0 -144 76.5 -228.5t244.5 -84.5q78 0 169.5 18t170.5 48q69 24 111 54t42 60q0 22 -19.5 40t-57.5 32q-32 15 -79.5 23t-96.5 12t-89 4zM1242 0v179q31 0 42.5 -20.5t11.5 -69.5q0 -45 -12 -67t-42 -22z" />
    <glyph glyph-name="uniFC75" unicode="&#xfe98;&#xfef2;" horiz-adv-x="1663" arabic-form="final" 
d="M1522 665l-153 113l93 118l151 -114zM1276 665l-152 113l92 118l152 -114zM722 -817l-153 114l93 118l151 -114zM476 -817l-152 114l92 118l152 -114zM1136 0v179h252q30 0 36.5 12t-1.5 52l-55 288l125 9q28 -111 48 -213t23 -193l-43 45h142v-179h-27q-53 0 -99 11
t-78 27l87 -2q-44 -20 -122 -28t-190 -8h-98zM1663 0v179q32 0 43.5 -20.5t11.5 -69.5q0 -45 -12.5 -67t-42.5 -22zM1136 0q-30 0 -42 22t-12 67q0 49 11 69.5t43 20.5v-179zM678 19l59 160h505v-179h-170l35 48q41 -73 41 -144q0 -92 -61.5 -167.5t-165.5 -124.5
q-89 -41 -194 -66.5t-198 -25.5q-147 0 -244 60.5t-144.5 165t-47.5 237.5q0 158 64 335l102 -25q-21 -74 -33 -140.5t-12 -124.5q0 -144 76.5 -228.5t244.5 -84.5q78 0 169.5 18t170.5 48q69 24 111 54t42 60q0 22 -19.5 40t-57.5 32q-32 15 -79.5 23t-96.5 12t-89 4z
M1242 0v179q31 0 42.5 -20.5t11.5 -69.5q0 -45 -12 -67t-42 -22z" />
    <glyph glyph-name="uniFC7A" unicode="&#xfe9c;&#xfef0;" horiz-adv-x="1663" arabic-form="final" 
d="M1219 893l150 -112l-91 -116l-149 113zM1460 893l151 -112l-91 -116l-149 113zM1300 1118l150 -111l-90 -116l-149 112zM1136 0v179h252q30 0 36.5 12t-1.5 52l-55 288l125 9q28 -111 48 -213t23 -193l-43 45h142v-179h-27q-53 0 -99 11t-78 27l87 -2q-44 -20 -122 -28
t-190 -8h-98zM1663 0v179q32 0 43.5 -20.5t11.5 -69.5q0 -45 -12.5 -67t-42.5 -22zM1136 0q-30 0 -42 22t-12 67q0 49 11 69.5t43 20.5v-179zM678 19l59 160h505v-179h-170l35 48q41 -73 41 -144q0 -92 -61.5 -167.5t-165.5 -124.5q-89 -41 -194 -66.5t-198 -25.5
q-147 0 -244 60.5t-144.5 165t-47.5 237.5q0 158 64 335l102 -25q-21 -74 -33 -140.5t-12 -124.5q0 -144 76.5 -228.5t244.5 -84.5q78 0 169.5 18t170.5 48q69 24 111 54t42 60q0 22 -19.5 40t-57.5 32q-32 15 -79.5 23t-96.5 12t-89 4zM1242 0v179q31 0 42.5 -20.5
t11.5 -69.5q0 -45 -12 -67t-42 -22z" />
    <glyph glyph-name="uniFC7B" unicode="&#xfe9c;&#xfef2;" horiz-adv-x="1663" arabic-form="final" 
d="M1219 893l150 -112l-91 -116l-149 113zM1460 893l151 -112l-91 -116l-149 113zM1300 1118l150 -111l-90 -116l-149 112zM722 -817l-153 114l93 118l151 -114zM476 -817l-152 114l92 118l152 -114zM1136 0v179h252q30 0 36.5 12t-1.5 52l-55 288l125 9q28 -111 48 -213
t23 -193l-43 45h142v-179h-27q-53 0 -99 11t-78 27l87 -2q-44 -20 -122 -28t-190 -8h-98zM1663 0v179q32 0 43.5 -20.5t11.5 -69.5q0 -45 -12.5 -67t-42.5 -22zM1136 0q-30 0 -42 22t-12 67q0 49 11 69.5t43 20.5v-179zM678 19l59 160h505v-179h-170l35 48q41 -73 41 -144
q0 -92 -61.5 -167.5t-165.5 -124.5q-89 -41 -194 -66.5t-198 -25.5q-147 0 -244 60.5t-144.5 165t-47.5 237.5q0 158 64 335l102 -25q-21 -74 -33 -140.5t-12 -124.5q0 -144 76.5 -228.5t244.5 -84.5q78 0 169.5 18t170.5 48q69 24 111 54t42 60q0 22 -19.5 40t-57.5 32
q-32 15 -79.5 23t-96.5 12t-89 4zM1242 0v179q31 0 42.5 -20.5t11.5 -69.5q0 -45 -12 -67t-42 -22z" />
    <glyph glyph-name="uniFC7C" unicode="&#xfed4;&#xfef0;" horiz-adv-x="1965" arabic-form="final" 
d="M1116 0v179h51q75 0 125.5 2.5t92.5 7.5l-9 -34q-36 27 -65.5 76t-29.5 118q0 63 26 132.5t69.5 129t95 97t101.5 37.5q51 0 100 -37t88.5 -97t63 -128.5t23.5 -132.5q0 -67 -25 -115t-56 -76l-39 43q70 -15 128 -19t109 -4v-179h-38q-58 0 -127.5 6t-142 19t-141.5 32
l117 11q-103 -38 -202 -53t-207 -15h-108zM1561 242q41 0 85 15t74 44t30 70q0 39 -27 82.5t-67 75t-79 31.5q-42 0 -87.5 -33t-76.5 -78t-31 -80q0 -46 55 -86t124 -41zM1116 0q-30 0 -42 22t-12 67q0 49 11 69.5t43 20.5v-179zM1965 0v179q32 0 43 -20.5t11 -69.5
q0 -45 -12 -67t-42 -22zM1570 859l-163 121l98 125l162 -121zM678 19l59 160h505v-179h-170l35 48q41 -73 41 -144q0 -92 -61.5 -167.5t-165.5 -124.5q-89 -41 -194 -66.5t-198 -25.5q-147 0 -244 60.5t-144.5 165t-47.5 237.5q0 158 64 335l102 -25q-21 -74 -33 -140.5
t-12 -124.5q0 -144 76.5 -228.5t244.5 -84.5q78 0 169.5 18t170.5 48q69 24 111 54t42 60q0 22 -19.5 40t-57.5 32q-32 15 -79.5 23t-96.5 12t-89 4zM1242 0v179q31 0 42.5 -20.5t11.5 -69.5q0 -45 -12 -67t-42 -22z" />
    <glyph glyph-name="uniFC7D" unicode="&#xfed4;&#xfef2;" horiz-adv-x="1965" arabic-form="final" 
d="M1570 859l-163 121l99 125l162 -121zM722 -817l-153 114l93 118l151 -114zM476 -817l-152 114l92 118l152 -114zM1116 0v179h51q75 0 125.5 2.5t92.5 7.5l-9 -34q-36 27 -65.5 76t-29.5 118q0 63 26 132.5t69.5 129t95 97t101.5 37.5q51 0 100 -37t88.5 -97t63 -128.5
t23.5 -132.5q0 -67 -25 -115t-56 -76l-39 43q70 -15 128 -19t109 -4v-179h-38q-58 0 -127.5 6t-142 19t-141.5 32l117 11q-103 -38 -202 -53t-207 -15h-108zM1561 242q41 0 85 15t74 44t30 70q0 39 -27 82.5t-67 75t-79 31.5q-42 0 -87.5 -33t-76.5 -78t-31 -80
q0 -46 55 -86t124 -41zM1116 0q-30 0 -42 22t-12 67q0 49 11 69.5t43 20.5v-179zM1965 0v179q32 0 43 -20.5t11 -69.5q0 -45 -12 -67t-42 -22zM1570 859l-163 121l99 125l162 -121zM678 19l59 160h505v-179h-170l35 48q41 -73 41 -144q0 -92 -61.5 -167.5t-165.5 -124.5
q-89 -41 -194 -66.5t-198 -25.5q-147 0 -244 60.5t-144.5 165t-47.5 237.5q0 158 64 335l102 -25q-21 -74 -33 -140.5t-12 -124.5q0 -144 76.5 -228.5t244.5 -84.5q78 0 169.5 18t170.5 48q69 24 111 54t42 60q0 22 -19.5 40t-57.5 32q-32 15 -79.5 23t-96.5 12t-89 4z
M1242 0v179q31 0 42.5 -20.5t11.5 -69.5q0 -45 -12 -67t-42 -22z" />
    <glyph glyph-name="uniFC7E" unicode="&#xfed8;&#xfef0;" horiz-adv-x="1965" arabic-form="final" 
d="M1692 857l-153 113l92 118l152 -114zM1446 857l-153 113l93 118l151 -114zM1116 0v179h51q75 0 125.5 2.5t92.5 7.5l-9 -34q-36 27 -65.5 76t-29.5 118q0 63 26 132.5t69.5 129t95 97t101.5 37.5q51 0 100 -37t88.5 -97t63 -128.5t23.5 -132.5q0 -67 -25 -115t-56 -76
l-39 43q70 -15 128 -19t109 -4v-179h-38q-58 0 -127.5 6t-142 19t-141.5 32l117 11q-103 -38 -202 -53t-207 -15h-108zM1561 242q41 0 85 15t74 44t30 70q0 39 -27 82.5t-67 75t-79 31.5q-42 0 -87.5 -33t-76.5 -78t-31 -80q0 -46 55 -86t124 -41zM1116 0q-30 0 -42 22
t-12 67q0 49 11 69.5t43 20.5v-179zM1965 0v179q32 0 43 -20.5t11 -69.5q0 -45 -12 -67t-42 -22zM678 19l59 160h505v-179h-170l35 48q41 -73 41 -144q0 -92 -61.5 -167.5t-165.5 -124.5q-89 -41 -194 -66.5t-198 -25.5q-147 0 -244 60.5t-144.5 165t-47.5 237.5
q0 158 64 335l102 -25q-21 -74 -33 -140.5t-12 -124.5q0 -144 76.5 -228.5t244.5 -84.5q78 0 169.5 18t170.5 48q69 24 111 54t42 60q0 22 -19.5 40t-57.5 32q-32 15 -79.5 23t-96.5 12t-89 4zM1242 0v179q31 0 42.5 -20.5t11.5 -69.5q0 -45 -12 -67t-42 -22z" />
    <glyph glyph-name="uniFC7F" unicode="&#xfed8;&#xfef2;" horiz-adv-x="1965" arabic-form="final" 
d="M1692 857l-153 113l92 118l152 -114zM1446 857l-153 113l93 118l151 -114zM722 -817l-153 114l93 118l151 -114zM476 -817l-152 114l92 118l152 -114zM1116 0v179h51q75 0 125.5 2.5t92.5 7.5l-9 -34q-36 27 -65.5 76t-29.5 118q0 63 26 132.5t69.5 129t95 97t101.5 37.5
q51 0 100 -37t88.5 -97t63 -128.5t23.5 -132.5q0 -67 -25 -115t-56 -76l-39 43q70 -15 128 -19t109 -4v-179h-38q-58 0 -127.5 6t-142 19t-141.5 32l117 11q-103 -38 -202 -53t-207 -15h-108zM1561 242q41 0 85 15t74 44t30 70q0 39 -27 82.5t-67 75t-79 31.5
q-42 0 -87.5 -33t-76.5 -78t-31 -80q0 -46 55 -86t124 -41zM1116 0q-30 0 -42 22t-12 67q0 49 11 69.5t43 20.5v-179zM1965 0v179q32 0 43 -20.5t11 -69.5q0 -45 -12 -67t-42 -22zM678 19l59 160h505v-179h-170l35 48q41 -73 41 -144q0 -92 -61.5 -167.5t-165.5 -124.5
q-89 -41 -194 -66.5t-198 -25.5q-147 0 -244 60.5t-144.5 165t-47.5 237.5q0 158 64 335l102 -25q-21 -74 -33 -140.5t-12 -124.5q0 -144 76.5 -228.5t244.5 -84.5q78 0 169.5 18t170.5 48q69 24 111 54t42 60q0 22 -19.5 40t-57.5 32q-32 15 -79.5 23t-96.5 12t-89 4z
M1242 0v179q31 0 42.5 -20.5t11.5 -69.5q0 -45 -12 -67t-42 -22z" />
    <glyph glyph-name="uniFC83" unicode="&#xfedc;&#xfef0;" horiz-adv-x="1730" arabic-form="final" 
d="M907 0v179h462q53 0 75.5 6.5t22.5 23.5q0 19 -32 61q-55 76 -141.5 154.5t-174.5 149.5l58 14l-76 -69l-170 165l26 119l642 301l11 -155l-499 -214l3 44q116 -96 196 -171t132 -137.5t86 -118t60 -112.5q16 -35 36.5 -48t79.5 -13h26v-179q-46 0 -84.5 3t-75 14.5
t-78.5 37.5l88 10q-13 -20 -46 -35t-85.5 -22.5t-126.5 -7.5h-415zM907 0q-30 0 -42 22t-12 67q0 49 11 69.5t43 20.5v-179zM1730 0v179q32 0 43.5 -20.5t11.5 -69.5q0 -45 -12 -67t-43 -22zM678 19l59 160h505v-179h-170l35 48q41 -73 41 -144q0 -92 -61.5 -167.5
t-165.5 -124.5q-89 -41 -194 -66.5t-198 -25.5q-147 0 -244 60.5t-144.5 165t-47.5 237.5q0 158 64 335l102 -25q-21 -74 -33 -140.5t-12 -124.5q0 -144 76.5 -228.5t244.5 -84.5q78 0 169.5 18t170.5 48q69 24 111 54t42 60q0 22 -19.5 40t-57.5 32q-32 15 -79.5 23
t-96.5 12t-89 4zM1242 0v179q31 0 42.5 -20.5t11.5 -69.5q0 -45 -12 -67t-42 -22z" />
    <glyph glyph-name="uniFC84" unicode="&#xfedc;&#xfef2;" horiz-adv-x="1730" arabic-form="final" 
d="M722 -817l-153 114l93 118l151 -114zM476 -817l-152 114l92 118l152 -114zM907 0v179h462q53 0 75.5 6.5t22.5 23.5q0 19 -32 61q-55 76 -141.5 154.5t-174.5 149.5l58 14l-76 -69l-170 165l26 119l642 301l11 -155l-499 -214l3 44q116 -96 196 -171t132 -137.5t86 -118
t60 -112.5q16 -35 36.5 -48t79.5 -13h26v-179q-46 0 -84.5 3t-75 14.5t-78.5 37.5l88 10q-13 -20 -46 -35t-85.5 -22.5t-126.5 -7.5h-415zM907 0q-30 0 -42 22t-12 67q0 49 11 69.5t43 20.5v-179zM1730 0v179q32 0 43.5 -20.5t11.5 -69.5q0 -45 -12 -67t-43 -22zM678 19
l59 160h505v-179h-170l35 48q41 -73 41 -144q0 -92 -61.5 -167.5t-165.5 -124.5q-89 -41 -194 -66.5t-198 -25.5q-147 0 -244 60.5t-144.5 165t-47.5 237.5q0 158 64 335l102 -25q-21 -74 -33 -140.5t-12 -124.5q0 -144 76.5 -228.5t244.5 -84.5q78 0 169.5 18t170.5 48
q69 24 111 54t42 60q0 22 -19.5 40t-57.5 32q-32 15 -79.5 23t-96.5 12t-89 4zM1242 0v179q31 0 42.5 -20.5t11.5 -69.5q0 -45 -12 -67t-42 -22z" />
    <glyph glyph-name="uniFC86" unicode="&#xfee0;&#xfef0;" horiz-adv-x="1606" arabic-form="final" 
d="M1136 0v179h126q65 0 79.5 11t10.5 50q-4 28 -8 68t-10 87q-19 164 -40.5 333.5t-42.5 321.5l142 10q11 -105 22.5 -225t22 -234.5t18.5 -206.5t11 -141q3 -48 19 -61t77 -13h43v-179h-45q-52 0 -104 9.5t-95 48.5h90q-43 -37 -95.5 -47.5t-114.5 -10.5h-106zM1136 0
q-30 0 -42 22t-12 67q0 49 11 69.5t43 20.5v-179zM1606 0v179q32 0 43 -20.5t11 -69.5q0 -45 -12 -67t-42 -22zM678 19l59 160h505v-179h-170l35 48q41 -73 41 -144q0 -92 -61.5 -167.5t-165.5 -124.5q-89 -41 -194 -66.5t-198 -25.5q-147 0 -244 60.5t-144.5 165
t-47.5 237.5q0 158 64 335l102 -25q-21 -74 -33 -140.5t-12 -124.5q0 -144 76.5 -228.5t244.5 -84.5q78 0 169.5 18t170.5 48q69 24 111 54t42 60q0 22 -19.5 40t-57.5 32q-32 15 -79.5 23t-96.5 12t-89 4zM1242 0v179q31 0 42.5 -20.5t11.5 -69.5q0 -45 -12 -67t-42 -22z
" />
    <glyph glyph-name="uniFC87" unicode="&#xfee0;&#xfef2;" horiz-adv-x="1606" arabic-form="final" 
d="M722 -817l-153 114l93 118l151 -114zM476 -817l-152 114l92 118l152 -114zM1136 0v179h126q65 0 79.5 11t10.5 50q-4 28 -8 68t-10 87q-19 164 -40.5 333.5t-42.5 321.5l142 10q11 -105 22.5 -225t22 -234.5t18.5 -206.5t11 -141q3 -48 19 -61t77 -13h43v-179h-45
q-52 0 -104 9.5t-95 48.5h90q-43 -37 -95.5 -47.5t-114.5 -10.5h-106zM1136 0q-30 0 -42 22t-12 67q0 49 11 69.5t43 20.5v-179zM1606 0v179q32 0 43 -20.5t11 -69.5q0 -45 -12 -67t-42 -22zM678 19l59 160h505v-179h-170l35 48q41 -73 41 -144q0 -92 -61.5 -167.5
t-165.5 -124.5q-89 -41 -194 -66.5t-198 -25.5q-147 0 -244 60.5t-144.5 165t-47.5 237.5q0 158 64 335l102 -25q-21 -74 -33 -140.5t-12 -124.5q0 -144 76.5 -228.5t244.5 -84.5q78 0 169.5 18t170.5 48q69 24 111 54t42 60q0 22 -19.5 40t-57.5 32q-32 15 -79.5 23
t-96.5 12t-89 4zM1242 0v179q31 0 42.5 -20.5t11.5 -69.5q0 -45 -12 -67t-42 -22z" />
    <glyph glyph-name="uniFC8E" unicode="&#xfee8;&#xfef0;" horiz-adv-x="1663" arabic-form="final" 
d="M1136 0v179h252q30 0 36.5 12t-1.5 52l-55 288l125 9q28 -111 48 -213t23 -193l-43 45h142v-179h-27q-53 0 -99 11t-78 27l87 -2q-44 -20 -122 -28t-190 -8h-98zM1663 0v179q32 0 43.5 -20.5t11.5 -69.5q0 -45 -12.5 -67t-42.5 -22zM1136 0q-30 0 -42 22t-12 67
q0 49 11 69.5t43 20.5v-179zM1401 667l-163 121l98 125l162 -121zM678 19l59 160h505v-179h-170l35 48q41 -73 41 -144q0 -92 -61.5 -167.5t-165.5 -124.5q-89 -41 -194 -66.5t-198 -25.5q-147 0 -244 60.5t-144.5 165t-47.5 237.5q0 158 64 335l102 -25q-21 -74 -33 -140.5
t-12 -124.5q0 -144 76.5 -228.5t244.5 -84.5q78 0 169.5 18t170.5 48q69 24 111 54t42 60q0 22 -19.5 40t-57.5 32q-32 15 -79.5 23t-96.5 12t-89 4zM1242 0v179q31 0 42.5 -20.5t11.5 -69.5q0 -45 -12 -67t-42 -22z" />
    <glyph glyph-name="uniFC8F" unicode="&#xfee8;&#xfef2;" horiz-adv-x="1663" arabic-form="final" 
d="M1400 667l-162 121l98 125l162 -121zM722 -817l-153 114l93 118l151 -114zM476 -817l-152 114l92 118l152 -114zM1136 0v179h252q30 0 36.5 12t-1.5 52l-55 288l125 9q28 -111 48 -213t23 -193l-43 45h142v-179h-27q-53 0 -99 11t-78 27l87 -2q-44 -20 -122 -28t-190 -8
h-98zM1663 0v179q32 0 43.5 -20.5t11.5 -69.5q0 -45 -12.5 -67t-42.5 -22zM1136 0q-30 0 -42 22t-12 67q0 49 11 69.5t43 20.5v-179zM1400 667l-162 121l98 125l162 -121zM678 19l59 160h505v-179h-170l35 48q41 -73 41 -144q0 -92 -61.5 -167.5t-165.5 -124.5
q-89 -41 -194 -66.5t-198 -25.5q-147 0 -244 60.5t-144.5 165t-47.5 237.5q0 158 64 335l102 -25q-21 -74 -33 -140.5t-12 -124.5q0 -144 76.5 -228.5t244.5 -84.5q78 0 169.5 18t170.5 48q69 24 111 54t42 60q0 22 -19.5 40t-57.5 32q-32 15 -79.5 23t-96.5 12t-89 4z
M1242 0v179q31 0 42.5 -20.5t11.5 -69.5q0 -45 -12 -67t-42 -22z" />
    <glyph glyph-name="uniFCF5" unicode="&#xfec3;&#xfef0;" horiz-adv-x="2407" arabic-form="isolated" 
d="M1776 -11q-49 0 -120 3t-147.5 5.5t-141.5 2.5h-261v179h236l-76 -32q67 34 76.5 88t-0.5 129l-94 686l138 10l62 -560q5 -42 7.5 -80t2 -70.5t-5.5 -61.5l-17 9q79 89 169.5 164.5t183.5 121t180 45.5q103 0 180.5 -48t121.5 -135t44 -203q0 -46 -10 -85t-26 -67
q-16 -27 -37.5 -40t-62.5 -24q-68 -16 -176.5 -26.5t-225.5 -10.5zM1453 144l-6 26q82 -3 155.5 -4t168.5 -1q76 0 148 3.5t133.5 10.5t103.5 18q32 9 42.5 21.5t10.5 28.5q0 54 -40 99t-103.5 72.5t-133.5 27.5q-90 0 -175.5 -43t-162 -112t-141.5 -147zM1106 0
q-30 0 -42 22t-12 67q0 49 11 69.5t43 20.5v-179zM678 19l59 160h505v-179h-170l35 48q41 -73 41 -144q0 -92 -61.5 -167.5t-165.5 -124.5q-89 -41 -194 -66.5t-198 -25.5q-147 0 -244 60.5t-144.5 165t-47.5 237.5q0 158 64 335l102 -25q-21 -74 -33 -140.5t-12 -124.5
q0 -144 76.5 -228.5t244.5 -84.5q78 0 169.5 18t170.5 48q69 24 111 54t42 60q0 22 -19.5 40t-57.5 32q-32 15 -79.5 23t-96.5 12t-89 4zM1242 0v179q31 0 42.5 -20.5t11.5 -69.5q0 -45 -12 -67t-42 -22z" />
    <glyph glyph-name="uniFCF6" unicode="&#xfec3;&#xfef2;" horiz-adv-x="2407" arabic-form="isolated" 
d="M722 -817l-153 114l93 118l151 -114zM476 -817l-152 114l92 118l152 -114zM1776 -11q-49 0 -120 3t-147.5 5.5t-141.5 2.5h-261v179h236l-76 -32q67 34 76.5 88t-0.5 129l-94 686l138 10l62 -560q5 -42 7.5 -80t2 -70.5t-5.5 -61.5l-17 9q79 89 169.5 164.5t183.5 121
t180 45.5q103 0 180.5 -48t121.5 -135t44 -203q0 -46 -10 -85t-26 -67q-16 -27 -37.5 -40t-62.5 -24q-68 -16 -176.5 -26.5t-225.5 -10.5zM1453 144l-6 26q82 -3 155.5 -4t168.5 -1q76 0 148 3.5t133.5 10.5t103.5 18q32 9 42.5 21.5t10.5 28.5q0 54 -40 99t-103.5 72.5
t-133.5 27.5q-90 0 -175.5 -43t-162 -112t-141.5 -147zM1106 0q-30 0 -42 22t-12 67q0 49 11 69.5t43 20.5v-179zM678 19l59 160h505v-179h-170l35 48q41 -73 41 -144q0 -92 -61.5 -167.5t-165.5 -124.5q-89 -41 -194 -66.5t-198 -25.5q-147 0 -244 60.5t-144.5 165
t-47.5 237.5q0 158 64 335l102 -25q-21 -74 -33 -140.5t-12 -124.5q0 -144 76.5 -228.5t244.5 -84.5q78 0 169.5 18t170.5 48q69 24 111 54t42 60q0 22 -19.5 40t-57.5 32q-32 15 -79.5 23t-96.5 12t-89 4zM1242 0v179q31 0 42.5 -20.5t11.5 -69.5q0 -45 -12 -67t-42 -22z
" />
    <glyph glyph-name="uniFCF7" unicode="&#xfecb;&#xfef0;" horiz-adv-x="2081" arabic-form="isolated" 
d="M1106 0v179h175q38 0 84.5 3t118.5 22l-58 -50q-70 44 -108 105t-38 129q0 108 41.5 187t117 122.5t176.5 43.5q66 0 129 -17.5t133 -54.5l-30 -135q-58 18 -120 28t-120 10q-90 0 -153.5 -30t-63.5 -89q0 -55 51 -99.5t111 -69.5q23 -9 50.5 -15.5t50.5 -6.5t46 5.5
t53 15.5q63 21 121 41.5t116 43.5l9 -3l-18 -171q-66 -27 -155 -59t-176 -59.5t-149 -42.5q-63 -15 -125.5 -24t-128.5 -9h-140zM1106 0q-30 0 -42 22t-12 67q0 49 11 69.5t43 20.5v-179zM678 19l59 160h505v-179h-170l35 48q41 -73 41 -144q0 -92 -61.5 -167.5
t-165.5 -124.5q-89 -41 -194 -66.5t-198 -25.5q-147 0 -244 60.5t-144.5 165t-47.5 237.5q0 158 64 335l102 -25q-21 -74 -33 -140.5t-12 -124.5q0 -144 76.5 -228.5t244.5 -84.5q78 0 169.5 18t170.5 48q69 24 111 54t42 60q0 22 -19.5 40t-57.5 32q-32 15 -79.5 23
t-96.5 12t-89 4zM1242 0v179q31 0 42.5 -20.5t11.5 -69.5q0 -45 -12 -67t-42 -22z" />
    <glyph glyph-name="uniFCF8" unicode="&#xfecb;&#xfef2;" horiz-adv-x="2081" arabic-form="isolated" 
d="M722 -817l-153 114l93 118l151 -114zM476 -817l-152 114l92 118l152 -114zM1106 0v179h175q38 0 84.5 3t118.5 22l-58 -50q-70 44 -108 105t-38 129q0 108 41.5 187t117 122.5t176.5 43.5q66 0 129 -17.5t133 -54.5l-30 -135q-58 18 -120 28t-120 10q-90 0 -153.5 -30
t-63.5 -89q0 -55 51 -99.5t111 -69.5q23 -9 50.5 -15.5t50.5 -6.5t46 5.5t53 15.5q63 21 121 41.5t116 43.5l9 -3l-18 -171q-66 -27 -155 -59t-176 -59.5t-149 -42.5q-63 -15 -125.5 -24t-128.5 -9h-140zM1106 0q-30 0 -42 22t-12 67q0 49 11 69.5t43 20.5v-179zM678 19
l59 160h505v-179h-170l35 48q41 -73 41 -144q0 -92 -61.5 -167.5t-165.5 -124.5q-89 -41 -194 -66.5t-198 -25.5q-147 0 -244 60.5t-144.5 165t-47.5 237.5q0 158 64 335l102 -25q-21 -74 -33 -140.5t-12 -124.5q0 -144 76.5 -228.5t244.5 -84.5q78 0 169.5 18t170.5 48
q69 24 111 54t42 60q0 22 -19.5 40t-57.5 32q-32 15 -79.5 23t-96.5 12t-89 4zM1242 0v179q31 0 42.5 -20.5t11.5 -69.5q0 -45 -12 -67t-42 -22z" />
    <glyph glyph-name="uniFCF9" unicode="&#xfecf;&#xfef0;" horiz-adv-x="2082" arabic-form="isolated" 
d="M678 19l59 160h505v-179h-170l35 48q41 -73 41 -144q0 -92 -61.5 -167.5t-165.5 -124.5q-89 -41 -194 -66.5t-198 -25.5q-147 0 -244 60.5t-144.5 165t-47.5 237.5q0 158 64 335l102 -25q-21 -74 -33 -140.5t-12 -124.5q0 -144 76.5 -228.5t244.5 -84.5q78 0 169.5 18
t170.5 48q69 24 111 54t42 60q0 22 -19.5 40t-57.5 32q-32 15 -79.5 23t-96.5 12t-89 4zM1242 0v179q31 0 42.5 -20.5t11.5 -69.5q0 -45 -12 -67t-42 -22zM1106 0v179h175q38 0 84.5 3t118.5 22l-58 -50q-70 44 -108 105t-38 129q0 108 41.5 187t117 122.5t176.5 43.5
q66 0 129 -17.5t133 -54.5l-30 -135q-58 18 -120 28t-120 10q-90 0 -153.5 -30t-63.5 -89q0 -55 51 -99.5t111 -69.5q23 -9 50.5 -15.5t50.5 -6.5t46 5.5t53 15.5q63 21 121 41.5t116 43.5l9 -3l-18 -171q-66 -27 -155 -59t-176 -59.5t-149 -42.5q-63 -15 -125.5 -24
t-128.5 -9h-140zM1106 0q-30 0 -42 22t-12 67q0 49 11 69.5t43 20.5v-179zM1565 871l-163 121l98 125l162 -121z" />
    <glyph glyph-name="uniFCFA" unicode="&#xfecf;&#xfef2;" horiz-adv-x="2081" arabic-form="isolated" 
d="M722 -817l-153 114l93 118l151 -114zM476 -817l-152 114l92 118l152 -114zM1564 870l-163 122l99 125l162 -121zM678 19l59 160h505v-179h-170l35 48q41 -73 41 -144q0 -92 -61.5 -167.5t-165.5 -124.5q-89 -41 -194 -66.5t-198 -25.5q-147 0 -244 60.5t-144.5 165
t-47.5 237.5q0 158 64 335l102 -25q-21 -74 -33 -140.5t-12 -124.5q0 -144 76.5 -228.5t244.5 -84.5q78 0 169.5 18t170.5 48q69 24 111 54t42 60q0 22 -19.5 40t-57.5 32q-32 15 -79.5 23t-96.5 12t-89 4zM1242 0v179q31 0 42.5 -20.5t11.5 -69.5q0 -45 -12 -67t-42 -22z
M1106 0v179h175q38 0 84.5 3t118.5 22l-58 -50q-70 44 -108 105t-38 129q0 108 41.5 187t117 122.5t176.5 43.5q66 0 129 -17.5t133 -54.5l-30 -135q-58 18 -120 28t-120 10q-90 0 -153.5 -30t-63.5 -89q0 -55 51 -99.5t111 -69.5q23 -9 50.5 -15.5t50.5 -6.5t46 5.5
t53 15.5q63 21 121 41.5t116 43.5l9 -3l-18 -171q-66 -27 -155 -59t-176 -59.5t-149 -42.5q-63 -15 -125.5 -24t-128.5 -9h-140zM1106 0q-30 0 -42 22t-12 67q0 49 11 69.5t43 20.5v-179zM1564 870l-163 122l99 125l162 -121z" />
    <glyph glyph-name="uniFCFB" unicode="&#xfeb3;&#xfef0;" horiz-adv-x="2395" arabic-form="isolated" 
d="M1632 -5q-88 0 -173.5 11.5t-163.5 36.5l126 4q-34 -29 -80 -38t-122 -9h-113v179h156q63 0 83.5 25.5t34.5 99.5l46 246l119 -24l-43 -250q-6 -37 -14 -66t-17 -53l-13 28q33 -6 77.5 -9t90.5 -3q101 0 128.5 21.5t27.5 74.5l1 240h117l3 -235q1 -54 29.5 -77t128.5 -23
q49 0 79 5t46 13q21 12 21 38q0 18 -9 50q-15 44 -46.5 111t-82.5 148l114 76q56 -82 91.5 -183.5t35.5 -198.5q0 -89 -34 -141t-91 -74.5t-128 -22.5q-35 0 -77.5 5.5t-82 19t-66.5 38.5l37 4q-44 -38 -101 -52.5t-135 -14.5zM1106 0q-30 0 -42 22t-12 67q0 49 11 69.5
t43 20.5v-179zM678 19l59 160h505v-179h-170l35 48q41 -73 41 -144q0 -92 -61.5 -167.5t-165.5 -124.5q-89 -41 -194 -66.5t-198 -25.5q-147 0 -244 60.5t-144.5 165t-47.5 237.5q0 158 64 335l102 -25q-21 -74 -33 -140.5t-12 -124.5q0 -144 76.5 -228.5t244.5 -84.5
q78 0 169.5 18t170.5 48q69 24 111 54t42 60q0 22 -19.5 40t-57.5 32q-32 15 -79.5 23t-96.5 12t-89 4zM1242 0v179q31 0 42.5 -20.5t11.5 -69.5q0 -45 -12 -67t-42 -22z" />
    <glyph glyph-name="uniFCFC" unicode="&#xfeb3;&#xfef2;" horiz-adv-x="2395" arabic-form="isolated" 
d="M722 -817l-153 114l93 118l151 -114zM476 -817l-152 114l92 118l152 -114zM1632 -5q-88 0 -173.5 11.5t-163.5 36.5l126 4q-34 -29 -80 -38t-122 -9h-113v179h156q63 0 83.5 25.5t34.5 99.5l46 246l119 -24l-43 -250q-6 -37 -14 -66t-17 -53l-13 28q33 -6 77.5 -9
t90.5 -3q101 0 128.5 21.5t27.5 74.5l1 240h117l3 -235q1 -54 29.5 -77t128.5 -23q49 0 79 5t46 13q21 12 21 38q0 18 -9 50q-15 44 -46.5 111t-82.5 148l114 76q56 -82 91.5 -183.5t35.5 -198.5q0 -89 -34 -141t-91 -74.5t-128 -22.5q-35 0 -77.5 5.5t-82 19t-66.5 38.5
l37 4q-44 -38 -101 -52.5t-135 -14.5zM1106 0q-30 0 -42 22t-12 67q0 49 11 69.5t43 20.5v-179zM678 19l59 160h505v-179h-170l35 48q41 -73 41 -144q0 -92 -61.5 -167.5t-165.5 -124.5q-89 -41 -194 -66.5t-198 -25.5q-147 0 -244 60.5t-144.5 165t-47.5 237.5
q0 158 64 335l102 -25q-21 -74 -33 -140.5t-12 -124.5q0 -144 76.5 -228.5t244.5 -84.5q78 0 169.5 18t170.5 48q69 24 111 54t42 60q0 22 -19.5 40t-57.5 32q-32 15 -79.5 23t-96.5 12t-89 4zM1242 0v179q31 0 42.5 -20.5t11.5 -69.5q0 -45 -12 -67t-42 -22z" />
    <glyph glyph-name="uniFCFD" unicode="&#xfeb7;&#xfef0;" horiz-adv-x="2395" arabic-form="isolated" 
d="M1661 867l150 -112l-91 -116l-149 112zM1902 867l150 -112l-90 -116l-150 112zM1742 1092l150 -111l-91 -116l-149 112zM1632 -5q-88 0 -173.5 11.5t-163.5 36.5l126 4q-34 -29 -80 -38t-122 -9h-113v179h156q63 0 83.5 25.5t34.5 99.5l46 246l119 -24l-43 -250
q-6 -37 -14 -66t-17 -53l-13 28q33 -6 77.5 -9t90.5 -3q101 0 128.5 21.5t27.5 74.5l1 240h117l3 -235q1 -54 29.5 -77t128.5 -23q49 0 79 5t46 13q21 12 21 38q0 18 -9 50q-15 44 -46.5 111t-82.5 148l114 76q56 -82 91.5 -183.5t35.5 -198.5q0 -89 -34 -141t-91 -74.5
t-128 -22.5q-35 0 -77.5 5.5t-82 19t-66.5 38.5l37 4q-44 -38 -101 -52.5t-135 -14.5zM1106 0q-30 0 -42 22t-12 67q0 49 11 69.5t43 20.5v-179zM678 19l59 160h505v-179h-170l35 48q41 -73 41 -144q0 -92 -61.5 -167.5t-165.5 -124.5q-89 -41 -194 -66.5t-198 -25.5
q-147 0 -244 60.5t-144.5 165t-47.5 237.5q0 158 64 335l102 -25q-21 -74 -33 -140.5t-12 -124.5q0 -144 76.5 -228.5t244.5 -84.5q78 0 169.5 18t170.5 48q69 24 111 54t42 60q0 22 -19.5 40t-57.5 32q-32 15 -79.5 23t-96.5 12t-89 4zM1242 0v179q31 0 42.5 -20.5
t11.5 -69.5q0 -45 -12 -67t-42 -22z" />
    <glyph glyph-name="uniFCFE" unicode="&#xfeb7;&#xfef2;" horiz-adv-x="2395" arabic-form="isolated" 
d="M1661 867l150 -112l-91 -116l-149 112zM1902 867l150 -112l-90 -116l-150 112zM1742 1092l150 -111l-91 -116l-149 112zM722 -817l-153 114l93 118l151 -114zM476 -817l-152 114l92 118l152 -114zM1632 -5q-88 0 -173.5 11.5t-163.5 36.5l126 4q-34 -29 -80 -38t-122 -9
h-113v179h156q63 0 83.5 25.5t34.5 99.5l46 246l119 -24l-43 -250q-6 -37 -14 -66t-17 -53l-13 28q33 -6 77.5 -9t90.5 -3q101 0 128.5 21.5t27.5 74.5l1 240h117l3 -235q1 -54 29.5 -77t128.5 -23q49 0 79 5t46 13q21 12 21 38q0 18 -9 50q-15 44 -46.5 111t-82.5 148
l114 76q56 -82 91.5 -183.5t35.5 -198.5q0 -89 -34 -141t-91 -74.5t-128 -22.5q-35 0 -77.5 5.5t-82 19t-66.5 38.5l37 4q-44 -38 -101 -52.5t-135 -14.5zM1106 0q-30 0 -42 22t-12 67q0 49 11 69.5t43 20.5v-179zM678 19l59 160h505v-179h-170l35 48q41 -73 41 -144
q0 -92 -61.5 -167.5t-165.5 -124.5q-89 -41 -194 -66.5t-198 -25.5q-147 0 -244 60.5t-144.5 165t-47.5 237.5q0 158 64 335l102 -25q-21 -74 -33 -140.5t-12 -124.5q0 -144 76.5 -228.5t244.5 -84.5q78 0 169.5 18t170.5 48q69 24 111 54t42 60q0 22 -19.5 40t-57.5 32
q-32 15 -79.5 23t-96.5 12t-89 4zM1242 0v179q31 0 42.5 -20.5t11.5 -69.5q0 -45 -12 -67t-42 -22z" />
    <glyph glyph-name="uniFD05" unicode="&#xfebb;&#xfef0;" horiz-adv-x="2394" arabic-form="isolated" 
d="M1751 -12q-35 0 -96 3t-125.5 6t-110.5 3h-421v179h259q33 0 41 11.5t-9 52.5l-131 313l137 10l126 -339l-37 12q142 179 297 284t293 105q89 0 166 -45t124 -131.5t47 -209.5q0 -37 -9 -76t-23 -68q-18 -35 -41 -49t-70 -25q-69 -15 -177.5 -25.5t-239.5 -10.5z
M1447 142l-6 33q89 -4 170.5 -7t156.5 -3q121 0 220 7.5t162 24.5q35 9 45.5 21t10.5 26q0 54 -37.5 100t-100.5 74t-140 28q-109 0 -231.5 -75t-249.5 -229zM998 0q-30 0 -42 22t-12 67q0 49 11 69.5t43 20.5v-179zM678 19l59 160h505v-179h-170l35 48q41 -73 41 -144
q0 -92 -61.5 -167.5t-165.5 -124.5q-89 -41 -194 -66.5t-198 -25.5q-147 0 -244 60.5t-144.5 165t-47.5 237.5q0 158 64 335l102 -25q-21 -74 -33 -140.5t-12 -124.5q0 -144 76.5 -228.5t244.5 -84.5q78 0 169.5 18t170.5 48q69 24 111 54t42 60q0 22 -19.5 40t-57.5 32
q-32 15 -79.5 23t-96.5 12t-89 4zM1242 0v179q31 0 42.5 -20.5t11.5 -69.5q0 -45 -12 -67t-42 -22z" />
    <glyph glyph-name="uniFD06" unicode="&#xfebb;&#xfef2;" horiz-adv-x="2394" arabic-form="isolated" 
d="M722 -817l-153 114l93 118l151 -114zM476 -817l-152 114l92 118l152 -114zM1751 -12q-35 0 -96 3t-125.5 6t-110.5 3h-421v179h259q33 0 41 11.5t-9 52.5l-131 313l137 10l126 -339l-37 12q142 179 297 284t293 105q89 0 166 -45t124 -131.5t47 -209.5q0 -37 -9 -76
t-23 -68q-18 -35 -41 -49t-70 -25q-69 -15 -177.5 -25.5t-239.5 -10.5zM1447 142l-6 33q89 -4 170.5 -7t156.5 -3q121 0 220 7.5t162 24.5q35 9 45.5 21t10.5 26q0 54 -37.5 100t-100.5 74t-140 28q-109 0 -231.5 -75t-249.5 -229zM998 0q-30 0 -42 22t-12 67q0 49 11 69.5
t43 20.5v-179zM678 19l59 160h505v-179h-170l35 48q41 -73 41 -144q0 -92 -61.5 -167.5t-165.5 -124.5q-89 -41 -194 -66.5t-198 -25.5q-147 0 -244 60.5t-144.5 165t-47.5 237.5q0 158 64 335l102 -25q-21 -74 -33 -140.5t-12 -124.5q0 -144 76.5 -228.5t244.5 -84.5
q78 0 169.5 18t170.5 48q69 24 111 54t42 60q0 22 -19.5 40t-57.5 32q-32 15 -79.5 23t-96.5 12t-89 4zM1242 0v179q31 0 42.5 -20.5t11.5 -69.5q0 -45 -12 -67t-42 -22z" />
    <glyph glyph-name="uniFD07" unicode="&#xfebf;&#xfef0;" horiz-adv-x="2394" arabic-form="isolated" 
d="M1751 -12q-35 0 -96 3t-125.5 6t-110.5 3h-421v179h259q33 0 41 11.5t-9 52.5l-131 313l137 10l126 -339l-37 12q142 179 297 284t293 105q89 0 166 -45t124 -131.5t47 -209.5q0 -37 -9 -76t-23 -68q-18 -35 -41 -49t-70 -25q-69 -15 -177.5 -25.5t-239.5 -10.5z
M1447 142l-6 33q89 -4 170.5 -7t156.5 -3q121 0 220 7.5t162 24.5q35 9 45.5 21t10.5 26q0 54 -37.5 100t-100.5 74t-140 28q-109 0 -231.5 -75t-249.5 -229zM998 0q-30 0 -42 22t-12 67q0 49 11 69.5t43 20.5v-179zM1829 757l-163 121l98 125l162 -121zM678 19l59 160h505
v-179h-170l35 48q41 -73 41 -144q0 -92 -61.5 -167.5t-165.5 -124.5q-89 -41 -194 -66.5t-198 -25.5q-147 0 -244 60.5t-144.5 165t-47.5 237.5q0 158 64 335l102 -25q-21 -74 -33 -140.5t-12 -124.5q0 -144 76.5 -228.5t244.5 -84.5q78 0 169.5 18t170.5 48q69 24 111 54
t42 60q0 22 -19.5 40t-57.5 32q-32 15 -79.5 23t-96.5 12t-89 4zM1242 0v179q31 0 42.5 -20.5t11.5 -69.5q0 -45 -12 -67t-42 -22z" />
    <glyph glyph-name="uniFD08" unicode="&#xfebf;&#xfef2;" horiz-adv-x="2394" arabic-form="isolated" 
d="M1829 757l-163 121l99 125l161 -121zM722 -817l-153 114l93 118l151 -114zM476 -817l-152 114l92 118l152 -114zM1751 -12q-35 0 -96 3t-125.5 6t-110.5 3h-421v179h259q33 0 41 11.5t-9 52.5l-131 313l137 10l126 -339l-37 12q142 179 297 284t293 105q89 0 166 -45
t124 -131.5t47 -209.5q0 -37 -9 -76t-23 -68q-18 -35 -41 -49t-70 -25q-69 -15 -177.5 -25.5t-239.5 -10.5zM1447 142l-6 33q89 -4 170.5 -7t156.5 -3q121 0 220 7.5t162 24.5q35 9 45.5 21t10.5 26q0 54 -37.5 100t-100.5 74t-140 28q-109 0 -231.5 -75t-249.5 -229zM998 0
q-30 0 -42 22t-12 67q0 49 11 69.5t43 20.5v-179zM1829 757l-163 121l99 125l161 -121zM678 19l59 160h505v-179h-170l35 48q41 -73 41 -144q0 -92 -61.5 -167.5t-165.5 -124.5q-89 -41 -194 -66.5t-198 -25.5q-147 0 -244 60.5t-144.5 165t-47.5 237.5q0 158 64 335
l102 -25q-21 -74 -33 -140.5t-12 -124.5q0 -144 76.5 -228.5t244.5 -84.5q78 0 169.5 18t170.5 48q69 24 111 54t42 60q0 22 -19.5 40t-57.5 32q-32 15 -79.5 23t-96.5 12t-89 4zM1242 0v179q31 0 42.5 -20.5t11.5 -69.5q0 -45 -12 -67t-42 -22z" />
    <glyph glyph-name="uniFD11" unicode="&#xfec4;&#xfef0;" horiz-adv-x="2449" arabic-form="final" 
d="M2449 0q-36 0 -127.5 1.5t-218.5 8t-273 20.5l422 149h197v-179zM2449 0v179q32 0 43 -20.5t11 -69.5q0 -45 -12 -67t-42 -22zM1776 -11q-49 0 -120 3t-147.5 5.5t-141.5 2.5h-261v179h236l-76 -32q67 34 76.5 88t-0.5 129l-94 686l138 10l62 -560q5 -42 7.5 -80t2 -70.5
t-5.5 -61.5l-17 9q79 89 169.5 164.5t183.5 121t180 45.5q103 0 180.5 -48t121.5 -135t44 -203q0 -46 -10 -85t-26 -67q-16 -27 -37.5 -40t-62.5 -24q-68 -16 -176.5 -26.5t-225.5 -10.5zM1453 144l-6 26q82 -3 155.5 -4t168.5 -1q76 0 148 3.5t133.5 10.5t103.5 18
q32 9 42.5 21.5t10.5 28.5q0 54 -40 99t-103.5 72.5t-133.5 27.5q-90 0 -175.5 -43t-162 -112t-141.5 -147zM1106 0q-30 0 -42 22t-12 67q0 49 11 69.5t43 20.5v-179zM678 19l59 160h505v-179h-170l35 48q41 -73 41 -144q0 -92 -61.5 -167.5t-165.5 -124.5
q-89 -41 -194 -66.5t-198 -25.5q-147 0 -244 60.5t-144.5 165t-47.5 237.5q0 158 64 335l102 -25q-21 -74 -33 -140.5t-12 -124.5q0 -144 76.5 -228.5t244.5 -84.5q78 0 169.5 18t170.5 48q69 24 111 54t42 60q0 22 -19.5 40t-57.5 32q-32 15 -79.5 23t-96.5 12t-89 4z
M1242 0v179q31 0 42.5 -20.5t11.5 -69.5q0 -45 -12 -67t-42 -22z" />
    <glyph glyph-name="uniFD12" unicode="&#xfec4;&#xfef2;" horiz-adv-x="2449" arabic-form="final" 
d="M722 -817l-153 114l93 118l151 -114zM476 -817l-152 114l92 118l152 -114zM2449 0q-36 0 -127.5 1.5t-218.5 8t-273 20.5l422 149h197v-179zM2449 0v179q32 0 43 -20.5t11 -69.5q0 -45 -12 -67t-42 -22zM1776 -11q-49 0 -120 3t-147.5 5.5t-141.5 2.5h-261v179h236
l-76 -32q67 34 76.5 88t-0.5 129l-94 686l138 10l62 -560q5 -42 7.5 -80t2 -70.5t-5.5 -61.5l-17 9q79 89 169.5 164.5t183.5 121t180 45.5q103 0 180.5 -48t121.5 -135t44 -203q0 -46 -10 -85t-26 -67q-16 -27 -37.5 -40t-62.5 -24q-68 -16 -176.5 -26.5t-225.5 -10.5z
M1453 144l-6 26q82 -3 155.5 -4t168.5 -1q76 0 148 3.5t133.5 10.5t103.5 18q32 9 42.5 21.5t10.5 28.5q0 54 -40 99t-103.5 72.5t-133.5 27.5q-90 0 -175.5 -43t-162 -112t-141.5 -147zM1106 0q-30 0 -42 22t-12 67q0 49 11 69.5t43 20.5v-179zM678 19l59 160h505v-179
h-170l35 48q41 -73 41 -144q0 -92 -61.5 -167.5t-165.5 -124.5q-89 -41 -194 -66.5t-198 -25.5q-147 0 -244 60.5t-144.5 165t-47.5 237.5q0 158 64 335l102 -25q-21 -74 -33 -140.5t-12 -124.5q0 -144 76.5 -228.5t244.5 -84.5q78 0 169.5 18t170.5 48q69 24 111 54t42 60
q0 22 -19.5 40t-57.5 32q-32 15 -79.5 23t-96.5 12t-89 4zM1242 0v179q31 0 42.5 -20.5t11.5 -69.5q0 -45 -12 -67t-42 -22z" />
    <glyph glyph-name="uniFD13" unicode="&#xfecc;&#xfef0;" horiz-adv-x="2230" arabic-form="final" 
d="M1106 0v179h76q108 0 209.5 10t198.5 37l-48 -24q-59 35 -128 82.5t-147 114.5l15 165q83 35 183.5 51.5t207.5 16.5q116 0 230.5 -18.5t212.5 -53.5l-19 -155q-61 -61 -130 -110.5t-140 -92.5l-10 21q97 -26 176.5 -35t172.5 -9h64v-179h-61q-89 0 -167 12.5t-157.5 40
t-174.5 72.5l76 19q-132 -81 -253.5 -112.5t-258.5 -31.5h-128zM1955 457q-59 12 -130 18.5t-141 6.5q-71 0 -139.5 -6.5t-128.5 -20.5l-3 -16q44 -27 98.5 -57.5t107 -57.5t88.5 -45l-45 -9q68 35 144.5 77.5t145.5 96.5zM1106 0q-30 0 -42 22t-12 67q0 49 11 69.5t43 20.5
v-179zM2230 0v179q32 0 43 -20.5t11 -69.5q0 -45 -12 -67t-42 -22zM678 19l59 160h505v-179h-170l35 48q41 -73 41 -144q0 -92 -61.5 -167.5t-165.5 -124.5q-89 -41 -194 -66.5t-198 -25.5q-147 0 -244 60.5t-144.5 165t-47.5 237.5q0 158 64 335l102 -25
q-21 -74 -33 -140.5t-12 -124.5q0 -144 76.5 -228.5t244.5 -84.5q78 0 169.5 18t170.5 48q69 24 111 54t42 60q0 22 -19.5 40t-57.5 32q-32 15 -79.5 23t-96.5 12t-89 4zM1242 0v179q31 0 42.5 -20.5t11.5 -69.5q0 -45 -12 -67t-42 -22z" />
    <glyph glyph-name="uniFD14" unicode="&#xfecc;&#xfef2;" horiz-adv-x="2230" arabic-form="final" 
d="M721 -819l-153 113l93 118l151 -114zM475 -819l-152 113l92 118l152 -114zM1106 0v179h76q108 0 209.5 10t198.5 37l-48 -24q-59 35 -128 82.5t-147 114.5l15 165q83 35 183.5 51.5t207.5 16.5q116 0 230.5 -18.5t212.5 -53.5l-19 -155q-61 -61 -130 -110.5t-140 -92.5
l-10 21q97 -26 176.5 -35t172.5 -9h64v-179h-61q-89 0 -167 12.5t-157.5 40t-174.5 72.5l76 19q-132 -81 -253.5 -112.5t-258.5 -31.5h-128zM1955 457q-59 12 -130 18.5t-141 6.5q-71 0 -139.5 -6.5t-128.5 -20.5l-3 -16q44 -27 98.5 -57.5t107 -57.5t88.5 -45l-45 -9
q68 35 144.5 77.5t145.5 96.5zM1106 0q-30 0 -42 22t-12 67q0 49 11 69.5t43 20.5v-179zM2230 0v179q32 0 43 -20.5t11 -69.5q0 -45 -12 -67t-42 -22zM677 17l59 160h505v-179h-170l35 48q41 -73 41 -144q0 -93 -61.5 -168t-165.5 -124q-89 -42 -194 -67t-198 -25
q-147 0 -244 60.5t-144.5 165t-47.5 237.5q0 158 64 335l102 -25q-21 -74 -33 -140.5t-12 -124.5q0 -144 76.5 -229t244.5 -85q78 0 169.5 18t170.5 49q69 24 111 54t42 60q0 22 -19.5 40t-57.5 32q-32 14 -79.5 22.5t-96.5 12.5t-88 4zM1241 -2v179q32 0 43 -20.5t11 -70.5
q0 -44 -12 -66t-42 -22z" />
    <glyph glyph-name="uniFD15" unicode="&#xfed0;&#xfef0;" horiz-adv-x="2230" arabic-form="final" 
d="M678 19l59 160h505v-179h-170l35 48q41 -73 41 -144q0 -92 -61.5 -167.5t-165.5 -124.5q-89 -41 -194 -66.5t-198 -25.5q-147 0 -244 60.5t-144.5 165t-47.5 237.5q0 158 64 335l102 -25q-21 -74 -33 -140.5t-12 -124.5q0 -144 76.5 -228.5t244.5 -84.5q78 0 169.5 18
t170.5 48q69 24 111 54t42 60q0 22 -19.5 40t-57.5 32q-32 15 -79.5 23t-96.5 12t-89 4zM1242 0v179q31 0 42.5 -20.5t11.5 -69.5q0 -45 -12 -67t-42 -22zM1106 0v179h76q108 0 209.5 10t198.5 37l-48 -24q-59 35 -128 82.5t-147 114.5l15 165q83 35 183.5 51.5t207.5 16.5
q116 0 230.5 -18.5t212.5 -53.5l-19 -155q-61 -61 -130 -110.5t-140 -92.5l-10 21q97 -26 176.5 -35t172.5 -9h64v-179h-61q-89 0 -167 12.5t-157.5 40t-174.5 72.5l76 19q-132 -81 -253.5 -112.5t-258.5 -31.5h-128zM1955 457q-59 12 -130 18.5t-141 6.5q-71 0 -139.5 -6.5
t-128.5 -20.5l-3 -16q44 -27 98.5 -57.5t107 -57.5t88.5 -45l-45 -9q68 35 144.5 77.5t145.5 96.5zM1106 0q-30 0 -42 22t-12 67q0 49 11 69.5t43 20.5v-179zM2230 0v179q32 0 43 -20.5t11 -69.5q0 -45 -12 -67t-42 -22zM1654 775l-163 121l98 125l162 -121z" />
    <glyph glyph-name="uniFD16" unicode="&#xfed0;&#xfef2;" horiz-adv-x="2230" arabic-form="final" 
d="M722 -817l-153 114l93 118l151 -114zM476 -817l-152 114l92 118l152 -114zM1654 775l-163 121l99 126l162 -122zM678 19l59 160h505v-179h-170l35 48q41 -73 41 -144q0 -92 -61.5 -167.5t-165.5 -124.5q-89 -41 -194 -66.5t-198 -25.5q-147 0 -244 60.5t-144.5 165
t-47.5 237.5q0 158 64 335l102 -25q-21 -74 -33 -140.5t-12 -124.5q0 -144 76.5 -228.5t244.5 -84.5q78 0 169.5 18t170.5 48q69 24 111 54t42 60q0 22 -19.5 40t-57.5 32q-32 15 -79.5 23t-96.5 12t-89 4zM1242 0v179q31 0 42.5 -20.5t11.5 -69.5q0 -45 -12 -67t-42 -22z
M1106 0v179h76q108 0 209.5 10t198.5 37l-48 -24q-59 35 -128 82.5t-147 114.5l15 165q83 35 183.5 51.5t207.5 16.5q116 0 230.5 -18.5t212.5 -53.5l-19 -155q-61 -61 -130 -110.5t-140 -92.5l-10 21q97 -26 176.5 -35t172.5 -9h64v-179h-61q-89 0 -167 12.5t-157.5 40
t-174.5 72.5l76 19q-132 -81 -253.5 -112.5t-258.5 -31.5h-128zM1955 457q-59 12 -130 18.5t-141 6.5q-71 0 -139.5 -6.5t-128.5 -20.5l-3 -16q44 -27 98.5 -57.5t107 -57.5t88.5 -45l-45 -9q68 35 144.5 77.5t145.5 96.5zM1106 0q-30 0 -42 22t-12 67q0 49 11 69.5t43 20.5
v-179zM2230 0v179q32 0 43 -20.5t11 -69.5q0 -45 -12 -67t-42 -22zM1654 775l-163 121l99 126l162 -122z" />
    <glyph glyph-name="uniFD17" unicode="&#xfeb4;&#xfef0;" horiz-adv-x="2439" arabic-form="final" 
d="M1656 -8q-68 0 -137.5 9.5t-125.5 25.5l44 -1q-27 -9 -53.5 -14.5t-63 -8.5t-95.5 -3h-89v179h149q63 0 83.5 27t33.5 98l47 246l118 -24l-43 -252q-6 -34 -13 -63t-18 -54l-19 28q42 -7 94.5 -9.5t87.5 -2.5q90 0 119 20.5t29 71.5l1 244h118l2 -234q1 -61 31.5 -81
t120.5 -20q31 0 51 1.5t33 4.5q36 8 36 39q0 17 -8 50l-57 257l118 26l64 -275q13 -54 27 -76t58 -22h40v-179q-70 0 -116 15.5t-81 45.5l38 -2q-30 -28 -89.5 -46.5t-127.5 -18.5q-66 0 -120.5 16t-99.5 52l42 -2q-36 -33 -91 -50.5t-138 -17.5zM2439 0v179
q31 0 42.5 -20.5t11.5 -69.5q0 -45 -12 -67t-42 -22zM1136 0q-30 0 -42 22t-12 67q0 49 11 69.5t43 20.5v-179zM678 19l59 160h505v-179h-170l35 48q41 -73 41 -144q0 -92 -61.5 -167.5t-165.5 -124.5q-89 -41 -194 -66.5t-198 -25.5q-147 0 -244 60.5t-144.5 165
t-47.5 237.5q0 158 64 335l102 -25q-21 -74 -33 -140.5t-12 -124.5q0 -144 76.5 -228.5t244.5 -84.5q78 0 169.5 18t170.5 48q69 24 111 54t42 60q0 22 -19.5 40t-57.5 32q-32 15 -79.5 23t-96.5 12t-89 4zM1242 0v179q31 0 42.5 -20.5t11.5 -69.5q0 -45 -12 -67t-42 -22z
" />
    <glyph glyph-name="uniFD18" unicode="&#xfeb4;&#xfef2;" horiz-adv-x="2439" arabic-form="final" 
d="M722 -817l-153 114l93 118l151 -114zM476 -817l-152 114l92 118l152 -114zM1656 -8q-68 0 -137.5 9.5t-125.5 25.5l44 -1q-27 -9 -53.5 -14.5t-63 -8.5t-95.5 -3h-89v179h149q63 0 83.5 27t33.5 98l47 246l118 -24l-43 -252q-6 -34 -13 -63t-18 -54l-19 28
q42 -7 94.5 -9.5t87.5 -2.5q90 0 119 20.5t29 71.5l1 244h118l2 -234q1 -61 31.5 -81t120.5 -20q31 0 51 1.5t33 4.5q36 8 36 39q0 17 -8 50l-57 257l118 26l64 -275q13 -54 27 -76t58 -22h40v-179q-70 0 -116 15.5t-81 45.5l38 -2q-30 -28 -89.5 -46.5t-127.5 -18.5
q-66 0 -120.5 16t-99.5 52l42 -2q-36 -33 -91 -50.5t-138 -17.5zM2439 0v179q31 0 42.5 -20.5t11.5 -69.5q0 -45 -12 -67t-42 -22zM1136 0q-30 0 -42 22t-12 67q0 49 11 69.5t43 20.5v-179zM678 19l59 160h505v-179h-170l35 48q41 -73 41 -144q0 -92 -61.5 -167.5
t-165.5 -124.5q-89 -41 -194 -66.5t-198 -25.5q-147 0 -244 60.5t-144.5 165t-47.5 237.5q0 158 64 335l102 -25q-21 -74 -33 -140.5t-12 -124.5q0 -144 76.5 -228.5t244.5 -84.5q78 0 169.5 18t170.5 48q69 24 111 54t42 60q0 22 -19.5 40t-57.5 32q-32 15 -79.5 23
t-96.5 12t-89 4zM1242 0v179q31 0 42.5 -20.5t11.5 -69.5q0 -45 -12 -67t-42 -22z" />
    <glyph glyph-name="uniFD19" unicode="&#xfeb8;&#xfef0;" horiz-adv-x="2439" arabic-form="final" 
d="M1682 866l150 -112l-91 -115l-149 112zM1923 866l150 -112l-90 -115l-150 112zM1763 1092l150 -112l-90 -116l-150 112zM1656 -8q-68 0 -137.5 9.5t-125.5 25.5l44 -1q-27 -9 -53.5 -14.5t-63 -8.5t-95.5 -3h-89v179h149q63 0 83.5 27t33.5 98l47 246l118 -24l-43 -252
q-6 -34 -13 -63t-18 -54l-19 28q42 -7 94.5 -9.5t87.5 -2.5q90 0 119 20.5t29 71.5l1 244h118l2 -234q1 -61 31.5 -81t120.5 -20q31 0 51 1.5t33 4.5q36 8 36 39q0 17 -8 50l-57 257l118 26l64 -275q13 -54 27 -76t58 -22h40v-179q-70 0 -116 15.5t-81 45.5l38 -2
q-30 -28 -89.5 -46.5t-127.5 -18.5q-66 0 -120.5 16t-99.5 52l42 -2q-36 -33 -91 -50.5t-138 -17.5zM2439 0v179q31 0 42.5 -20.5t11.5 -69.5q0 -45 -12 -67t-42 -22zM1136 0q-30 0 -42 22t-12 67q0 49 11 69.5t43 20.5v-179zM678 19l59 160h505v-179h-170l35 48
q41 -73 41 -144q0 -92 -61.5 -167.5t-165.5 -124.5q-89 -41 -194 -66.5t-198 -25.5q-147 0 -244 60.5t-144.5 165t-47.5 237.5q0 158 64 335l102 -25q-21 -74 -33 -140.5t-12 -124.5q0 -144 76.5 -228.5t244.5 -84.5q78 0 169.5 18t170.5 48q69 24 111 54t42 60
q0 22 -19.5 40t-57.5 32q-32 15 -79.5 23t-96.5 12t-89 4zM1242 0v179q31 0 42.5 -20.5t11.5 -69.5q0 -45 -12 -67t-42 -22z" />
    <glyph glyph-name="uniFD1A" unicode="&#xfeb8;&#xfef2;" horiz-adv-x="2439" arabic-form="final" 
d="M1682 866l150 -112l-91 -115l-149 112zM1923 866l150 -112l-90 -115l-150 112zM1763 1092l150 -112l-90 -116l-150 112zM722 -817l-153 114l93 118l151 -114zM476 -817l-152 114l92 118l152 -114zM1656 -8q-68 0 -137.5 9.5t-125.5 25.5l44 -1q-27 -9 -53.5 -14.5
t-63 -8.5t-95.5 -3h-89v179h149q63 0 83.5 27t33.5 98l47 246l118 -24l-43 -252q-6 -34 -13 -63t-18 -54l-19 28q42 -7 94.5 -9.5t87.5 -2.5q90 0 119 20.5t29 71.5l1 244h118l2 -234q1 -61 31.5 -81t120.5 -20q31 0 51 1.5t33 4.5q36 8 36 39q0 17 -8 50l-57 257l118 26
l64 -275q13 -54 27 -76t58 -22h40v-179q-70 0 -116 15.5t-81 45.5l38 -2q-30 -28 -89.5 -46.5t-127.5 -18.5q-66 0 -120.5 16t-99.5 52l42 -2q-36 -33 -91 -50.5t-138 -17.5zM2439 0v179q31 0 42.5 -20.5t11.5 -69.5q0 -45 -12 -67t-42 -22zM1136 0q-30 0 -42 22t-12 67
q0 49 11 69.5t43 20.5v-179zM678 19l59 160h505v-179h-170l35 48q41 -73 41 -144q0 -92 -61.5 -167.5t-165.5 -124.5q-89 -41 -194 -66.5t-198 -25.5q-147 0 -244 60.5t-144.5 165t-47.5 237.5q0 158 64 335l102 -25q-21 -74 -33 -140.5t-12 -124.5q0 -144 76.5 -228.5
t244.5 -84.5q78 0 169.5 18t170.5 48q69 24 111 54t42 60q0 22 -19.5 40t-57.5 32q-32 15 -79.5 23t-96.5 12t-89 4zM1242 0v179q31 0 42.5 -20.5t11.5 -69.5q0 -45 -12 -67t-42 -22z" />
    <glyph glyph-name="uniFD21" unicode="&#xfebc;&#xfef0;" horiz-adv-x="2439" arabic-form="final" 
d="M2439 0q-36 0 -127 1.5t-219 8t-273 20.5l423 149h196v-179zM2439 0v179q32 0 43.5 -20.5t11.5 -69.5q0 -45 -12.5 -67t-42.5 -22zM1751 -12q-35 0 -96 3t-125.5 6t-110.5 3h-421v179h259q33 0 41 11.5t-9 52.5l-131 313l137 10l126 -339l-37 12q142 179 297 284t293 105
q89 0 166 -45t124 -131.5t47 -209.5q0 -37 -9 -76t-23 -68q-18 -35 -41 -49t-70 -25q-69 -15 -177.5 -25.5t-239.5 -10.5zM1447 142l-6 33q89 -4 170.5 -7t156.5 -3q121 0 220 7.5t162 24.5q35 9 45.5 21t10.5 26q0 54 -37.5 100t-100.5 74t-140 28q-109 0 -231.5 -75
t-249.5 -229zM998 0q-30 0 -42 22t-12 67q0 49 11 69.5t43 20.5v-179zM678 19l59 160h505v-179h-170l35 48q41 -73 41 -144q0 -92 -61.5 -167.5t-165.5 -124.5q-89 -41 -194 -66.5t-198 -25.5q-147 0 -244 60.5t-144.5 165t-47.5 237.5q0 158 64 335l102 -25
q-21 -74 -33 -140.5t-12 -124.5q0 -144 76.5 -228.5t244.5 -84.5q78 0 169.5 18t170.5 48q69 24 111 54t42 60q0 22 -19.5 40t-57.5 32q-32 15 -79.5 23t-96.5 12t-89 4zM1242 0v179q31 0 42.5 -20.5t11.5 -69.5q0 -45 -12 -67t-42 -22z" />
    <glyph glyph-name="uniFD22" unicode="&#xfebc;&#xfef2;" horiz-adv-x="2439" arabic-form="final" 
d="M722 -817l-153 114l93 118l151 -114zM476 -817l-152 114l92 118l152 -114zM2439 0q-36 0 -127 1.5t-219 8t-273 20.5l423 149h196v-179zM2439 0v179q32 0 43.5 -20.5t11.5 -69.5q0 -45 -12.5 -67t-42.5 -22zM1751 -12q-35 0 -96 3t-125.5 6t-110.5 3h-421v179h259
q33 0 41 11.5t-9 52.5l-131 313l137 10l126 -339l-37 12q142 179 297 284t293 105q89 0 166 -45t124 -131.5t47 -209.5q0 -37 -9 -76t-23 -68q-18 -35 -41 -49t-70 -25q-69 -15 -177.5 -25.5t-239.5 -10.5zM1447 142l-6 33q89 -4 170.5 -7t156.5 -3q121 0 220 7.5t162 24.5
q35 9 45.5 21t10.5 26q0 54 -37.5 100t-100.5 74t-140 28q-109 0 -231.5 -75t-249.5 -229zM998 0q-30 0 -42 22t-12 67q0 49 11 69.5t43 20.5v-179zM678 19l59 160h505v-179h-170l35 48q41 -73 41 -144q0 -92 -61.5 -167.5t-165.5 -124.5q-89 -41 -194 -66.5t-198 -25.5
q-147 0 -244 60.5t-144.5 165t-47.5 237.5q0 158 64 335l102 -25q-21 -74 -33 -140.5t-12 -124.5q0 -144 76.5 -228.5t244.5 -84.5q78 0 169.5 18t170.5 48q69 24 111 54t42 60q0 22 -19.5 40t-57.5 32q-32 15 -79.5 23t-96.5 12t-89 4zM1242 0v179q31 0 42.5 -20.5
t11.5 -69.5q0 -45 -12 -67t-42 -22z" />
    <glyph glyph-name="uniFD23" unicode="&#xfec0;&#xfef0;" horiz-adv-x="2439" arabic-form="final" 
d="M2439 0q-36 0 -127 1.5t-219 8t-273 20.5l423 149h196v-179zM2439 0v179q32 0 43.5 -20.5t11.5 -69.5q0 -45 -12.5 -67t-42.5 -22zM1751 -12q-35 0 -96 3t-125.5 6t-110.5 3h-421v179h259q33 0 41 11.5t-9 52.5l-131 313l137 10l126 -339l-37 12q142 179 297 284t293 105
q89 0 166 -45t124 -131.5t47 -209.5q0 -37 -9 -76t-23 -68q-18 -35 -41 -49t-70 -25q-69 -15 -177.5 -25.5t-239.5 -10.5zM1447 142l-6 33q89 -4 170.5 -7t156.5 -3q121 0 220 7.5t162 24.5q35 9 45.5 21t10.5 26q0 54 -37.5 100t-100.5 74t-140 28q-109 0 -231.5 -75
t-249.5 -229zM998 0q-30 0 -42 22t-12 67q0 49 11 69.5t43 20.5v-179zM1829 757l-163 121l98 125l162 -121zM678 19l59 160h505v-179h-170l35 48q41 -73 41 -144q0 -92 -61.5 -167.5t-165.5 -124.5q-89 -41 -194 -66.5t-198 -25.5q-147 0 -244 60.5t-144.5 165t-47.5 237.5
q0 158 64 335l102 -25q-21 -74 -33 -140.5t-12 -124.5q0 -144 76.5 -228.5t244.5 -84.5q78 0 169.5 18t170.5 48q69 24 111 54t42 60q0 22 -19.5 40t-57.5 32q-32 15 -79.5 23t-96.5 12t-89 4zM1242 0v179q31 0 42.5 -20.5t11.5 -69.5q0 -45 -12 -67t-42 -22z" />
    <glyph glyph-name="uniFD24" unicode="&#xfec0;&#xfef2;" horiz-adv-x="2439" arabic-form="final" 
d="M1829 757l-163 121l99 125l161 -121zM722 -817l-153 114l93 118l151 -114zM476 -817l-152 114l92 118l152 -114zM2439 0q-36 0 -127 1.5t-219 8t-273 20.5l423 149h196v-179zM2439 0v179q32 0 43.5 -20.5t11.5 -69.5q0 -45 -12.5 -67t-42.5 -22zM1751 -12q-35 0 -96 3
t-125.5 6t-110.5 3h-421v179h259q33 0 41 11.5t-9 52.5l-131 313l137 10l126 -339l-37 12q142 179 297 284t293 105q89 0 166 -45t124 -131.5t47 -209.5q0 -37 -9 -76t-23 -68q-18 -35 -41 -49t-70 -25q-69 -15 -177.5 -25.5t-239.5 -10.5zM1447 142l-6 33q89 -4 170.5 -7
t156.5 -3q121 0 220 7.5t162 24.5q35 9 45.5 21t10.5 26q0 54 -37.5 100t-100.5 74t-140 28q-109 0 -231.5 -75t-249.5 -229zM998 0q-30 0 -42 22t-12 67q0 49 11 69.5t43 20.5v-179zM1829 757l-163 121l99 125l161 -121zM678 19l59 160h505v-179h-170l35 48q41 -73 41 -144
q0 -92 -61.5 -167.5t-165.5 -124.5q-89 -41 -194 -66.5t-198 -25.5q-147 0 -244 60.5t-144.5 165t-47.5 237.5q0 158 64 335l102 -25q-21 -74 -33 -140.5t-12 -124.5q0 -144 76.5 -228.5t244.5 -84.5q78 0 169.5 18t170.5 48q69 24 111 54t42 60q0 22 -19.5 40t-57.5 32
q-32 15 -79.5 23t-96.5 12t-89 4zM1242 0v179q31 0 42.5 -20.5t11.5 -69.5q0 -45 -12 -67t-42 -22z" />
    <glyph glyph-name="uniFDF2" unicode="&#x627;&#xfedf;&#xfee0;&#xfeea;" horiz-adv-x="1795" arabic-form="isolated" 
d="M1137 -5q-60 0 -129.5 25.5t-121.5 99.5l77 -14q-34 -51 -98 -80t-147 -29q-75 0 -136.5 29.5t-97.5 96.5l86 -26q-49 -25 -108.5 -39t-116.5 -14q-67 0 -123 20t-90.5 63t-34.5 111q0 65 35.5 120.5t92 102t122.5 83.5t126 66l-29 -78l-10 144l118 11l27 -415
q1 -22 12 -44t42.5 -37t95.5 -15q74 0 104 27.5t21 80.5l-71 444l130 10l54 -446q7 -54 42 -85t130 -31q67 0 97 19.5t30 60.5q0 16 -4.5 36t-13.5 46l-138 404l124 65q60 -188 99 -330.5t39 -250.5q0 -89 -34 -140t-88 -71t-113 -20zM478 161l-28 322l63 -14
q-83 -34 -155 -69t-116.5 -67.5t-44.5 -61.5q0 -36 40.5 -51.5t98.5 -15.5q49 0 102 9.5t96 24.5zM1565 0q-22 244 -53.5 512t-68.5 538l143 10q31 -284 54.5 -541t43.5 -519h-119zM985 1139q47 -67 47 -146q0 -62 -32.5 -108t-96.5 -41q-24 2 -46 11t-44 39h41
q-19 -35 -46 -59.5t-68 -24.5q-69 0 -96.5 51t-27.5 121q0 26 3.5 53.5t8.5 54.5l80 -11q-4 -25 -11.5 -54.5t-7.5 -53.5q0 -29 14.5 -39.5t33.5 -11.5q24 -1 40.5 14t14.5 43q-3 50 -5.5 74t-4.5 48l72 6q2 -22 3 -46.5t3 -81.5q2 -20 28 -27t52 1.5t27 31.5q2 23 -15 58
t-36 65zM830 1407q5 -53 9.5 -106.5t2.5 -113.5l-62 -32q-9 56 -18.5 111t-18.5 110z" />
    <glyph glyph-name="uniFEF5" unicode="&#xfedf;&#xfe82;" horiz-adv-x="1026" arabic-form="isolated" 
d="M529 -28q-47 0 -98.5 5t-108.5 15l1 165q59 -6 119 -11t115 -5q66 0 122 9t92 33q39 22 48.5 51t5.5 76q-2 38 -9.5 109t-18 158.5t-22 177t-22 167.5t-18.5 128l142 10q5 -36 12 -105.5t15.5 -154t16 -170.5t13.5 -157.5t8 -113.5q5 -145 -52 -235q-50 -78 -142 -115
t-219 -37zM657 194h-10q-29 51 -78.5 113.5t-108.5 129t-120 130t-116 118t-96 92.5q-38 34 -38 63q0 22 21 47l83 101l217 -193l-109 -110l28 95q38 -35 89 -91.5t104.5 -121.5t97 -126.5t65.5 -105.5q8 -15 11 -28t3 -25q0 -19 -10.5 -39t-32.5 -49zM-24 1034l-52 37
q4 58 33 95.5t71.5 56.5t86.5 19t93.5 -12t98.5 -12q39 0 72 10.5t64 27.5v-95q-32 -34 -70.5 -50.5t-80.5 -16.5q-38 0 -85.5 8.5t-91.5 8.5q-43 0 -79.5 -15.5t-59.5 -61.5z" />
    <glyph glyph-name="uniFEF6" unicode="&#xfee0;&#xfe82;" horiz-adv-x="1057" arabic-form="final" 
d="M529 -28q-46 0 -97.5 5t-109.5 15l1 165q60 -6 120 -11t115 -5q66 0 121.5 9t92.5 33q38 22 47.5 51t6.5 76q-2 38 -10 109t-18 158.5t-21.5 177t-22 167.5t-18.5 128l142 10q4 -31 11.5 -106l17 -170t18 -191.5t15.5 -174.5t9 -115q5 -71 20.5 -97.5t65.5 -26.5h23v-179
q-86 0 -139.5 32t-72.5 131l50 -26q-48 -85 -141.5 -125t-225.5 -40zM658 194h-10q-30 51 -79 113.5t-108 129t-120.5 130t-116.5 118t-96 92.5q-37 34 -37 63q0 22 20 47l84 101l216 -193l-109 -110l29 95q38 -35 89 -91.5t104 -121.5t97 -126.5t65 -105.5q8 -15 11.5 -28
t3.5 -25q0 -19 -10.5 -39t-32.5 -49zM1058 0v179q31 0 42.5 -20.5t11.5 -69.5q0 -45 -12 -67t-42 -22zM-24 1034l-52 37q4 58 33 95.5t71.5 56.5t86.5 19t93.5 -12t98.5 -12q39 0 72 10.5t64 27.5v-95q-32 -34 -70.5 -50.5t-80.5 -16.5q-38 0 -85.5 8.5t-91.5 8.5
q-43 0 -79.5 -15.5t-59.5 -61.5z" />
    <glyph glyph-name="uniFEF7" unicode="&#xfedf;&#xfe84;" horiz-adv-x="1017" arabic-form="isolated" 
d="M520 -28q-47 0 -98.5 5t-108.5 15l1 165q59 -6 119 -11t115 -5q66 0 122 9t92 33q39 22 48.5 51t5.5 76q-2 38 -9.5 109t-18 158.5t-22 177t-22 167.5t-18.5 128l142 10q5 -36 12 -105.5t15.5 -154t16 -170.5t13.5 -157.5t8 -113.5q5 -145 -52 -235q-50 -78 -142 -115
t-219 -37zM648 194h-10q-29 51 -78.5 113.5t-108.5 129t-120 130t-116 118t-96 92.5q-38 34 -38 63q0 22 21 47l83 101l217 -193l-109 -110l28 95q38 -35 89 -91.5t104.5 -121.5t97 -126.5t65.5 -105.5q8 -15 11 -28t3 -25q0 -19 -10.5 -39t-32.5 -49zM-23 1022l-4 1l-8 80
l94 38l5 -34q-40 25 -58 59t-18 71q0 70 45.5 119t119.5 49q39 0 72.5 -14.5t59.5 -34.5l-28 -77q-25 11 -48.5 18.5t-46.5 9.5q-49 5 -73.5 -15.5t-24.5 -41.5q0 -28 36.5 -51.5t72.5 -16.5l47.5 9.5l87.5 17.5l-20 -101q-108 -20 -184 -41.5t-127 -44.5z" />
    <glyph glyph-name="uniFEF8" unicode="&#xfee0;&#xfe84;" horiz-adv-x="1033" arabic-form="final" 
d="M504 -28q-46 0 -97.5 5t-109.5 15l1 165q60 -6 120 -11t115 -5q66 0 121.5 9t92.5 33q38 22 47.5 51t6.5 76q-2 38 -10 109t-18 158.5t-21.5 177t-22 167.5t-18.5 128l142 10q4 -31 11.5 -106l17 -170t18 -191.5t15.5 -174.5t9 -115q5 -71 20.5 -97.5t65.5 -26.5h23v-179
q-86 0 -139.5 32t-72.5 131l50 -26q-48 -85 -141.5 -125t-225.5 -40zM633 194h-10q-30 51 -79 113.5t-108 129t-120.5 130t-116.5 118t-96 92.5q-37 34 -37 63q0 22 20 47l84 101l216 -193l-109 -110l29 95q38 -35 89 -91.5t104 -121.5t97 -126.5t65 -105.5q8 -15 11.5 -28
t3.5 -25q0 -19 -10.5 -39t-32.5 -49zM1033 0v179q31 0 42.5 -20.5t11.5 -69.5q0 -45 -12 -67t-42 -22zM-23 1015l-4 1l-8 80l94 38l5 -34q-40 25 -58 59t-18 71q0 70 45.5 119t119.5 49q39 0 72.5 -14.5t59.5 -34.5l-28 -77q-25 11 -48.5 18.5t-46.5 9.5q-49 5 -73.5 -15.5
t-24.5 -41.5q0 -28 36.5 -51.5t72.5 -16.5l47.5 9.5l87.5 17.5l-20 -101q-108 -20 -184 -41.5t-127 -44.5z" />
    <glyph glyph-name="uniFEF9" unicode="&#xfedf;&#xfe88;" horiz-adv-x="979" arabic-form="isolated" 
d="M482 -28q-47 0 -98.5 5t-108.5 15l1 165q59 -6 119 -11t115 -5q66 0 122 9t92 33q39 22 48.5 51t5.5 76q-2 38 -9.5 109t-18 158.5t-22 177t-22 167.5t-18.5 128l142 10q5 -36 12 -105.5t15.5 -154t16 -170.5t13.5 -157.5t8 -113.5q5 -145 -52 -235q-50 -78 -142 -115
t-219 -37zM610 194h-10q-29 51 -78.5 113.5t-108.5 129t-120 130t-116 118t-96 92.5q-38 34 -38 63q0 22 21 47l83 101l217 -193l-109 -110l28 95q38 -35 89 -91.5t104.5 -121.5t97 -126.5t65.5 -105.5q8 -15 11 -28t3 -25q0 -19 -10.5 -39t-32.5 -49zM271 -504l-4 1l-8 80
l94 38l5 -34q-40 25 -58 59t-18 71q0 70 45.5 119t119.5 49q39 0 72.5 -14.5t59.5 -34.5l-28 -77q-25 11 -48.5 18.5t-46.5 9.5q-49 5 -73.5 -15.5t-24.5 -41.5q0 -28 36.5 -51.5t72.5 -16.5l47.5 9.5l87.5 17.5l-20 -101q-108 -20 -184 -41.5t-127 -44.5z" />
    <glyph glyph-name="uniFEFA" unicode="&#xfee0;&#xfe88;" horiz-adv-x="1009" arabic-form="final" 
d="M480 -28q-46 0 -97.5 5t-109.5 15l1 165q60 -6 120 -11t115 -5q66 0 121.5 9t92.5 33q38 22 47.5 51t6.5 76q-2 38 -10 109t-18 158.5t-21.5 177t-22 167.5t-18.5 128l142 10q4 -31 11.5 -106l17 -170t18 -191.5t15.5 -174.5t9 -115q5 -71 20.5 -97.5t65.5 -26.5h23v-179
q-86 0 -139.5 32t-72.5 131l50 -26q-48 -85 -141.5 -125t-225.5 -40zM609 194h-10q-30 51 -79 113.5t-108 129t-120.5 130t-116.5 118t-96 92.5q-37 34 -37 63q0 22 20 47l84 101l216 -193l-109 -110l29 95q38 -35 89 -91.5t104 -121.5t97 -126.5t65 -105.5q8 -15 11.5 -28
t3.5 -25q0 -19 -10.5 -39t-32.5 -49zM1009 0v179q31 0 42.5 -20.5t11.5 -69.5q0 -45 -12 -67t-42 -22zM286 -504l-4 1l-8 80l94 38l5 -34q-40 25 -58 59t-18 71q0 70 45.5 119t119.5 49q39 0 72.5 -14.5t59.5 -34.5l-28 -77q-25 11 -48.5 18.5t-46.5 9.5q-49 5 -73.5 -15.5
t-24.5 -41.5q0 -28 36.5 -51.5t72.5 -16.5l47.5 9.5l87.5 17.5l-20 -101q-108 -20 -184 -41.5t-127 -44.5z" />
    <glyph glyph-name="uniFEFB" unicode="&#xfedf;&#xfe8e;" horiz-adv-x="979" arabic-form="isolated" 
d="M482 -28q-47 0 -98.5 5t-108.5 15l1 165q59 -6 119 -11t115 -5q66 0 122 9t92 33q39 22 48.5 51t5.5 76q-2 38 -9.5 109t-18 158.5t-22 177t-22 167.5t-18.5 128l142 10q5 -36 12 -105.5t15.5 -154t16 -170.5t13.5 -157.5t8 -113.5q5 -145 -52 -235q-50 -78 -142 -115
t-219 -37zM610 194h-10q-29 51 -78.5 113.5t-108.5 129t-120 130t-116 118t-96 92.5q-38 34 -38 63q0 22 21 47l83 101l217 -193l-109 -110l28 95q38 -35 89 -91.5t104.5 -121.5t97 -126.5t65.5 -105.5q8 -15 11 -28t3 -25q0 -19 -10.5 -39t-32.5 -49z" />
    <glyph glyph-name="uniFEFC" unicode="&#xfee0;&#xfe8e;" horiz-adv-x="1009" arabic-form="final" 
d="M480 -28q-46 0 -97.5 5t-109.5 15l1 165q60 -6 120 -11t115 -5q66 0 121.5 9t92.5 33q38 22 47.5 51t6.5 76q-2 38 -10 109t-18 158.5t-21.5 177t-22 167.5t-18.5 128l142 10q4 -31 11.5 -106l17 -170t18 -191.5t15.5 -174.5t9 -115q5 -71 20.5 -97.5t65.5 -26.5h23v-179
q-86 0 -139.5 32t-72.5 131l50 -26q-48 -85 -141.5 -125t-225.5 -40zM609 194h-10q-30 51 -79 113.5t-108 129t-120.5 130t-116.5 118t-96 92.5q-37 34 -37 63q0 22 20 47l84 101l216 -193l-109 -110l29 95q38 -35 89 -91.5t104 -121.5t97 -126.5t65 -105.5q8 -15 11.5 -28
t3.5 -25q0 -19 -10.5 -39t-32.5 -49zM1009 0v179q31 0 42.5 -20.5t11.5 -69.5q0 -45 -12 -67t-42 -22z" />
    <glyph glyph-name="f_f" unicode="ff" horiz-adv-x="1099" 
d="M375 649v105h451v-105h-451zM153 6v747q0 115 41.5 201.5t115.5 134t173 47.5q59 0 99 -16l-12 -133q-59 14 -109 14q-71 0 -100 -40t-29 -139v-112l2 -20v-684h-181zM32 649l7 83q56 16 122 22h375l-8 -105h-496zM57 0l6 67q28 14 57 23t58 16l-25 -80v142h181v-142
l-22 71l175 -28l-5 -69h-425zM698 6v747q0 115 41 201.5t115.5 134t173.5 47.5q58 0 98 -16l-11 -133q-60 14 -110 14q-71 0 -100 -40t-29 -139v-112l3 -20v-684h-181zM576 649l7 83q56 16 123 22h375l-9 -105h-496zM601 0l6 67q29 14 57.5 23t57.5 16l-24 -80v142h181v-142
l-23 71l176 -28l-6 -69h-425z" />
    <glyph glyph-name="f_f_i" unicode="ffi" horiz-adv-x="1584" 
d="M375 649v105h451v-105h-451zM153 6v747q0 115 41.5 201.5t115.5 134t173 47.5q59 0 99 -16l-12 -133q-59 14 -109 14q-71 0 -100 -40t-29 -139v-112l2 -20v-684h-181zM32 649l7 83q56 16 122 22h375l-8 -105h-496zM57 0l6 67q28 14 57 23t58 16l-25 -80v142h181v-142
l-22 71l175 -28l-5 -69h-425zM698 6v747q0 115 41 201.5t115.5 134t173.5 47.5q58 0 98 -16l-11 -133q-60 14 -110 14q-71 0 -100 -40t-29 -139v-112l3 -20v-684h-181zM576 649l7 83q56 16 123 22h375l-9 -105h-496zM601 0l6 67q29 14 57.5 23t57.5 16l-24 -80v142h181v-142
l-23 71l176 -28l-6 -69h-425zM1256 6v677l182 19v-696h-182zM1256 511v128l29 -51l-138 69l5 49q47 22 108 36.5t128 20.5h50v-159zM1154 0l6 67q25 12 55.5 21.5t66.5 17.5l-26 -81v143h182v-143l-22 73l129 -29l-6 -69h-385zM1333 879q-53 0 -84 30t-31 81t31 81t84 30
t84 -30t31 -81t-31 -81t-84 -30z" />
    <glyph glyph-name="f_f_l" unicode="ffl" horiz-adv-x="1594" 
d="M375 649v105h451v-105h-451zM153 6v747q0 115 41.5 201.5t115.5 134t173 47.5q59 0 99 -16l-12 -133q-59 14 -109 14q-71 0 -100 -40t-29 -139v-112l2 -20v-684h-181zM32 649l7 83q56 16 122 22h375l-8 -105h-496zM57 0l6 67q28 14 57 23t58 16l-25 -80v142h181v-142
l-22 71l175 -28l-5 -69h-425zM698 6v747q0 115 41 201.5t115.5 134t173.5 47.5q58 0 98 -16l-11 -133q-60 14 -110 14q-71 0 -100 -40t-29 -139v-112l3 -20v-684h-181zM576 649l7 83q56 16 123 22h375l-9 -105h-496zM601 0l6 67q29 14 57.5 23t57.5 16l-24 -80v142h181v-142
l-23 71l176 -28l-6 -69h-425zM1256 6v1028l182 -29v-999h-182zM1148 0l6 67q26 11 57.5 20.5t69.5 18.5l-25 -81v143h182v-143l-21 73l134 -29l-6 -69h-397zM1256 896v125l21 -47l-135 56l5 48q98 35 223 40h68v-172z" />
    <glyph glyph-name="lam_alefWaslaar" unicode="&#xfedf;&#xfb51;" horiz-adv-x="1027" 
d="M531 -28q-47 0 -98.5 5t-108.5 15l1 165q59 -6 119 -11t115 -5q66 0 122 9t92 33q39 22 48.5 51t5.5 76q-2 38 -9.5 109t-18 158.5t-22 177t-22 167.5t-18.5 128l142 10q5 -36 12 -105.5t15.5 -154t16 -170.5t13.5 -157.5t8 -113.5q5 -145 -52 -235q-50 -78 -142 -115
t-219 -37zM659 194h-10q-29 51 -78.5 113.5t-108.5 129t-120 130t-116 118t-96 92.5q-38 34 -38 63q0 22 21 47l83 101l217 -193l-109 -110l28 95q38 -35 89 -91.5t104.5 -121.5t97 -126.5t65.5 -105.5q8 -15 11 -28t3 -25q0 -19 -10.5 -39t-32.5 -49zM292 1045
q-48 0 -91 14t-79 28t-67 14q-28 0 -50 -13t-41 -30l-12 89q6 8 20.5 25.5t37.5 32.5t53 15q31 0 63.5 -15t75.5 -29.5t104 -14.5q101 0 101 43q0 21 -23 43.5t-65 22.5q-54 0 -101.5 -39.5t-85.5 -101.5l-60 28q20 47 56.5 98.5t86.5 87t107 35.5q76 0 113 -53.5t37 -115.5
q0 -83 -53.5 -123.5t-126.5 -40.5z" />
    <glyph glyph-name="lam_alefWaslaar.fina" unicode="&#xfee0;&#xfb51;" horiz-adv-x="1068" 
d="M540 -28q-46 0 -97.5 5t-109.5 15l1 165q60 -6 120 -11t115 -5q66 0 121.5 9t92.5 33q38 22 47.5 51t6.5 76q-2 38 -10 109t-18 158.5t-21.5 177t-22 167.5t-18.5 128l142 10q4 -31 11.5 -106l17 -170t18 -191.5t15.5 -174.5t9 -115q5 -71 20.5 -97.5t65.5 -26.5h23v-179
q-86 0 -139.5 32t-72.5 131l50 -26q-48 -85 -141.5 -125t-225.5 -40zM669 194h-10q-30 51 -79 113.5t-108 129t-120.5 130t-116.5 118t-96 92.5q-37 34 -37 63q0 22 20 47l84 101l216 -193l-109 -110l29 95q38 -35 89 -91.5t104 -121.5t97 -126.5t65 -105.5q8 -15 11.5 -28
t3.5 -25q0 -19 -10.5 -39t-32.5 -49zM1069 0v179q31 0 42.5 -20.5t11.5 -69.5q0 -45 -12 -67t-42 -22zM292 1044q-48 0 -91 14t-79 28t-67 14q-28 0 -50 -13t-41 -30l-12 89q6 8 20.5 25.5t37.5 32.5t53 15q31 0 63.5 -15t75.5 -29.5t104 -14.5q101 0 101 43q0 21 -23 43.5
t-65 22.5q-54 0 -101.5 -39.5t-85.5 -101.5l-60 28q20 47 56.5 98.5t86.5 87t107 35.5q76 0 113 -53.5t37 -115.5q0 -83 -53.5 -123.5t-126.5 -40.5z" />
    <glyph glyph-name="uniFC0A.fina.loclFAR.isol" unicode="&#xfe90;&#xfef2;" horiz-adv-x="1663" 
d="M1136 0v179h252q30 0 36.5 12t-1.5 52l-55 288l125 9q28 -111 48 -213t23 -193l-43 45h142v-179h-27q-53 0 -99 11t-78 27l87 -2q-44 -20 -122 -28t-190 -8h-98zM1663 0v179q32 0 43.5 -20.5t11.5 -69.5q0 -45 -12.5 -67t-42.5 -22zM1136 0q-30 0 -42 22t-12 67
q0 49 11 69.5t43 20.5v-179zM1415 -395l-163 121l98 125l162 -121zM678 19l59 160h505v-179h-170l35 48q41 -73 41 -144q0 -92 -61.5 -167.5t-165.5 -124.5q-89 -41 -194 -66.5t-198 -25.5q-147 0 -244 60.5t-144.5 165t-47.5 237.5q0 158 64 335l102 -25
q-21 -74 -33 -140.5t-12 -124.5q0 -144 76.5 -228.5t244.5 -84.5q78 0 169.5 18t170.5 48q69 24 111 54t42 60q0 22 -19.5 40t-57.5 32q-32 15 -79.5 23t-96.5 12t-89 4zM1242 0v179q31 0 42.5 -20.5t11.5 -69.5q0 -45 -12 -67t-42 -22z" />
    <glyph glyph-name="uniFC0A.loclFAR.isol" unicode="&#x628;&#x64a;" horiz-adv-x="1702" 
d="M1176 0v179h282q31 0 38.5 9.5t-1.5 54.5q-10 46 -37.5 132t-67.5 189l135 11q46 -108 69 -199.5t23 -168.5q0 -42 -7.5 -79t-20.5 -65q-18 -38 -36.5 -50.5t-52.5 -12.5h-324zM1176 0q-30 0 -42 22t-12 67q0 49 11 69.5t43 20.5v-179zM1443 -392l-163 121l98 125
l162 -121zM678 19l59 160h505v-179h-170l35 48q41 -73 41 -144q0 -92 -61.5 -167.5t-165.5 -124.5q-89 -41 -194 -66.5t-198 -25.5q-147 0 -244 60.5t-144.5 165t-47.5 237.5q0 158 64 335l102 -25q-21 -74 -33 -140.5t-12 -124.5q0 -144 76.5 -228.5t244.5 -84.5
q78 0 169.5 18t170.5 48q69 24 111 54t42 60q0 22 -19.5 40t-57.5 32q-32 15 -79.5 23t-96.5 12t-89 4zM1242 0v179q31 0 42.5 -20.5t11.5 -69.5q0 -45 -12 -67t-42 -22z" />
    <glyph glyph-name="beh_yehHamzaabovear" unicode="&#xfe91;&#xfe8a;" horiz-adv-x="1707" 
d="M1176 0v179h282q31 0 38.5 9.5t-1.5 54.5q-10 46 -37.5 132t-67.5 189l135 11q46 -108 69 -199.5t23 -168.5q0 -42 -7.5 -79t-20.5 -65q-18 -38 -36.5 -50.5t-52.5 -12.5h-324zM1176 0q-30 0 -42 22t-12 67q0 49 11 69.5t43 20.5v-179zM1443 -392l-163 121l98 125
l162 -121zM678 19l59 160h505v-179h-170l35 48q41 -73 41 -144q0 -92 -61.5 -167.5t-165.5 -124.5q-89 -41 -194 -66.5t-198 -25.5q-147 0 -244 60.5t-144.5 165t-47.5 237.5q0 158 64 335l102 -25q-21 -74 -33 -140.5t-12 -124.5q0 -144 76.5 -228.5t244.5 -84.5
q78 0 169.5 18t170.5 48q69 24 111 54t42 60q0 22 -19.5 40t-57.5 32q-32 15 -79.5 23t-96.5 12t-89 4zM1242 0v179q31 0 42.5 -20.5t11.5 -69.5q0 -45 -12 -67t-42 -22zM50 387l-4 1l-8 80l94 38l5 -34q-40 25 -58 59t-18 71q0 70 45.5 119t119.5 49q39 0 72.5 -14.5
t59.5 -34.5l-28 -77q-25 11 -48.5 18.5t-46.5 9.5q-49 5 -73.5 -15.5t-24.5 -41.5q0 -28 36.5 -51.5t72.5 -16.5l47.5 9.5l87.5 17.5l-20 -101q-108 -20 -184 -41.5t-127 -44.5z" />
    <glyph glyph-name="beh_yehHamzaabovear.fina" unicode="&#xfe92;&#xfe8a;" horiz-adv-x="1663" 
d="M1136 0v179h252q30 0 36.5 12t-1.5 52l-55 288l125 9q28 -111 48 -213t23 -193l-43 45h142v-179h-27q-53 0 -99 11t-78 27l87 -2q-44 -20 -122 -28t-190 -8h-98zM1663 0v179q32 0 43.5 -20.5t11.5 -69.5q0 -45 -12.5 -67t-42.5 -22zM1136 0q-30 0 -42 22t-12 67
q0 49 11 69.5t43 20.5v-179zM1415 -395l-163 121l98 125l162 -121zM678 19l59 160h505v-179h-170l35 48q41 -73 41 -144q0 -92 -61.5 -167.5t-165.5 -124.5q-89 -41 -194 -66.5t-198 -25.5q-147 0 -244 60.5t-144.5 165t-47.5 237.5q0 158 64 335l102 -25
q-21 -74 -33 -140.5t-12 -124.5q0 -144 76.5 -228.5t244.5 -84.5q78 0 169.5 18t170.5 48q69 24 111 54t42 60q0 22 -19.5 40t-57.5 32q-32 15 -79.5 23t-96.5 12t-89 4zM1242 0v179q31 0 42.5 -20.5t11.5 -69.5q0 -45 -12 -67t-42 -22zM50 387l-4 1l-8 80l94 38l5 -34
q-40 25 -58 59t-18 71q0 70 45.5 119t119.5 49q39 0 72.5 -14.5t59.5 -34.5l-28 -77q-25 11 -48.5 18.5t-46.5 9.5q-49 5 -73.5 -15.5t-24.5 -41.5q0 -28 36.5 -51.5t72.5 -16.5l47.5 9.5l87.5 17.5l-20 -101q-108 -20 -184 -41.5t-127 -44.5z" />
    <glyph glyph-name="beh_yehbarreear.fina.liga" unicode="&#xfe92;&#xfbaf;" horiz-adv-x="1029" 
d="M929 128l-88 51h188v-179h-28q-53 0 -98.5 11t-76.5 28l74 -8q-41 -16 -112.5 -23.5t-178.5 -7.5q-123 0 -195.5 -6.5t-117.5 -25.5q-44 -17 -64 -44t-21 -61q-2 -20 7.5 -29.5t39.5 -14.5q34 -4 103 -6.5t157 -2.5q119 0 238.5 4t223.5 12l-12 -178q-117 -9 -225 -13
t-214 -4q-86 0 -170 5t-139 21q-27 8 -45 18.5t-30 22.5q-22 23 -40 74t-17 112q2 97 44.5 156t112.5 89t158 40t181 10h170q29 0 35.5 12t-1.5 52l-55 288l125 9q29 -113 49 -216t22 -196zM1029 0v179q31 0 42.5 -20.5t11.5 -69.5q0 -45 -12 -67t-42 -22zM795 -715
l-162 122l98 125l162 -121z" />
    <glyph glyph-name="beh_yehbarreear.liga" unicode="&#xfe91;&#xfbaf;" horiz-adv-x="1049" 
d="M518 -190q119 0 238.5 4t223.5 12l-12 -178q-117 -9 -225 -13t-214 -4q-86 0 -170 5t-139 21q-27 8 -45 18.5t-30 22.5q-22 23 -40 74t-17 112q2 97 44.5 156t112.5 89t158 40t181 10h187q31 0 39.5 9.5t-2.5 54.5q-10 46 -37 132t-67 189l135 11q46 -108 68.5 -199.5
t22.5 -168.5q0 -42 -7.5 -79t-19.5 -65q-18 -38 -36.5 -50.5t-53.5 -12.5h-220q-106 0 -177.5 -6.5t-119.5 -25.5q-44 -17 -64 -44t-21 -61q-2 -20 7.5 -29.5t39.5 -14.5q34 -4 103 -6.5t157 -2.5zM682 -715l-163 122l98 125l162 -121z" />
    <glyph glyph-name="peh_yehbarreear.fina.liga" unicode="&#xfb59;&#xfbaf;" horiz-adv-x="1029" 
d="M929 128l-88 51h188v-179h-28q-53 0 -98.5 11t-76.5 28l74 -8q-41 -16 -112.5 -23.5t-178.5 -7.5q-123 0 -195.5 -6.5t-117.5 -25.5q-44 -17 -64 -44t-21 -61q-2 -20 7.5 -29.5t39.5 -14.5q34 -4 103 -6.5t157 -2.5q119 0 238.5 4t223.5 12l-12 -178q-117 -9 -225 -13
t-214 -4q-86 0 -170 5t-139 21q-27 8 -45 18.5t-30 22.5q-22 23 -40 74t-17 112q2 97 44.5 156t112.5 89t158 40t181 10h170q29 0 35.5 12t-1.5 52l-55 288l125 9q29 -113 49 -216t22 -196zM1029 0v179q31 0 42.5 -20.5t11.5 -69.5q0 -45 -12 -67t-42 -22zM891 -689
l-150 112l90 116l150 -113zM649 -689l-150 112l91 116l149 -113zM810 -914l-150 111l90 116l149 -112z" />
    <glyph glyph-name="peh_yehbarreear.liga" unicode="&#xfb58;&#xfbaf;" horiz-adv-x="1049" 
d="M518 -190q119 0 238.5 4t223.5 12l-12 -178q-117 -9 -225 -13t-214 -4q-86 0 -170 5t-139 21q-27 8 -45 18.5t-30 22.5q-22 23 -40 74t-17 112q2 97 44.5 156t112.5 89t158 40t181 10h187q31 0 39.5 9.5t-2.5 54.5q-10 46 -37 132t-67 189l135 11q46 -108 68.5 -199.5
t22.5 -168.5q0 -42 -7.5 -79t-19.5 -65q-18 -38 -36.5 -50.5t-53.5 -12.5h-220q-106 0 -177.5 -6.5t-119.5 -25.5q-44 -17 -64 -44t-21 -61q-2 -20 7.5 -29.5t39.5 -14.5q34 -4 103 -6.5t157 -2.5zM811 -689l-150 112l90 116l150 -113zM569 -689l-150 112l91 116l149 -113z
M730 -914l-150 111l90 116l149 -112z" />
    <glyph glyph-name="uniFC10.fina.loclFAR.isol" unicode="&#xfe96;&#xfef2;" horiz-adv-x="1663" 
d="M1522 665l-153 113l93 118l151 -114zM1276 665l-152 113l92 118l152 -114zM1136 0v179h252q30 0 36.5 12t-1.5 52l-55 288l125 9q28 -111 48 -213t23 -193l-43 45h142v-179h-27q-53 0 -99 11t-78 27l87 -2q-44 -20 -122 -28t-190 -8h-98zM1663 0v179q32 0 43.5 -20.5
t11.5 -69.5q0 -45 -12.5 -67t-42.5 -22zM1136 0q-30 0 -42 22t-12 67q0 49 11 69.5t43 20.5v-179zM678 19l59 160h505v-179h-170l35 48q41 -73 41 -144q0 -92 -61.5 -167.5t-165.5 -124.5q-89 -41 -194 -66.5t-198 -25.5q-147 0 -244 60.5t-144.5 165t-47.5 237.5
q0 158 64 335l102 -25q-21 -74 -33 -140.5t-12 -124.5q0 -144 76.5 -228.5t244.5 -84.5q78 0 169.5 18t170.5 48q69 24 111 54t42 60q0 22 -19.5 40t-57.5 32q-32 15 -79.5 23t-96.5 12t-89 4zM1242 0v179q31 0 42.5 -20.5t11.5 -69.5q0 -45 -12 -67t-42 -22z" />
    <glyph glyph-name="uniFC10.loclFAR.isol" unicode="&#x62a;&#x64a;" horiz-adv-x="1632" 
d="M1476 694l-153 113l93 118l151 -114zM1231 694l-153 113l92 118l152 -114zM1106 0v179h282q31 0 38.5 9.5t-1.5 54.5q-10 46 -37.5 132t-67.5 189l135 11q46 -108 69 -199.5t23 -168.5q0 -42 -7.5 -79t-20.5 -65q-18 -38 -36.5 -50.5t-52.5 -12.5h-324zM1106 0
q-30 0 -42 22t-12 67q0 49 11 69.5t43 20.5v-179zM678 19l59 160h505v-179h-170l35 48q41 -73 41 -144q0 -92 -61.5 -167.5t-165.5 -124.5q-89 -41 -194 -66.5t-198 -25.5q-147 0 -244 60.5t-144.5 165t-47.5 237.5q0 158 64 335l102 -25q-21 -74 -33 -140.5t-12 -124.5
q0 -144 76.5 -228.5t244.5 -84.5q78 0 169.5 18t170.5 48q69 24 111 54t42 60q0 22 -19.5 40t-57.5 32q-32 15 -79.5 23t-96.5 12t-89 4zM1242 0v179q31 0 42.5 -20.5t11.5 -69.5q0 -45 -12 -67t-42 -22z" />
    <glyph glyph-name="teh_yehHamzaabovear" unicode="&#xfe97;&#xfe8a;" horiz-adv-x="1632" 
d="M1475 694l-152 113l92 118l152 -114zM1230 694l-153 113l92 118l152 -114zM1105 0v179h282q31 0 39 9.5t-2 54.5q-10 46 -37 132t-68 189l135 11q46 -108 69 -199.5t23 -168.5q0 -42 -7.5 -79t-20.5 -65q-17 -38 -35.5 -50.5t-53.5 -12.5h-324zM1105 0q-30 0 -42 22
t-12 67q0 49 11.5 69.5t42.5 20.5v-179zM678 19l59 160h505v-179h-170l35 48q41 -73 41 -144q0 -92 -61.5 -167.5t-165.5 -124.5q-89 -41 -194 -66.5t-198 -25.5q-147 0 -244 60.5t-144.5 165t-47.5 237.5q0 158 64 335l102 -25q-21 -74 -33 -140.5t-12 -124.5
q0 -144 76.5 -228.5t244.5 -84.5q78 0 169.5 18t170.5 48q69 24 111 54t42 60q0 22 -19.5 40t-57.5 32q-32 15 -79.5 23t-96.5 12t-89 4zM1242 0v179q31 0 42.5 -20.5t11.5 -69.5q0 -45 -12 -67t-42 -22zM50 387l-4 1l-8 80l94 38l5 -34q-40 24 -58 58.5t-18 71.5
q0 70 45.5 118.5t119.5 48.5q39 0 72.5 -14.5t59.5 -34.5l-29 -76q-24 11 -47.5 18.5t-46.5 9.5q-49 5 -73.5 -15.5t-24.5 -41.5q0 -28 36.5 -51.5t71.5 -16.5l47.5 9.5t88.5 17.5l-20 -101q-108 -20 -184 -41.5t-127 -44.5z" />
    <glyph glyph-name="teh_yehHamzaabovear.fina" unicode="&#xfe98;&#xfe8a;" horiz-adv-x="1663" 
d="M1522 665l-153 113l93 118l151 -114zM1276 665l-152 113l92 118l152 -114zM1136 0v179h252q30 0 36.5 12t-1.5 52l-55 288l125 9q28 -111 48 -213t23 -193l-43 45h142v-179h-27q-53 0 -99 11t-78 27l87 -2q-44 -20 -122 -28t-190 -8h-98zM1663 0v179q32 0 43.5 -20.5
t11.5 -69.5q0 -45 -12.5 -67t-42.5 -22zM1136 0q-30 0 -42 22t-12 67q0 49 11 69.5t43 20.5v-179zM678 19l59 160h505v-179h-170l35 48q41 -73 41 -144q0 -92 -61.5 -167.5t-165.5 -124.5q-89 -41 -194 -66.5t-198 -25.5q-147 0 -244 60.5t-144.5 165t-47.5 237.5
q0 158 64 335l102 -25q-21 -74 -33 -140.5t-12 -124.5q0 -144 76.5 -228.5t244.5 -84.5q78 0 169.5 18t170.5 48q69 24 111 54t42 60q0 22 -19.5 40t-57.5 32q-32 15 -79.5 23t-96.5 12t-89 4zM1242 0v179q31 0 42.5 -20.5t11.5 -69.5q0 -45 -12 -67t-42 -22zM50 387l-4 1
l-8 80l94 38l5 -34q-40 24 -58 58.5t-18 71.5q0 70 45.5 118.5t119.5 48.5q39 0 72.5 -14.5t59.5 -34.5l-29 -76q-24 11 -47.5 18.5t-46.5 9.5q-49 5 -73.5 -15.5t-24.5 -41.5q0 -28 36.5 -51.5t71.5 -16.5l47.5 9.5t88.5 17.5l-20 -101q-108 -20 -184 -41.5t-127 -44.5z
" />
    <glyph glyph-name="teh_yehbarreear.fina.liga" unicode="&#xfe98;&#xfbaf;" horiz-adv-x="1029" 
d="M929 128l-88 51h188v-179h-28q-53 0 -98.5 11t-76.5 28l74 -8q-41 -16 -112.5 -23.5t-178.5 -7.5q-123 0 -195.5 -6.5t-117.5 -25.5q-44 -17 -64 -44t-21 -61q-2 -20 7.5 -29.5t39.5 -14.5q34 -4 103 -6.5t157 -2.5q119 0 238.5 4t223.5 12l-12 -178q-117 -9 -225 -13
t-214 -4q-86 0 -170 5t-139 21q-27 8 -45 18.5t-30 22.5q-22 23 -40 74t-17 112q2 97 44.5 156t112.5 89t158 40t181 10h170q29 0 35.5 12t-1.5 52l-55 288l125 9q29 -113 49 -216t22 -196zM1029 0v179q31 0 42.5 -20.5t11.5 -69.5q0 -45 -12 -67t-42 -22zM887 665l-153 113
l93 118l151 -114zM642 665l-153 113l92 118l152 -114z" />
    <glyph glyph-name="teh_yehbarreear.liga" unicode="&#xfe97;&#xfbaf;" horiz-adv-x="1049" 
d="M518 -190q119 0 238.5 4t223.5 12l-12 -178q-117 -9 -225 -13t-214 -4q-86 0 -170 5t-139 21q-27 8 -45 18.5t-30 22.5q-22 23 -40 74t-17 112q2 97 44.5 156t112.5 89t158 40t181 10h187q31 0 39.5 9.5t-2.5 54.5q-10 46 -37 132t-67 189l135 11q46 -108 68.5 -199.5
t22.5 -168.5q0 -42 -7.5 -79t-19.5 -65q-18 -38 -36.5 -50.5t-53.5 -12.5h-220q-106 0 -177.5 -6.5t-119.5 -25.5q-44 -17 -64 -44t-21 -61q-2 -20 7.5 -29.5t39.5 -14.5q34 -4 103 -6.5t157 -2.5zM860 694l-153 113l92 118l152 -114zM614 694l-153 113l93 118l151 -114z
" />
    <glyph glyph-name="uniFC14.fina.loclFAR.isol" unicode="&#xfe9a;&#xfef2;" horiz-adv-x="1663" 
d="M1219 893l150 -112l-91 -116l-149 113zM1460 893l151 -112l-91 -116l-149 113zM1300 1118l150 -111l-90 -116l-149 112zM1136 0v179h252q30 0 36.5 12t-1.5 52l-55 288l125 9q28 -111 48 -213t23 -193l-43 45h142v-179h-27q-53 0 -99 11t-78 27l87 -2q-44 -20 -122 -28
t-190 -8h-98zM1663 0v179q32 0 43.5 -20.5t11.5 -69.5q0 -45 -12.5 -67t-42.5 -22zM1136 0q-30 0 -42 22t-12 67q0 49 11 69.5t43 20.5v-179zM678 19l59 160h505v-179h-170l35 48q41 -73 41 -144q0 -92 -61.5 -167.5t-165.5 -124.5q-89 -41 -194 -66.5t-198 -25.5
q-147 0 -244 60.5t-144.5 165t-47.5 237.5q0 158 64 335l102 -25q-21 -74 -33 -140.5t-12 -124.5q0 -144 76.5 -228.5t244.5 -84.5q78 0 169.5 18t170.5 48q69 24 111 54t42 60q0 22 -19.5 40t-57.5 32q-32 15 -79.5 23t-96.5 12t-89 4zM1242 0v179q31 0 42.5 -20.5
t11.5 -69.5q0 -45 -12 -67t-42 -22z" />
    <glyph glyph-name="uniFC14.loclFAR.isol" unicode="&#x62b;&#x64a;" horiz-adv-x="1632" 
d="M1173 922l150 -112l-91 -116l-149 113zM1415 922l150 -112l-91 -116l-149 113zM1254 1147l150 -111l-90 -116l-149 112zM1106 0v179h282q31 0 38.5 9.5t-1.5 54.5q-10 46 -37.5 132t-67.5 189l135 11q46 -108 69 -199.5t23 -168.5q0 -42 -7.5 -79t-20.5 -65
q-18 -38 -36.5 -50.5t-52.5 -12.5h-324zM1106 0q-30 0 -42 22t-12 67q0 49 11 69.5t43 20.5v-179zM678 19l59 160h505v-179h-170l35 48q41 -73 41 -144q0 -92 -61.5 -167.5t-165.5 -124.5q-89 -41 -194 -66.5t-198 -25.5q-147 0 -244 60.5t-144.5 165t-47.5 237.5
q0 158 64 335l102 -25q-21 -74 -33 -140.5t-12 -124.5q0 -144 76.5 -228.5t244.5 -84.5q78 0 169.5 18t170.5 48q69 24 111 54t42 60q0 22 -19.5 40t-57.5 32q-32 15 -79.5 23t-96.5 12t-89 4zM1242 0v179q31 0 42.5 -20.5t11.5 -69.5q0 -45 -12 -67t-42 -22z" />
    <glyph glyph-name="theh_yehHamzaabovear" unicode="&#xfe9b;&#xfe8a;" horiz-adv-x="1632" 
d="M1173 922l150 -112l-91 -116l-149 113zM1415 922l150 -112l-91 -116l-149 113zM1254 1147l150 -111l-90 -116l-149 112zM1106 0v179h282q31 0 38.5 9.5t-1.5 54.5q-10 46 -37.5 132t-67.5 189l135 11q46 -108 69 -199.5t23 -168.5q0 -42 -7.5 -79t-20.5 -65
q-18 -38 -36.5 -50.5t-52.5 -12.5h-324zM1106 0q-30 0 -42 22t-12 67q0 49 11 69.5t43 20.5v-179zM678 19l59 160h505v-179h-170l35 48q41 -73 41 -144q0 -92 -61.5 -167.5t-165.5 -124.5q-89 -41 -194 -66.5t-198 -25.5q-147 0 -244 60.5t-144.5 165t-47.5 237.5
q0 158 64 335l102 -25q-21 -74 -33 -140.5t-12 -124.5q0 -144 76.5 -228.5t244.5 -84.5q78 0 169.5 18t170.5 48q69 24 111 54t42 60q0 22 -19.5 40t-57.5 32q-32 15 -79.5 23t-96.5 12t-89 4zM1242 0v179q31 0 42.5 -20.5t11.5 -69.5q0 -45 -12 -67t-42 -22zM50 387l-4 1
l-8 80l94 38l5 -34q-40 24 -58 58.5t-18 71.5q0 70 45.5 118.5t119.5 48.5q39 0 72.5 -14.5t59.5 -34.5l-29 -76q-24 11 -47.5 18.5t-46.5 9.5q-49 5 -73.5 -15.5t-24.5 -41.5q0 -28 36.5 -51.5t71.5 -16.5l47.5 9.5t88.5 17.5l-20 -101q-108 -20 -184 -41.5t-127 -44.5z
" />
    <glyph glyph-name="theh_yehHamzaabovear.fina" unicode="&#xfe9c;&#xfe8a;" horiz-adv-x="1663" 
d="M1219 893l150 -112l-91 -116l-149 113zM1460 893l151 -112l-91 -116l-149 113zM1300 1118l150 -111l-90 -116l-149 112zM1136 0v179h252q30 0 36.5 12t-1.5 52l-55 288l125 9q28 -111 48 -213t23 -193l-43 45h142v-179h-27q-53 0 -99 11t-78 27l87 -2q-44 -20 -122 -28
t-190 -8h-98zM1663 0v179q32 0 43.5 -20.5t11.5 -69.5q0 -45 -12.5 -67t-42.5 -22zM1136 0q-30 0 -42 22t-12 67q0 49 11 69.5t43 20.5v-179zM678 19l59 160h505v-179h-170l35 48q41 -73 41 -144q0 -92 -61.5 -167.5t-165.5 -124.5q-89 -41 -194 -66.5t-198 -25.5
q-147 0 -244 60.5t-144.5 165t-47.5 237.5q0 158 64 335l102 -25q-21 -74 -33 -140.5t-12 -124.5q0 -144 76.5 -228.5t244.5 -84.5q78 0 169.5 18t170.5 48q69 24 111 54t42 60q0 22 -19.5 40t-57.5 32q-32 15 -79.5 23t-96.5 12t-89 4zM1242 0v179q31 0 42.5 -20.5
t11.5 -69.5q0 -45 -12 -67t-42 -22zM50 387l-4 1l-8 80l94 38l5 -34q-40 24 -58 58.5t-18 71.5q0 70 45.5 118.5t119.5 48.5q39 0 72.5 -14.5t59.5 -34.5l-29 -76q-24 11 -47.5 18.5t-46.5 9.5q-49 5 -73.5 -15.5t-24.5 -41.5q0 -28 36.5 -51.5t71.5 -16.5l47.5 9.5
t88.5 17.5l-20 -101q-108 -20 -184 -41.5t-127 -44.5z" />
    <glyph glyph-name="theh_yehbarreear.fina.liga" unicode="&#xfe9c;&#xfbaf;" horiz-adv-x="1029" 
d="M929 128l-88 51h188v-179h-28q-53 0 -98.5 11t-76.5 28l74 -8q-41 -16 -112.5 -23.5t-178.5 -7.5q-123 0 -195.5 -6.5t-117.5 -25.5q-44 -17 -64 -44t-21 -61q-2 -20 7.5 -29.5t39.5 -14.5q34 -4 103 -6.5t157 -2.5q119 0 238.5 4t223.5 12l-12 -178q-117 -9 -225 -13
t-214 -4q-86 0 -170 5t-139 21q-27 8 -45 18.5t-30 22.5q-22 23 -40 74t-17 112q2 97 44.5 156t112.5 89t158 40t181 10h170q29 0 35.5 12t-1.5 52l-55 288l125 9q29 -113 49 -216t22 -196zM1029 0v179q31 0 42.5 -20.5t11.5 -69.5q0 -45 -12 -67t-42 -22zM584 893l150 -112
l-90 -116l-150 113zM826 893l150 -112l-91 -116l-149 113zM665 1118l150 -111l-90 -116l-149 112z" />
    <glyph glyph-name="theh_yehbarreear.liga" unicode="&#xfe9b;&#xfbaf;" horiz-adv-x="1049" 
d="M518 -190q119 0 238.5 4t223.5 12l-12 -178q-117 -9 -225 -13t-214 -4q-86 0 -170 5t-139 21q-27 8 -45 18.5t-30 22.5q-22 23 -40 74t-17 112q2 97 44.5 156t112.5 89t158 40t181 10h187q31 0 39.5 9.5t-2.5 54.5q-10 46 -37 132t-67 189l135 11q46 -108 68.5 -199.5
t22.5 -168.5q0 -42 -7.5 -79t-19.5 -65q-18 -38 -36.5 -50.5t-53.5 -12.5h-220q-106 0 -177.5 -6.5t-119.5 -25.5q-44 -17 -64 -44t-21 -61q-2 -20 7.5 -29.5t39.5 -14.5q34 -4 103 -6.5t157 -2.5zM550 923l150 -112l-91 -115l-149 112zM791 923l151 -112l-91 -115l-149 112
zM631 1149l150 -112l-90 -116l-150 112z" />
    <glyph glyph-name="tteh_alefMaksuraar" unicode="&#xfb68;&#xfef0;" horiz-adv-x="1632" 
d="M678 19l59 160h505v-179h-170l35 48q41 -73 41 -144q0 -92 -61.5 -167.5t-165.5 -124.5q-89 -41 -194 -66.5t-198 -25.5q-147 0 -244 60.5t-144.5 165t-47.5 237.5q0 158 64 335l102 -25q-21 -74 -33 -140.5t-12 -124.5q0 -144 76.5 -228.5t244.5 -84.5q78 0 169.5 18
t170.5 48q69 24 111 54t42 60q0 22 -19.5 40t-57.5 32q-32 15 -79.5 23t-96.5 12t-89 4zM1242 0v179q31 0 42.5 -20.5t11.5 -69.5q0 -45 -12 -67t-42 -22zM1106 0v179h282q31 0 38.5 9.5t-1.5 54.5q-10 46 -37.5 132t-67.5 189l135 11q46 -108 69 -199.5t23 -168.5
q0 -42 -7.5 -79t-20.5 -65q-18 -38 -36.5 -50.5t-52.5 -12.5h-324zM1106 0q-30 0 -42 22t-12 67q0 49 11 69.5t43 20.5v-179zM1102 695v104h111l-43 -39q-1 35 -7 91t-13 116.5t-13.5 110.5t-9.5 70l94 5q8 -95 11.5 -146.5t4.5 -76t-1 -39t-5 -36.5l-13 20q40 62 94.5 98
t116.5 36q59 0 102 -44.5t43 -121.5q0 -28 -10.5 -54t-34.5 -49q-24 -21 -56 -33t-86 -12h-285zM1248 802q35 -1 65 -1.5t54 -0.5q73 0 105.5 6t32.5 17q0 41 -27 61.5t-59 20.5q-51 1 -97 -27.5t-77 -69.5z" />
    <glyph glyph-name="tteh_alefMaksuraar.fina" unicode="&#xfb69;&#xfef0;" horiz-adv-x="1663" 
d="M1136 0v179h252q30 0 36.5 12t-1.5 52l-55 288l125 9q28 -111 48 -213t23 -193l-43 45h142v-179h-27q-53 0 -99 11t-78 27l87 -2q-44 -20 -122 -28t-190 -8h-98zM1663 0v179q32 0 43.5 -20.5t11.5 -69.5q0 -45 -12.5 -67t-42.5 -22zM1136 0q-30 0 -42 22t-12 67
q0 49 11 69.5t43 20.5v-179zM1148 666v104h111l-43 -39q-1 35 -7 91t-13 116.5t-13.5 110.5t-9.5 70l94 5q8 -95 11.5 -146.5t4.5 -76t-1 -39t-5 -36.5l-13 20q40 62 94.5 98t116.5 36q59 0 102 -44.5t43 -121.5q0 -28 -10.5 -54t-34.5 -49q-24 -21 -56 -33t-86 -12h-285z
M1294 773q35 -1 65 -1.5t54 -0.5q73 0 105.5 6t32.5 17q0 41 -27 61.5t-59 20.5q-51 1 -97 -27.5t-77 -69.5zM678 19l59 160h505v-179h-170l35 48q41 -73 41 -144q0 -92 -61.5 -167.5t-165.5 -124.5q-89 -41 -194 -66.5t-198 -25.5q-147 0 -244 60.5t-144.5 165t-47.5 237.5
q0 158 64 335l102 -25q-21 -74 -33 -140.5t-12 -124.5q0 -144 76.5 -228.5t244.5 -84.5q78 0 169.5 18t170.5 48q69 24 111 54t42 60q0 22 -19.5 40t-57.5 32q-32 15 -79.5 23t-96.5 12t-89 4zM1242 0v179q31 0 42.5 -20.5t11.5 -69.5q0 -45 -12 -67t-42 -22z" />
    <glyph glyph-name="tteh_yehar" unicode="&#xfb68;&#xfef2;" horiz-adv-x="1632" 
d="M722 -817l-153 114l93 118l151 -114zM476 -817l-152 114l92 118l152 -114zM678 19l59 160h505v-179h-170l35 48q41 -73 41 -144q0 -92 -61.5 -167.5t-165.5 -124.5q-89 -41 -194 -66.5t-198 -25.5q-147 0 -244 60.5t-144.5 165t-47.5 237.5q0 158 64 335l102 -25
q-21 -74 -33 -140.5t-12 -124.5q0 -144 76.5 -228.5t244.5 -84.5q78 0 169.5 18t170.5 48q69 24 111 54t42 60q0 22 -19.5 40t-57.5 32q-32 15 -79.5 23t-96.5 12t-89 4zM1242 0v179q31 0 42.5 -20.5t11.5 -69.5q0 -45 -12 -67t-42 -22zM1106 0v179h282q31 0 38.5 9.5
t-1.5 54.5q-10 46 -37.5 132t-67.5 189l135 11q46 -108 69 -199.5t23 -168.5q0 -42 -7.5 -79t-20.5 -65q-18 -38 -36.5 -50.5t-52.5 -12.5h-324zM1106 0q-30 0 -42 22t-12 67q0 49 11 69.5t43 20.5v-179zM1102 695v104h111l-43 -38q-1 34 -7 90.5t-13 117t-13.5 110
t-9.5 70.5l94 5q8 -95 11.5 -146.5t4.5 -76.5t-1 -39.5t-5 -36.5l-13 20q40 62 94.5 98.5t116.5 36.5q59 0 102 -45t43 -121q0 -29 -10.5 -55t-34.5 -49q-24 -21 -56 -33t-86 -12h-285zM1248 803q35 -1 65 -2t54 -1q73 0 105.5 6.5t32.5 17.5q0 41 -27 61t-59 21
q-51 0 -97 -28t-77 -69z" />
    <glyph glyph-name="tteh_yehar.fina" unicode="&#xfb69;&#xfef2;" horiz-adv-x="1663" 
d="M722 -817l-153 114l93 118l151 -114zM476 -817l-152 114l92 118l152 -114zM1136 0v179h252q30 0 36.5 12t-1.5 52l-55 288l125 9q28 -111 48 -213t23 -193l-43 45h142v-179h-27q-53 0 -99 11t-78 27l87 -2q-44 -20 -122 -28t-190 -8h-98zM1663 0v179q32 0 43.5 -20.5
t11.5 -69.5q0 -45 -12.5 -67t-42.5 -22zM1136 0q-30 0 -42 22t-12 67q0 49 11 69.5t43 20.5v-179zM1148 666v104h111l-43 -38q-1 34 -7 90.5t-13 117t-13.5 110t-9.5 70.5l94 5q8 -95 11.5 -146.5t4 -76.5t-1 -39.5t-4.5 -36.5l-13 20q40 62 94.5 98.5t116.5 36.5
q59 0 101.5 -45t42.5 -121q0 -29 -10 -55t-34 -49q-24 -21 -56 -33t-86 -12h-285zM1294 774q35 -1 65 -2t54 -1q73 0 105.5 6.5t32.5 17.5q0 41 -27 61t-59 21q-51 0 -97 -28.5t-77 -68.5zM678 19l59 160h505v-179h-170l35 48q41 -73 41 -144q0 -92 -61.5 -167.5
t-165.5 -124.5q-89 -41 -194 -66.5t-198 -25.5q-147 0 -244 60.5t-144.5 165t-47.5 237.5q0 158 64 335l102 -25q-21 -74 -33 -140.5t-12 -124.5q0 -144 76.5 -228.5t244.5 -84.5q78 0 169.5 18t170.5 48q69 24 111 54t42 60q0 22 -19.5 40t-57.5 32q-32 15 -79.5 23
t-96.5 12t-89 4zM1242 0v179q31 0 42.5 -20.5t11.5 -69.5q0 -45 -12 -67t-42 -22z" />
    <glyph glyph-name="tteh_yehar.fina.loclFAR.isol" unicode="&#xfb67;&#xfef2;" horiz-adv-x="1663" 
d="M1136 0v179h252q30 0 36.5 12t-1.5 52l-55 288l125 9q28 -111 48 -213t23 -193l-43 45h142v-179h-27q-53 0 -99 11t-78 27l87 -2q-44 -20 -122 -28t-190 -8h-98zM1663 0v179q32 0 43.5 -20.5t11.5 -69.5q0 -45 -12.5 -67t-42.5 -22zM1136 0q-30 0 -42 22t-12 67
q0 49 11 69.5t43 20.5v-179zM1148 666v104h111l-43 -39q-1 35 -7 91t-13 116.5t-13.5 110.5t-9.5 70l94 5q8 -95 11.5 -146.5t4.5 -76t-1 -39t-5 -36.5l-13 20q40 62 94.5 98t116.5 36q59 0 102 -44.5t43 -121.5q0 -28 -10.5 -54t-34.5 -49q-24 -21 -56 -33t-86 -12h-285z
M1294 773q35 -1 65 -1.5t54 -0.5q73 0 105.5 6t32.5 17q0 41 -27 61.5t-59 20.5q-51 1 -97 -27.5t-77 -69.5zM678 19l59 160h505v-179h-170l35 48q41 -73 41 -144q0 -92 -61.5 -167.5t-165.5 -124.5q-89 -41 -194 -66.5t-198 -25.5q-147 0 -244 60.5t-144.5 165t-47.5 237.5
q0 158 64 335l102 -25q-21 -74 -33 -140.5t-12 -124.5q0 -144 76.5 -228.5t244.5 -84.5q78 0 169.5 18t170.5 48q69 24 111 54t42 60q0 22 -19.5 40t-57.5 32q-32 15 -79.5 23t-96.5 12t-89 4zM1242 0v179q31 0 42.5 -20.5t11.5 -69.5q0 -45 -12 -67t-42 -22z" />
    <glyph glyph-name="tteh_yehar.loclFAR.isol" unicode="&#x679;&#x64a;" horiz-adv-x="1632" 
d="M678 19l59 160h505v-179h-170l35 48q41 -73 41 -144q0 -92 -61.5 -167.5t-165.5 -124.5q-89 -41 -194 -66.5t-198 -25.5q-147 0 -244 60.5t-144.5 165t-47.5 237.5q0 158 64 335l102 -25q-21 -74 -33 -140.5t-12 -124.5q0 -144 76.5 -228.5t244.5 -84.5q78 0 169.5 18
t170.5 48q69 24 111 54t42 60q0 22 -19.5 40t-57.5 32q-32 15 -79.5 23t-96.5 12t-89 4zM1242 0v179q31 0 42.5 -20.5t11.5 -69.5q0 -45 -12 -67t-42 -22zM1106 0v179h282q31 0 38.5 9.5t-1.5 54.5q-10 46 -37.5 132t-67.5 189l135 11q46 -108 69 -199.5t23 -168.5
q0 -42 -7.5 -79t-20.5 -65q-18 -38 -36.5 -50.5t-52.5 -12.5h-324zM1106 0q-30 0 -42 22t-12 67q0 49 11 69.5t43 20.5v-179zM1102 695v104h111l-43 -39q-1 35 -7 91t-13 116.5t-13.5 110.5t-9.5 70l94 5q8 -95 11.5 -146.5t4.5 -76t-1 -39t-5 -36.5l-13 20q40 62 94.5 98
t116.5 36q59 0 102 -44.5t43 -121.5q0 -28 -10.5 -54t-34.5 -49q-24 -21 -56 -33t-86 -12h-285zM1248 802q35 -1 65 -1.5t54 -0.5q73 0 105.5 6t32.5 17q0 41 -27 61.5t-59 20.5q-51 1 -97 -27.5t-77 -69.5z" />
    <glyph glyph-name="tteh_yehHamzaabovear" unicode="&#xfb68;&#xfe8a;" horiz-adv-x="1632" 
d="M678 19l59 160h505v-179h-170l35 48q41 -73 41 -144q0 -92 -61.5 -167.5t-165.5 -124.5q-89 -41 -194 -66.5t-198 -25.5q-147 0 -244 60.5t-144.5 165t-47.5 237.5q0 158 64 335l102 -25q-21 -74 -33 -140.5t-12 -124.5q0 -144 76.5 -228.5t244.5 -84.5q78 0 169.5 18
t170.5 48q69 24 111 54t42 60q0 22 -19.5 40t-57.5 32q-32 15 -79.5 23t-96.5 12t-89 4zM1242 0v179q31 0 42.5 -20.5t11.5 -69.5q0 -45 -12 -67t-42 -22zM50 387l-4 1l-8 80l94 38l5 -34q-40 25 -58 59t-18 71q0 70 45.5 119t119.5 49q39 0 72.5 -14.5t59.5 -34.5l-28 -77
q-25 11 -48.5 18.5t-46.5 9.5q-49 5 -73.5 -15.5t-24.5 -41.5q0 -28 36.5 -51.5t72.5 -16.5l47.5 9.5l87.5 17.5l-20 -101q-108 -20 -184 -41.5t-127 -44.5zM1106 0v179h282q31 0 38.5 9.5t-1.5 54.5q-10 46 -37.5 132t-67.5 189l135 11q46 -108 69 -199.5t23 -168.5
q0 -42 -7.5 -79t-20.5 -65q-18 -38 -36.5 -50.5t-52.5 -12.5h-324zM1106 0q-30 0 -42 22t-12 67q0 49 11 69.5t43 20.5v-179zM1102 695v104h111l-43 -39q-1 35 -7 91t-13 116.5t-13.5 110.5t-9.5 70l94 5q8 -95 11.5 -146.5t4.5 -76t-1 -39t-5 -36.5l-13 20q40 62 94.5 98
t116.5 36q59 0 102 -44.5t43 -121.5q0 -28 -10.5 -54t-34.5 -49q-24 -21 -56 -33t-86 -12h-285zM1248 802q35 -1 65 -1.5t54 -0.5q73 0 105.5 6t32.5 17q0 41 -27 61.5t-59 20.5q-51 1 -97 -27.5t-77 -69.5z" />
    <glyph glyph-name="tteh_yehHamzaabovear.fina" unicode="&#xfb69;&#xfe8a;" horiz-adv-x="1663" 
d="M1136 0v179h252q30 0 36.5 12t-1.5 52l-55 288l125 9q28 -111 48 -213t23 -193l-43 45h142v-179h-27q-53 0 -99 11t-78 27l87 -2q-44 -20 -122 -28t-190 -8h-98zM1663 0v179q32 0 43.5 -20.5t11.5 -69.5q0 -45 -12.5 -67t-42.5 -22zM1136 0q-30 0 -42 22t-12 67
q0 49 11 69.5t43 20.5v-179zM1148 666v104h111l-43 -39q-1 35 -7 91t-13 116.5t-13.5 110.5t-9.5 70l94 5q8 -95 11.5 -146.5t4.5 -76t-1 -39t-5 -36.5l-13 20q40 62 94.5 98t116.5 36q59 0 102 -44.5t43 -121.5q0 -28 -10.5 -54t-34.5 -49q-24 -21 -56 -33t-86 -12h-285z
M1294 773q35 -1 65 -1.5t54 -0.5q73 0 105.5 6t32.5 17q0 41 -27 61.5t-59 20.5q-51 1 -97 -27.5t-77 -69.5zM678 19l59 160h505v-179h-170l35 48q41 -73 41 -144q0 -92 -61.5 -167.5t-165.5 -124.5q-89 -41 -194 -66.5t-198 -25.5q-147 0 -244 60.5t-144.5 165t-47.5 237.5
q0 158 64 335l102 -25q-21 -74 -33 -140.5t-12 -124.5q0 -144 76.5 -228.5t244.5 -84.5q78 0 169.5 18t170.5 48q69 24 111 54t42 60q0 22 -19.5 40t-57.5 32q-32 15 -79.5 23t-96.5 12t-89 4zM1242 0v179q31 0 42.5 -20.5t11.5 -69.5q0 -45 -12 -67t-42 -22zM50 387l-4 1
l-8 80l94 38l5 -34q-40 25 -58 59t-18 71q0 70 45.5 119t119.5 49q39 0 72.5 -14.5t59.5 -34.5l-28 -77q-25 11 -48.5 18.5t-46.5 9.5q-49 5 -73.5 -15.5t-24.5 -41.5q0 -28 36.5 -51.5t72.5 -16.5l47.5 9.5l87.5 17.5l-20 -101q-108 -20 -184 -41.5t-127 -44.5z" />
    <glyph glyph-name="tteh_yehbarreear.fina.liga" unicode="&#xfb69;&#xfbaf;" horiz-adv-x="1029" 
d="M929 128l-88 51h188v-179h-28q-53 0 -98.5 11t-76.5 28l74 -8q-41 -16 -112.5 -23.5t-178.5 -7.5q-123 0 -195.5 -6.5t-117.5 -25.5q-44 -17 -64 -44t-21 -61q-2 -20 7.5 -29.5t39.5 -14.5q34 -4 103 -6.5t157 -2.5q119 0 238.5 4t223.5 12l-12 -178q-117 -9 -225 -13
t-214 -4q-86 0 -170 5t-139 21q-27 8 -45 18.5t-30 22.5q-22 23 -40 74t-17 112q2 97 44.5 156t112.5 89t158 40t181 10h170q29 0 35.5 12t-1.5 52l-55 288l125 9q29 -113 49 -216t22 -196zM1029 0v179q31 0 42.5 -20.5t11.5 -69.5q0 -45 -12 -67t-42 -22zM513 666v104h111
l-42 -38q-1 34 -7 90.5t-13.5 117t-14 110t-9.5 70.5l94 5q8 -95 11.5 -146.5t4.5 -76.5t-0.5 -39.5t-5.5 -36.5l-13 20q40 62 94.5 98.5t116.5 36.5q59 0 102 -45t43 -121q0 -29 -10 -55t-35 -49q-24 -21 -55.5 -33t-86.5 -12h-285zM660 774q34 -1 64 -2t54 -1
q73 0 105.5 6.5t32.5 17.5q0 41 -27 61t-59 21q-50 0 -96.5 -28.5t-76.5 -68.5z" />
    <glyph glyph-name="tteh_yehbarreear.liga" unicode="&#xfb68;&#xfbaf;" horiz-adv-x="1049" 
d="M518 -190q119 0 238.5 4t223.5 12l-12 -178q-117 -9 -225 -13t-214 -4q-86 0 -170 5t-139 21q-27 8 -45 18.5t-30 22.5q-22 23 -40 74t-17 112q2 97 44.5 156t112.5 89t158 40t181 10h187q31 0 39.5 9.5t-2.5 54.5q-10 46 -37 132t-67 189l135 11q46 -108 68.5 -199.5
t22.5 -168.5q0 -42 -7.5 -79t-19.5 -65q-18 -38 -36.5 -50.5t-53.5 -12.5h-220q-106 0 -177.5 -6.5t-119.5 -25.5q-44 -17 -64 -44t-21 -61q-2 -20 7.5 -29.5t39.5 -14.5q34 -4 103 -6.5t157 -2.5zM486 695v104h111l-43 -38q-1 34 -7 90.5t-13 117t-13.5 110t-9.5 70.5l94 5
q8 -95 11.5 -146.5t4 -76.5t-1 -39.5t-5.5 -36.5l-12 20q39 62 94 98.5t117 36.5q58 0 101 -45t43 -121q0 -29 -10 -55t-35 -49q-23 -21 -55 -33t-86 -12h-285zM632 803q35 -1 64.5 -2t54.5 -1q72 0 104.5 6.5t32.5 17.5q0 41 -26.5 61t-58.5 21q-51 0 -97 -28t-77 -69z" />
    <glyph glyph-name="uniFCFC.fina.loclFAR.isol" unicode="&#xfeb2;&#xfef2;" horiz-adv-x="2439" 
d="M1656 -8q-68 0 -137.5 9.5t-125.5 25.5l44 -1q-27 -9 -53.5 -14.5t-63 -8.5t-95.5 -3h-89v179h149q63 0 83.5 27t33.5 98l47 246l118 -24l-43 -252q-6 -34 -13 -63t-18 -54l-19 28q42 -7 94.5 -9.5t87.5 -2.5q90 0 119 20.5t29 71.5l1 244h118l2 -234q1 -61 31.5 -81
t120.5 -20q31 0 51 1.5t33 4.5q36 8 36 39q0 17 -8 50l-57 257l118 26l64 -275q13 -54 27 -76t58 -22h40v-179q-70 0 -116 15.5t-81 45.5l38 -2q-30 -28 -89.5 -46.5t-127.5 -18.5q-66 0 -120.5 16t-99.5 52l42 -2q-36 -33 -91 -50.5t-138 -17.5zM2439 0v179
q31 0 42.5 -20.5t11.5 -69.5q0 -45 -12 -67t-42 -22zM1136 0q-30 0 -42 22t-12 67q0 49 11 69.5t43 20.5v-179zM678 19l59 160h505v-179h-170l35 48q41 -73 41 -144q0 -92 -61.5 -167.5t-165.5 -124.5q-89 -41 -194 -66.5t-198 -25.5q-147 0 -244 60.5t-144.5 165
t-47.5 237.5q0 158 64 335l102 -25q-21 -74 -33 -140.5t-12 -124.5q0 -144 76.5 -228.5t244.5 -84.5q78 0 169.5 18t170.5 48q69 24 111 54t42 60q0 22 -19.5 40t-57.5 32q-32 15 -79.5 23t-96.5 12t-89 4zM1242 0v179q31 0 42.5 -20.5t11.5 -69.5q0 -45 -12 -67t-42 -22z
" />
    <glyph glyph-name="uniFCFC.loclFAR.isol" unicode="&#x633;&#x64a;" horiz-adv-x="2395" 
d="M1632 -5q-88 0 -173.5 11.5t-163.5 36.5l126 4q-34 -29 -80 -38t-122 -9h-113v179h156q63 0 83.5 25.5t34.5 99.5l46 246l119 -24l-43 -250q-6 -37 -14 -66t-17 -53l-13 28q33 -6 77.5 -9t90.5 -3q101 0 128.5 21.5t27.5 74.5l1 240h117l3 -235q1 -54 29.5 -77t128.5 -23
q49 0 79 5t46 13q21 12 21 38q0 18 -9 50q-15 44 -46.5 111t-82.5 148l114 76q56 -82 91.5 -183.5t35.5 -198.5q0 -89 -34 -141t-91 -74.5t-128 -22.5q-35 0 -77.5 5.5t-82 19t-66.5 38.5l37 4q-44 -38 -101 -52.5t-135 -14.5zM1106 0q-30 0 -42 22t-12 67q0 49 11 69.5
t43 20.5v-179zM678 19l59 160h505v-179h-170l35 48q41 -73 41 -144q0 -92 -61.5 -167.5t-165.5 -124.5q-89 -41 -194 -66.5t-198 -25.5q-147 0 -244 60.5t-144.5 165t-47.5 237.5q0 158 64 335l102 -25q-21 -74 -33 -140.5t-12 -124.5q0 -144 76.5 -228.5t244.5 -84.5
q78 0 169.5 18t170.5 48q69 24 111 54t42 60q0 22 -19.5 40t-57.5 32q-32 15 -79.5 23t-96.5 12t-89 4zM1242 0v179q31 0 42.5 -20.5t11.5 -69.5q0 -45 -12 -67t-42 -22z" />
    <glyph glyph-name="seen_yehHamzaabovear" unicode="&#xfeb3;&#xfe8a;" horiz-adv-x="2395" 
d="M1632 -5q-88 0 -173.5 11.5t-163.5 36.5l126 4q-34 -29 -80 -38t-122 -9h-113v179h156q63 0 83.5 25.5t34.5 99.5l46 246l119 -24l-43 -250q-6 -37 -14 -66t-17 -53l-13 28q33 -6 77.5 -9t90.5 -3q101 0 128.5 21.5t27.5 74.5l1 240h117l3 -235q1 -54 29.5 -77t128.5 -23
q49 0 79 5t46 13q21 12 21 38q0 18 -9 50q-15 44 -46.5 111t-82.5 148l114 76q56 -82 91.5 -183.5t35.5 -198.5q0 -89 -34 -141t-91 -74.5t-128 -22.5q-35 0 -77.5 5.5t-82 19t-66.5 38.5l37 4q-44 -38 -101 -52.5t-135 -14.5zM1106 0q-30 0 -42 22t-12 67q0 49 11 69.5
t43 20.5v-179zM678 19l59 160h505v-179h-170l35 48q41 -73 41 -144q0 -92 -61.5 -167.5t-165.5 -124.5q-89 -41 -194 -66.5t-198 -25.5q-147 0 -244 60.5t-144.5 165t-47.5 237.5q0 158 64 335l102 -25q-21 -74 -33 -140.5t-12 -124.5q0 -144 76.5 -228.5t244.5 -84.5
q78 0 169.5 18t170.5 48q69 24 111 54t42 60q0 22 -19.5 40t-57.5 32q-32 15 -79.5 23t-96.5 12t-89 4zM1242 0v179q31 0 42.5 -20.5t11.5 -69.5q0 -45 -12 -67t-42 -22zM50 387l-4 1l-8 80l94 38l5 -34q-40 25 -58 59t-18 71q0 70 45.5 119t119.5 49q39 0 72.5 -14.5
t59.5 -34.5l-28 -77q-25 11 -48.5 18.5t-46.5 9.5q-49 5 -73.5 -15.5t-24.5 -41.5q0 -28 36.5 -51.5t72.5 -16.5l47.5 9.5l87.5 17.5l-20 -101q-108 -20 -184 -41.5t-127 -44.5z" />
    <glyph glyph-name="seen_yehHamzaabovear.fina" unicode="&#xfeb4;&#xfe8a;" horiz-adv-x="2439" 
d="M1656 -8q-68 0 -137.5 9.5t-125.5 25.5l44 -1q-27 -9 -53.5 -14.5t-63 -8.5t-95.5 -3h-89v179h149q63 0 83.5 27t33.5 98l47 246l118 -24l-43 -252q-6 -34 -13 -63t-18 -54l-19 28q42 -7 94.5 -9.5t87.5 -2.5q90 0 119 20.5t29 71.5l1 244h118l2 -234q1 -61 31.5 -81
t120.5 -20q31 0 51 1.5t33 4.5q36 8 36 39q0 17 -8 50l-57 257l118 26l64 -275q13 -54 27 -76t58 -22h40v-179q-70 0 -116 15.5t-81 45.5l38 -2q-30 -28 -89.5 -46.5t-127.5 -18.5q-66 0 -120.5 16t-99.5 52l42 -2q-36 -33 -91 -50.5t-138 -17.5zM2439 0v179
q31 0 42.5 -20.5t11.5 -69.5q0 -45 -12 -67t-42 -22zM1136 0q-30 0 -42 22t-12 67q0 49 11 69.5t43 20.5v-179zM678 19l59 160h505v-179h-170l35 48q41 -73 41 -144q0 -92 -61.5 -167.5t-165.5 -124.5q-89 -41 -194 -66.5t-198 -25.5q-147 0 -244 60.5t-144.5 165
t-47.5 237.5q0 158 64 335l102 -25q-21 -74 -33 -140.5t-12 -124.5q0 -144 76.5 -228.5t244.5 -84.5q78 0 169.5 18t170.5 48q69 24 111 54t42 60q0 22 -19.5 40t-57.5 32q-32 15 -79.5 23t-96.5 12t-89 4zM1242 0v179q31 0 42.5 -20.5t11.5 -69.5q0 -45 -12 -67t-42 -22z
M50 387l-4 1l-8 80l94 38l5 -34q-40 25 -58 59t-18 71q0 70 45.5 119t119.5 49q39 0 72.5 -14.5t59.5 -34.5l-28 -77q-25 11 -48.5 18.5t-46.5 9.5q-49 5 -73.5 -15.5t-24.5 -41.5q0 -28 36.5 -51.5t72.5 -16.5l47.5 9.5l87.5 17.5l-20 -101q-108 -20 -184 -41.5t-127 -44.5
z" />
    <glyph glyph-name="seen_yehbarreear.fina.liga" unicode="&#xfeb4;&#xfbaf;" horiz-adv-x="1763" 
d="M729 -369q-94 0 -188.5 1.5t-177.5 7.5t-143 17q-27 8 -45 18.5t-30 22.5q-22 23 -40 74t-17 112q2 97 44 155.5t110.5 88.5t154 40.5t174.5 10.5h16.5h15.5q45 0 68 11.5t34.5 38.5t20.5 75l47 246l118 -24l-43 -252q-7 -41 -16 -75.5t-28 -66.5l-29 58q27 -6 64.5 -10
t76 -5.5t64.5 -1.5q90 0 119 20.5t29 71.5l2 244h117l2 -234q1 -61 31.5 -81t121.5 -20q30 0 50 1.5t33 4.5q36 8 36 39q0 17 -8 50l-57 257l118 26l64 -275q13 -54 27.5 -76t57.5 -22h40v-179q-78 0 -127.5 19.5t-87.5 58.5l69 -5q-27 -34 -90.5 -56.5t-138.5 -22.5
q-74 0 -133.5 19t-106.5 67l77 -5q-38 -40 -96 -61.5t-148 -21.5q-75 0 -151.5 11.5t-134.5 30.5l92 2q-35 -13 -63.5 -21t-67 -11.5t-104.5 -3.5q-80 0 -145.5 -6.5t-110.5 -25.5q-44 -17 -64 -44t-21 -61q-2 -20 7.5 -29.5t39.5 -14.5q61 -4 183 -6.5t277 -2.5
q119 0 238.5 4t223.5 12l-12 -178q-117 -9 -225 -13t-214 -4zM1763 0v179q32 0 43 -20.5t11 -69.5q0 -45 -12 -67t-42 -22z" />
    <glyph glyph-name="seen_yehbarreear.liga" unicode="&#xfeb3;&#xfbaf;" horiz-adv-x="1730" 
d="M732 -369q-95 0 -190 1.5t-178 7.5t-144 17q-27 8 -45 18.5t-30 22.5q-22 23 -40 74t-17 112q2 97 44 155.5t111 88.5t154.5 40.5t175.5 10.5h9h8q67 0 88 25.5t35 99.5l47 246l118 -24l-43 -250q-6 -43 -16 -77t-24 -62l-25 51q33 -7 84 -11t105 -4q102 0 129 21.5
t27 74.5l1 240h118l2 -235q1 -54 29.5 -77t129.5 -23q92 0 125 18q20 12 20 38q0 20 -9 50q-14 44 -45.5 111t-83.5 148l115 76q55 -82 90.5 -183.5t35.5 -198.5q0 -89 -33.5 -141t-91 -74.5t-127.5 -22.5q-41 0 -90 7t-92 26.5t-65 54.5l76 -3q-46 -49 -107.5 -67
t-146.5 -18q-81 0 -156.5 9t-148.5 30l93 9q-24 -17 -50.5 -26.5t-60.5 -13t-84 -3.5q-80 0 -147.5 -6.5t-115.5 -25.5q-44 -17 -64 -44t-21 -61q-2 -20 7.5 -29.5t39.5 -14.5q62 -4 184.5 -6.5t278.5 -2.5q119 0 238.5 4t223.5 12l-12 -178q-117 -9 -225 -13t-214 -4z" />
    <glyph glyph-name="uniFCFE.fina.loclFAR.isol" unicode="&#xfeb6;&#xfef2;" horiz-adv-x="2439" 
d="M1682 866l150 -112l-91 -115l-149 112zM1923 866l150 -112l-90 -115l-150 112zM1763 1092l150 -112l-90 -116l-150 112zM1656 -8q-68 0 -137.5 9.5t-125.5 25.5l44 -1q-27 -9 -53.5 -14.5t-63 -8.5t-95.5 -3h-89v179h149q63 0 83.5 27t33.5 98l47 246l118 -24l-43 -252
q-6 -34 -13 -63t-18 -54l-19 28q42 -7 94.5 -9.5t87.5 -2.5q90 0 119 20.5t29 71.5l1 244h118l2 -234q1 -61 31.5 -81t120.5 -20q31 0 51 1.5t33 4.5q36 8 36 39q0 17 -8 50l-57 257l118 26l64 -275q13 -54 27 -76t58 -22h40v-179q-70 0 -116 15.5t-81 45.5l38 -2
q-30 -28 -89.5 -46.5t-127.5 -18.5q-66 0 -120.5 16t-99.5 52l42 -2q-36 -33 -91 -50.5t-138 -17.5zM2439 0v179q31 0 42.5 -20.5t11.5 -69.5q0 -45 -12 -67t-42 -22zM1136 0q-30 0 -42 22t-12 67q0 49 11 69.5t43 20.5v-179zM678 19l59 160h505v-179h-170l35 48
q41 -73 41 -144q0 -92 -61.5 -167.5t-165.5 -124.5q-89 -41 -194 -66.5t-198 -25.5q-147 0 -244 60.5t-144.5 165t-47.5 237.5q0 158 64 335l102 -25q-21 -74 -33 -140.5t-12 -124.5q0 -144 76.5 -228.5t244.5 -84.5q78 0 169.5 18t170.5 48q69 24 111 54t42 60
q0 22 -19.5 40t-57.5 32q-32 15 -79.5 23t-96.5 12t-89 4zM1242 0v179q31 0 42.5 -20.5t11.5 -69.5q0 -45 -12 -67t-42 -22z" />
    <glyph glyph-name="uniFCFE.loclFAR.isol" unicode="&#x634;&#x64a;" horiz-adv-x="2395" 
d="M1661 867l150 -112l-91 -116l-149 112zM1902 867l150 -112l-90 -116l-150 112zM1742 1092l150 -111l-91 -116l-149 112zM1632 -5q-88 0 -173.5 11.5t-163.5 36.5l126 4q-34 -29 -80 -38t-122 -9h-113v179h156q63 0 83.5 25.5t34.5 99.5l46 246l119 -24l-43 -250
q-6 -37 -14 -66t-17 -53l-13 28q33 -6 77.5 -9t90.5 -3q101 0 128.5 21.5t27.5 74.5l1 240h117l3 -235q1 -54 29.5 -77t128.5 -23q49 0 79 5t46 13q21 12 21 38q0 18 -9 50q-15 44 -46.5 111t-82.5 148l114 76q56 -82 91.5 -183.5t35.5 -198.5q0 -89 -34 -141t-91 -74.5
t-128 -22.5q-35 0 -77.5 5.5t-82 19t-66.5 38.5l37 4q-44 -38 -101 -52.5t-135 -14.5zM1106 0q-30 0 -42 22t-12 67q0 49 11 69.5t43 20.5v-179zM678 19l59 160h505v-179h-170l35 48q41 -73 41 -144q0 -92 -61.5 -167.5t-165.5 -124.5q-89 -41 -194 -66.5t-198 -25.5
q-147 0 -244 60.5t-144.5 165t-47.5 237.5q0 158 64 335l102 -25q-21 -74 -33 -140.5t-12 -124.5q0 -144 76.5 -228.5t244.5 -84.5q78 0 169.5 18t170.5 48q69 24 111 54t42 60q0 22 -19.5 40t-57.5 32q-32 15 -79.5 23t-96.5 12t-89 4zM1242 0v179q31 0 42.5 -20.5
t11.5 -69.5q0 -45 -12 -67t-42 -22z" />
    <glyph glyph-name="sheen_yehHamzaabovear" unicode="&#xfeb7;&#xfe8a;" horiz-adv-x="2395" 
d="M1661 867l150 -112l-91 -116l-149 112zM1902 867l150 -112l-90 -116l-150 112zM1742 1092l150 -111l-91 -116l-149 112zM1632 -5q-88 0 -173.5 11.5t-163.5 36.5l126 4q-34 -29 -80 -38t-122 -9h-113v179h156q63 0 83.5 25.5t34.5 99.5l46 246l119 -24l-43 -250
q-6 -37 -14 -66t-17 -53l-13 28q33 -6 77.5 -9t90.5 -3q101 0 128.5 21.5t27.5 74.5l1 240h117l3 -235q1 -54 29.5 -77t128.5 -23q49 0 79 5t46 13q21 12 21 38q0 18 -9 50q-15 44 -46.5 111t-82.5 148l114 76q56 -82 91.5 -183.5t35.5 -198.5q0 -89 -34 -141t-91 -74.5
t-128 -22.5q-35 0 -77.5 5.5t-82 19t-66.5 38.5l37 4q-44 -38 -101 -52.5t-135 -14.5zM1106 0q-30 0 -42 22t-12 67q0 49 11 69.5t43 20.5v-179zM678 19l59 160h505v-179h-170l35 48q41 -73 41 -144q0 -92 -61.5 -167.5t-165.5 -124.5q-89 -41 -194 -66.5t-198 -25.5
q-147 0 -244 60.5t-144.5 165t-47.5 237.5q0 158 64 335l102 -25q-21 -74 -33 -140.5t-12 -124.5q0 -144 76.5 -228.5t244.5 -84.5q78 0 169.5 18t170.5 48q69 24 111 54t42 60q0 22 -19.5 40t-57.5 32q-32 15 -79.5 23t-96.5 12t-89 4zM1242 0v179q31 0 42.5 -20.5
t11.5 -69.5q0 -45 -12 -67t-42 -22zM50 387l-4 1l-8 80l94 38l5 -34q-40 24 -58 58.5t-18 71.5q0 70 45.5 118.5t119.5 48.5q39 0 72.5 -14.5t59.5 -34.5l-29 -76q-24 11 -47.5 18.5t-46.5 9.5q-49 5 -73.5 -15.5t-24.5 -41.5q0 -28 36.5 -51.5t71.5 -16.5l47.5 9.5
t88.5 17.5l-20 -101q-108 -20 -184 -41.5t-127 -44.5z" />
    <glyph glyph-name="sheen_yehHamzaabovear.fina" unicode="&#xfeb8;&#xfe8a;" horiz-adv-x="2439" 
d="M1682 866l150 -112l-91 -115l-149 112zM1923 866l150 -112l-90 -115l-150 112zM1763 1092l150 -112l-90 -116l-150 112zM1656 -8q-68 0 -137.5 9.5t-125.5 25.5l44 -1q-27 -9 -53.5 -14.5t-63 -8.5t-95.5 -3h-89v179h149q63 0 83.5 27t33.5 98l47 246l118 -24l-43 -252
q-6 -34 -13 -63t-18 -54l-19 28q42 -7 94.5 -9.5t87.5 -2.5q90 0 119 20.5t29 71.5l1 244h118l2 -234q1 -61 31.5 -81t120.5 -20q31 0 51 1.5t33 4.5q36 8 36 39q0 17 -8 50l-57 257l118 26l64 -275q13 -54 27 -76t58 -22h40v-179q-70 0 -116 15.5t-81 45.5l38 -2
q-30 -28 -89.5 -46.5t-127.5 -18.5q-66 0 -120.5 16t-99.5 52l42 -2q-36 -33 -91 -50.5t-138 -17.5zM2439 0v179q31 0 42.5 -20.5t11.5 -69.5q0 -45 -12 -67t-42 -22zM1136 0q-30 0 -42 22t-12 67q0 49 11 69.5t43 20.5v-179zM678 19l59 160h505v-179h-170l35 48
q41 -73 41 -144q0 -92 -61.5 -167.5t-165.5 -124.5q-89 -41 -194 -66.5t-198 -25.5q-147 0 -244 60.5t-144.5 165t-47.5 237.5q0 158 64 335l102 -25q-21 -74 -33 -140.5t-12 -124.5q0 -144 76.5 -228.5t244.5 -84.5q78 0 169.5 18t170.5 48q69 24 111 54t42 60
q0 22 -19.5 40t-57.5 32q-32 15 -79.5 23t-96.5 12t-89 4zM1242 0v179q31 0 42.5 -20.5t11.5 -69.5q0 -45 -12 -67t-42 -22zM50 387l-4 1l-8 80l94 38l5 -34q-40 24 -58 58.5t-18 71.5q0 70 45.5 118.5t119.5 48.5q39 0 72.5 -14.5t59.5 -34.5l-29 -76q-24 11 -47.5 18.5
t-46.5 9.5q-49 5 -73.5 -15.5t-24.5 -41.5q0 -28 36.5 -51.5t71.5 -16.5l47.5 9.5t88.5 17.5l-20 -101q-108 -20 -184 -41.5t-127 -44.5z" />
    <glyph glyph-name="sheen_yehbarreear.fina.liga" unicode="&#xfeb8;&#xfbaf;" horiz-adv-x="1763" 
d="M1006 866l150 -112l-91 -115l-149 112zM1247 866l151 -112l-91 -115l-149 112zM1087 1092l150 -112l-90 -116l-149 112zM729 -369q-94 0 -188.5 1.5t-177.5 7.5t-143 17q-27 8 -45 18.5t-30 22.5q-22 23 -40 74t-17 112q2 97 44 155.5t110.5 88.5t154 40.5t174.5 10.5
h16.5h15.5q45 0 68 11.5t34.5 38.5t20.5 75l47 246l118 -24l-43 -252q-7 -41 -16 -75.5t-28 -66.5l-29 58q27 -6 64.5 -10t76 -5.5t64.5 -1.5q90 0 119 20.5t29 71.5l2 244h117l2 -234q1 -61 31.5 -81t121.5 -20q30 0 50 1.5t33 4.5q36 8 36 39q0 17 -8 50l-57 257l118 26
l64 -275q13 -54 27.5 -76t57.5 -22h40v-179q-78 0 -127.5 19.5t-87.5 58.5l69 -5q-27 -34 -90.5 -56.5t-138.5 -22.5q-74 0 -133.5 19t-106.5 67l77 -5q-38 -40 -96 -61.5t-148 -21.5q-75 0 -151.5 11.5t-134.5 30.5l92 2q-35 -13 -63.5 -21t-67 -11.5t-104.5 -3.5
q-80 0 -145.5 -6.5t-110.5 -25.5q-44 -17 -64 -44t-21 -61q-2 -20 7.5 -29.5t39.5 -14.5q61 -4 183 -6.5t277 -2.5q119 0 238.5 4t223.5 12l-12 -178q-117 -9 -225 -13t-214 -4zM1763 0v179q32 0 43 -20.5t11 -69.5q0 -45 -12 -67t-42 -22z" />
    <glyph glyph-name="sheen_yehbarreear.liga" unicode="&#xfeb7;&#xfbaf;" horiz-adv-x="1730" 
d="M994 867l150 -112l-90 -116l-150 112zM1236 867l150 -112l-91 -116l-149 112zM1075 1092l150 -111l-90 -116l-149 112zM732 -369q-95 0 -190 1.5t-178 7.5t-144 17q-27 8 -45 18.5t-30 22.5q-22 23 -40 74t-17 112q2 97 44 155.5t111 88.5t154.5 40.5t175.5 10.5h9h8
q67 0 88 25.5t35 99.5l47 246l118 -24l-43 -250q-6 -43 -16 -77t-24 -62l-25 51q33 -7 84 -11t105 -4q102 0 129 21.5t27 74.5l1 240h118l2 -235q1 -54 29.5 -77t129.5 -23q92 0 125 18q20 12 20 38q0 20 -9 50q-14 44 -45.5 111t-83.5 148l115 76q55 -82 90.5 -183.5
t35.5 -198.5q0 -89 -33.5 -141t-91 -74.5t-127.5 -22.5q-41 0 -90 7t-92 26.5t-65 54.5l76 -3q-46 -49 -107.5 -67t-146.5 -18q-81 0 -156.5 9t-148.5 30l93 9q-24 -17 -50.5 -26.5t-60.5 -13t-84 -3.5q-80 0 -147.5 -6.5t-115.5 -25.5q-44 -17 -64 -44t-21 -61
q-2 -20 7.5 -29.5t39.5 -14.5q62 -4 184.5 -6.5t278.5 -2.5q119 0 238.5 4t223.5 12l-12 -178q-117 -9 -225 -13t-214 -4z" />
    <glyph glyph-name="uniFD06.fina.loclFAR.isol" unicode="&#xfeba;&#xfef2;" horiz-adv-x="2439" 
d="M2439 0q-36 0 -127 1.5t-219 8t-273 20.5l423 149h196v-179zM2439 0v179q32 0 43.5 -20.5t11.5 -69.5q0 -45 -12.5 -67t-42.5 -22zM1751 -12q-35 0 -96 3t-125.5 6t-110.5 3h-421v179h259q33 0 41 11.5t-9 52.5l-131 313l137 10l126 -339l-37 12q142 179 297 284t293 105
q89 0 166 -45t124 -131.5t47 -209.5q0 -37 -9 -76t-23 -68q-18 -35 -41 -49t-70 -25q-69 -15 -177.5 -25.5t-239.5 -10.5zM1447 142l-6 33q89 -4 170.5 -7t156.5 -3q121 0 220 7.5t162 24.5q35 9 45.5 21t10.5 26q0 54 -37.5 100t-100.5 74t-140 28q-109 0 -231.5 -75
t-249.5 -229zM998 0q-30 0 -42 22t-12 67q0 49 11 69.5t43 20.5v-179zM678 19l59 160h505v-179h-170l35 48q41 -73 41 -144q0 -92 -61.5 -167.5t-165.5 -124.5q-89 -41 -194 -66.5t-198 -25.5q-147 0 -244 60.5t-144.5 165t-47.5 237.5q0 158 64 335l102 -25
q-21 -74 -33 -140.5t-12 -124.5q0 -144 76.5 -228.5t244.5 -84.5q78 0 169.5 18t170.5 48q69 24 111 54t42 60q0 22 -19.5 40t-57.5 32q-32 15 -79.5 23t-96.5 12t-89 4zM1242 0v179q31 0 42.5 -20.5t11.5 -69.5q0 -45 -12 -67t-42 -22z" />
    <glyph glyph-name="uniFD06.loclFAR.isol" unicode="&#x635;&#x64a;" horiz-adv-x="2394" 
d="M1751 -12q-35 0 -96 3t-125.5 6t-110.5 3h-421v179h259q33 0 41 11.5t-9 52.5l-131 313l137 10l126 -339l-37 12q142 179 297 284t293 105q89 0 166 -45t124 -131.5t47 -209.5q0 -37 -9 -76t-23 -68q-18 -35 -41 -49t-70 -25q-69 -15 -177.5 -25.5t-239.5 -10.5z
M1447 142l-6 33q89 -4 170.5 -7t156.5 -3q121 0 220 7.5t162 24.5q35 9 45.5 21t10.5 26q0 54 -37.5 100t-100.5 74t-140 28q-109 0 -231.5 -75t-249.5 -229zM998 0q-30 0 -42 22t-12 67q0 49 11 69.5t43 20.5v-179zM678 19l59 160h505v-179h-170l35 48q41 -73 41 -144
q0 -92 -61.5 -167.5t-165.5 -124.5q-89 -41 -194 -66.5t-198 -25.5q-147 0 -244 60.5t-144.5 165t-47.5 237.5q0 158 64 335l102 -25q-21 -74 -33 -140.5t-12 -124.5q0 -144 76.5 -228.5t244.5 -84.5q78 0 169.5 18t170.5 48q69 24 111 54t42 60q0 22 -19.5 40t-57.5 32
q-32 15 -79.5 23t-96.5 12t-89 4zM1242 0v179q31 0 42.5 -20.5t11.5 -69.5q0 -45 -12 -67t-42 -22z" />
    <glyph glyph-name="sad_yehHamzaabovear" unicode="&#xfebb;&#xfe8a;" horiz-adv-x="2394" 
d="M1751 -12q-35 0 -96 3t-125.5 6t-110.5 3h-421v179h259q33 0 41 11.5t-9 52.5l-131 313l137 10l126 -339l-37 12q142 179 297 284t293 105q89 0 166 -45t124 -131.5t47 -209.5q0 -37 -9 -76t-23 -68q-18 -35 -41 -49t-70 -25q-69 -15 -177.5 -25.5t-239.5 -10.5z
M1447 142l-6 33q89 -4 170.5 -7t156.5 -3q121 0 220 7.5t162 24.5q35 9 45.5 21t10.5 26q0 54 -37.5 100t-100.5 74t-140 28q-109 0 -231.5 -75t-249.5 -229zM998 0q-30 0 -42 22t-12 67q0 49 11 69.5t43 20.5v-179zM678 19l59 160h505v-179h-170l35 48q41 -73 41 -144
q0 -92 -61.5 -167.5t-165.5 -124.5q-89 -41 -194 -66.5t-198 -25.5q-147 0 -244 60.5t-144.5 165t-47.5 237.5q0 158 64 335l102 -25q-21 -74 -33 -140.5t-12 -124.5q0 -144 76.5 -228.5t244.5 -84.5q78 0 169.5 18t170.5 48q69 24 111 54t42 60q0 22 -19.5 40t-57.5 32
q-32 15 -79.5 23t-96.5 12t-89 4zM1242 0v179q31 0 42.5 -20.5t11.5 -69.5q0 -45 -12 -67t-42 -22zM50 387l-4 1l-8 80l94 38l5 -34q-40 25 -58 59t-18 71q0 70 45.5 119t119.5 49q39 0 72.5 -14.5t59.5 -34.5l-28 -77q-25 11 -48.5 18.5t-46.5 9.5q-49 5 -73.5 -15.5
t-24.5 -41.5q0 -28 36.5 -51.5t72.5 -16.5l47.5 9.5l87.5 17.5l-20 -101q-108 -20 -184 -41.5t-127 -44.5z" />
    <glyph glyph-name="sad_yehHamzaabovear.fina" unicode="&#xfebc;&#xfe8a;" horiz-adv-x="2439" 
d="M2439 0q-36 0 -127 1.5t-219 8t-273 20.5l423 149h196v-179zM2439 0v179q32 0 43.5 -20.5t11.5 -69.5q0 -45 -12.5 -67t-42.5 -22zM1751 -12q-35 0 -96 3t-125.5 6t-110.5 3h-421v179h259q33 0 41 11.5t-9 52.5l-131 313l137 10l126 -339l-37 12q142 179 297 284t293 105
q89 0 166 -45t124 -131.5t47 -209.5q0 -37 -9 -76t-23 -68q-18 -35 -41 -49t-70 -25q-69 -15 -177.5 -25.5t-239.5 -10.5zM1447 142l-6 33q89 -4 170.5 -7t156.5 -3q121 0 220 7.5t162 24.5q35 9 45.5 21t10.5 26q0 54 -37.5 100t-100.5 74t-140 28q-109 0 -231.5 -75
t-249.5 -229zM998 0q-30 0 -42 22t-12 67q0 49 11 69.5t43 20.5v-179zM678 19l59 160h505v-179h-170l35 48q41 -73 41 -144q0 -92 -61.5 -167.5t-165.5 -124.5q-89 -41 -194 -66.5t-198 -25.5q-147 0 -244 60.5t-144.5 165t-47.5 237.5q0 158 64 335l102 -25
q-21 -74 -33 -140.5t-12 -124.5q0 -144 76.5 -228.5t244.5 -84.5q78 0 169.5 18t170.5 48q69 24 111 54t42 60q0 22 -19.5 40t-57.5 32q-32 15 -79.5 23t-96.5 12t-89 4zM1242 0v179q31 0 42.5 -20.5t11.5 -69.5q0 -45 -12 -67t-42 -22zM50 387l-4 1l-8 80l94 38l5 -34
q-40 25 -58 59t-18 71q0 70 45.5 119t119.5 49q39 0 72.5 -14.5t59.5 -34.5l-28 -77q-25 11 -48.5 18.5t-46.5 9.5q-49 5 -73.5 -15.5t-24.5 -41.5q0 -28 36.5 -51.5t72.5 -16.5l47.5 9.5l87.5 17.5l-20 -101q-108 -20 -184 -41.5t-127 -44.5z" />
    <glyph glyph-name="uniFD08.fina.loclFAR.isol" unicode="&#xfebe;&#xfef2;" horiz-adv-x="2439" 
d="M2439 0q-36 0 -127 1.5t-219 8t-273 20.5l423 149h196v-179zM2439 0v179q32 0 43.5 -20.5t11.5 -69.5q0 -45 -12.5 -67t-42.5 -22zM1751 -12q-35 0 -96 3t-125.5 6t-110.5 3h-421v179h259q33 0 41 11.5t-9 52.5l-131 313l137 10l126 -339l-37 12q142 179 297 284t293 105
q89 0 166 -45t124 -131.5t47 -209.5q0 -37 -9 -76t-23 -68q-18 -35 -41 -49t-70 -25q-69 -15 -177.5 -25.5t-239.5 -10.5zM1447 142l-6 33q89 -4 170.5 -7t156.5 -3q121 0 220 7.5t162 24.5q35 9 45.5 21t10.5 26q0 54 -37.5 100t-100.5 74t-140 28q-109 0 -231.5 -75
t-249.5 -229zM998 0q-30 0 -42 22t-12 67q0 49 11 69.5t43 20.5v-179zM1829 757l-163 121l98 125l162 -121zM678 19l59 160h505v-179h-170l35 48q41 -73 41 -144q0 -92 -61.5 -167.5t-165.5 -124.5q-89 -41 -194 -66.5t-198 -25.5q-147 0 -244 60.5t-144.5 165t-47.5 237.5
q0 158 64 335l102 -25q-21 -74 -33 -140.5t-12 -124.5q0 -144 76.5 -228.5t244.5 -84.5q78 0 169.5 18t170.5 48q69 24 111 54t42 60q0 22 -19.5 40t-57.5 32q-32 15 -79.5 23t-96.5 12t-89 4zM1242 0v179q31 0 42.5 -20.5t11.5 -69.5q0 -45 -12 -67t-42 -22z" />
    <glyph glyph-name="uniFD08.loclFAR.isol" unicode="&#x636;&#x64a;" horiz-adv-x="2394" 
d="M1751 -12q-35 0 -96 3t-125.5 6t-110.5 3h-421v179h259q33 0 41 11.5t-9 52.5l-131 313l137 10l126 -339l-37 12q142 179 297 284t293 105q89 0 166 -45t124 -131.5t47 -209.5q0 -37 -9 -76t-23 -68q-18 -35 -41 -49t-70 -25q-69 -15 -177.5 -25.5t-239.5 -10.5z
M1447 142l-6 33q89 -4 170.5 -7t156.5 -3q121 0 220 7.5t162 24.5q35 9 45.5 21t10.5 26q0 54 -37.5 100t-100.5 74t-140 28q-109 0 -231.5 -75t-249.5 -229zM998 0q-30 0 -42 22t-12 67q0 49 11 69.5t43 20.5v-179zM1829 757l-163 121l98 125l162 -121zM678 19l59 160h505
v-179h-170l35 48q41 -73 41 -144q0 -92 -61.5 -167.5t-165.5 -124.5q-89 -41 -194 -66.5t-198 -25.5q-147 0 -244 60.5t-144.5 165t-47.5 237.5q0 158 64 335l102 -25q-21 -74 -33 -140.5t-12 -124.5q0 -144 76.5 -228.5t244.5 -84.5q78 0 169.5 18t170.5 48q69 24 111 54
t42 60q0 22 -19.5 40t-57.5 32q-32 15 -79.5 23t-96.5 12t-89 4zM1242 0v179q31 0 42.5 -20.5t11.5 -69.5q0 -45 -12 -67t-42 -22z" />
    <glyph glyph-name="dad_yehHamzaabovear" unicode="&#xfebf;&#xfe8a;" horiz-adv-x="2394" 
d="M1751 -12q-35 0 -96 3t-125.5 6t-110.5 3h-421v179h259q33 0 41 11.5t-9 52.5l-131 313l137 10l126 -339l-37 12q142 179 297 284t293 105q89 0 166 -45t124 -131.5t47 -209.5q0 -37 -9 -76t-23 -68q-18 -35 -41 -49t-70 -25q-69 -15 -177.5 -25.5t-239.5 -10.5z
M1447 142l-6 33q89 -4 170.5 -7t156.5 -3q121 0 220 7.5t162 24.5q35 9 45.5 21t10.5 26q0 54 -37.5 100t-100.5 74t-140 28q-109 0 -231.5 -75t-249.5 -229zM998 0q-30 0 -42 22t-12 67q0 49 11 69.5t43 20.5v-179zM1829 757l-163 121l98 125l162 -121zM678 19l59 160h505
v-179h-170l35 48q41 -73 41 -144q0 -92 -61.5 -167.5t-165.5 -124.5q-89 -41 -194 -66.5t-198 -25.5q-147 0 -244 60.5t-144.5 165t-47.5 237.5q0 158 64 335l102 -25q-21 -74 -33 -140.5t-12 -124.5q0 -144 76.5 -228.5t244.5 -84.5q78 0 169.5 18t170.5 48q69 24 111 54
t42 60q0 22 -19.5 40t-57.5 32q-32 15 -79.5 23t-96.5 12t-89 4zM1242 0v179q31 0 42.5 -20.5t11.5 -69.5q0 -45 -12 -67t-42 -22zM50 387l-4 1l-8 80l94 38l5 -34q-40 25 -58 59t-18 71q0 70 45.5 119t119.5 49q39 0 72.5 -14.5t59.5 -34.5l-28 -77q-25 11 -48.5 18.5
t-46.5 9.5q-49 5 -73.5 -15.5t-24.5 -41.5q0 -28 36.5 -51.5t72.5 -16.5l47.5 9.5l87.5 17.5l-20 -101q-108 -20 -184 -41.5t-127 -44.5z" />
    <glyph glyph-name="dad_yehHamzaabovear.fina" unicode="&#xfec0;&#xfe8a;" horiz-adv-x="2439" 
d="M2439 0q-36 0 -127 1.5t-219 8t-273 20.5l423 149h196v-179zM2439 0v179q32 0 43.5 -20.5t11.5 -69.5q0 -45 -12.5 -67t-42.5 -22zM1751 -12q-35 0 -96 3t-125.5 6t-110.5 3h-421v179h259q33 0 41 11.5t-9 52.5l-131 313l137 10l126 -339l-37 12q142 179 297 284t293 105
q89 0 166 -45t124 -131.5t47 -209.5q0 -37 -9 -76t-23 -68q-18 -35 -41 -49t-70 -25q-69 -15 -177.5 -25.5t-239.5 -10.5zM1447 142l-6 33q89 -4 170.5 -7t156.5 -3q121 0 220 7.5t162 24.5q35 9 45.5 21t10.5 26q0 54 -37.5 100t-100.5 74t-140 28q-109 0 -231.5 -75
t-249.5 -229zM998 0q-30 0 -42 22t-12 67q0 49 11 69.5t43 20.5v-179zM1829 757l-163 121l98 125l162 -121zM678 19l59 160h505v-179h-170l35 48q41 -73 41 -144q0 -92 -61.5 -167.5t-165.5 -124.5q-89 -41 -194 -66.5t-198 -25.5q-147 0 -244 60.5t-144.5 165t-47.5 237.5
q0 158 64 335l102 -25q-21 -74 -33 -140.5t-12 -124.5q0 -144 76.5 -228.5t244.5 -84.5q78 0 169.5 18t170.5 48q69 24 111 54t42 60q0 22 -19.5 40t-57.5 32q-32 15 -79.5 23t-96.5 12t-89 4zM1242 0v179q31 0 42.5 -20.5t11.5 -69.5q0 -45 -12 -67t-42 -22zM50 387l-4 1
l-8 80l94 38l5 -34q-40 25 -58 59t-18 71q0 70 45.5 119t119.5 49q39 0 72.5 -14.5t59.5 -34.5l-28 -77q-25 11 -48.5 18.5t-46.5 9.5q-49 5 -73.5 -15.5t-24.5 -41.5q0 -28 36.5 -51.5t72.5 -16.5l47.5 9.5l87.5 17.5l-20 -101q-108 -20 -184 -41.5t-127 -44.5z" />
    <glyph glyph-name="uniFCF6.fina.loclFAR.isol" unicode="&#xfec2;&#xfef2;" horiz-adv-x="2449" 
d="M2449 0q-36 0 -127.5 1.5t-218.5 8t-273 20.5l422 149h197v-179zM2449 0v179q32 0 43 -20.5t11 -69.5q0 -45 -12 -67t-42 -22zM1776 -11q-49 0 -120 3t-147.5 5.5t-141.5 2.5h-261v179h236l-76 -32q67 34 76.5 88t-0.5 129l-94 686l138 10l62 -560q5 -42 7.5 -80t2 -70.5
t-5.5 -61.5l-17 9q79 89 169.5 164.5t183.5 121t180 45.5q103 0 180.5 -48t121.5 -135t44 -203q0 -46 -10 -85t-26 -67q-16 -27 -37.5 -40t-62.5 -24q-68 -16 -176.5 -26.5t-225.5 -10.5zM1453 144l-6 26q82 -3 155.5 -4t168.5 -1q76 0 148 3.5t133.5 10.5t103.5 18
q32 9 42.5 21.5t10.5 28.5q0 54 -40 99t-103.5 72.5t-133.5 27.5q-90 0 -175.5 -43t-162 -112t-141.5 -147zM1106 0q-30 0 -42 22t-12 67q0 49 11 69.5t43 20.5v-179zM678 19l59 160h505v-179h-170l35 48q41 -73 41 -144q0 -92 -61.5 -167.5t-165.5 -124.5
q-89 -41 -194 -66.5t-198 -25.5q-147 0 -244 60.5t-144.5 165t-47.5 237.5q0 158 64 335l102 -25q-21 -74 -33 -140.5t-12 -124.5q0 -144 76.5 -228.5t244.5 -84.5q78 0 169.5 18t170.5 48q69 24 111 54t42 60q0 22 -19.5 40t-57.5 32q-32 15 -79.5 23t-96.5 12t-89 4z
M1242 0v179q31 0 42.5 -20.5t11.5 -69.5q0 -45 -12 -67t-42 -22z" />
    <glyph glyph-name="uniFCF6.loclFAR.isol" unicode="&#x637;&#x64a;" horiz-adv-x="2407" 
d="M1776 -11q-49 0 -120 3t-147.5 5.5t-141.5 2.5h-261v179h236l-76 -32q67 34 76.5 88t-0.5 129l-94 686l138 10l62 -560q5 -42 7.5 -80t2 -70.5t-5.5 -61.5l-17 9q79 89 169.5 164.5t183.5 121t180 45.5q103 0 180.5 -48t121.5 -135t44 -203q0 -46 -10 -85t-26 -67
q-16 -27 -37.5 -40t-62.5 -24q-68 -16 -176.5 -26.5t-225.5 -10.5zM1453 144l-6 26q82 -3 155.5 -4t168.5 -1q76 0 148 3.5t133.5 10.5t103.5 18q32 9 42.5 21.5t10.5 28.5q0 54 -40 99t-103.5 72.5t-133.5 27.5q-90 0 -175.5 -43t-162 -112t-141.5 -147zM1106 0
q-30 0 -42 22t-12 67q0 49 11 69.5t43 20.5v-179zM678 19l59 160h505v-179h-170l35 48q41 -73 41 -144q0 -92 -61.5 -167.5t-165.5 -124.5q-89 -41 -194 -66.5t-198 -25.5q-147 0 -244 60.5t-144.5 165t-47.5 237.5q0 158 64 335l102 -25q-21 -74 -33 -140.5t-12 -124.5
q0 -144 76.5 -228.5t244.5 -84.5q78 0 169.5 18t170.5 48q69 24 111 54t42 60q0 22 -19.5 40t-57.5 32q-32 15 -79.5 23t-96.5 12t-89 4zM1242 0v179q31 0 42.5 -20.5t11.5 -69.5q0 -45 -12 -67t-42 -22z" />
    <glyph glyph-name="tah_yehHamzaabovear" unicode="&#xfec3;&#xfe8a;" horiz-adv-x="2407" 
d="M1776 -11q-49 0 -120 3t-147.5 5.5t-141.5 2.5h-261v179h236l-76 -32q67 34 76.5 88t-0.5 129l-94 686l138 10l62 -560q5 -42 7.5 -80t2 -70.5t-5.5 -61.5l-17 9q79 89 169.5 164.5t183.5 121t180 45.5q103 0 180.5 -48t121.5 -135t44 -203q0 -46 -10 -85t-26 -67
q-16 -27 -37.5 -40t-62.5 -24q-68 -16 -176.5 -26.5t-225.5 -10.5zM1453 144l-6 26q82 -3 155.5 -4t168.5 -1q76 0 148 3.5t133.5 10.5t103.5 18q32 9 42.5 21.5t10.5 28.5q0 54 -40 99t-103.5 72.5t-133.5 27.5q-90 0 -175.5 -43t-162 -112t-141.5 -147zM1106 0
q-30 0 -42 22t-12 67q0 49 11 69.5t43 20.5v-179zM678 19l59 160h505v-179h-170l35 48q41 -73 41 -144q0 -92 -61.5 -167.5t-165.5 -124.5q-89 -41 -194 -66.5t-198 -25.5q-147 0 -244 60.5t-144.5 165t-47.5 237.5q0 158 64 335l102 -25q-21 -74 -33 -140.5t-12 -124.5
q0 -144 76.5 -228.5t244.5 -84.5q78 0 169.5 18t170.5 48q69 24 111 54t42 60q0 22 -19.5 40t-57.5 32q-32 15 -79.5 23t-96.5 12t-89 4zM1242 0v179q31 0 42.5 -20.5t11.5 -69.5q0 -45 -12 -67t-42 -22zM50 387l-4 1l-8 80l94 38l5 -34q-40 25 -58 59t-18 71q0 70 45.5 119
t119.5 49q39 0 72.5 -14.5t59.5 -34.5l-28 -77q-25 11 -48.5 18.5t-46.5 9.5q-49 5 -73.5 -15.5t-24.5 -41.5q0 -28 36.5 -51.5t72.5 -16.5l47.5 9.5l87.5 17.5l-20 -101q-108 -20 -184 -41.5t-127 -44.5z" />
    <glyph glyph-name="tah_yehHamzaabovear.fina" unicode="&#xfec4;&#xfe8a;" horiz-adv-x="2449" 
d="M2449 0q-36 0 -127.5 1.5t-218.5 8t-273 20.5l422 149h197v-179zM2449 0v179q32 0 43 -20.5t11 -69.5q0 -45 -12 -67t-42 -22zM1776 -11q-49 0 -120 3t-147.5 5.5t-141.5 2.5h-261v179h236l-76 -32q67 34 76.5 88t-0.5 129l-94 686l138 10l62 -560q5 -42 7.5 -80t2 -70.5
t-5.5 -61.5l-17 9q79 89 169.5 164.5t183.5 121t180 45.5q103 0 180.5 -48t121.5 -135t44 -203q0 -46 -10 -85t-26 -67q-16 -27 -37.5 -40t-62.5 -24q-68 -16 -176.5 -26.5t-225.5 -10.5zM1453 144l-6 26q82 -3 155.5 -4t168.5 -1q76 0 148 3.5t133.5 10.5t103.5 18
q32 9 42.5 21.5t10.5 28.5q0 54 -40 99t-103.5 72.5t-133.5 27.5q-90 0 -175.5 -43t-162 -112t-141.5 -147zM1106 0q-30 0 -42 22t-12 67q0 49 11 69.5t43 20.5v-179zM678 19l59 160h505v-179h-170l35 48q41 -73 41 -144q0 -92 -61.5 -167.5t-165.5 -124.5
q-89 -41 -194 -66.5t-198 -25.5q-147 0 -244 60.5t-144.5 165t-47.5 237.5q0 158 64 335l102 -25q-21 -74 -33 -140.5t-12 -124.5q0 -144 76.5 -228.5t244.5 -84.5q78 0 169.5 18t170.5 48q69 24 111 54t42 60q0 22 -19.5 40t-57.5 32q-32 15 -79.5 23t-96.5 12t-89 4z
M1242 0v179q31 0 42.5 -20.5t11.5 -69.5q0 -45 -12 -67t-42 -22zM50 387l-4 1l-8 80l94 38l5 -34q-40 25 -58 59t-18 71q0 70 45.5 119t119.5 49q39 0 72.5 -14.5t59.5 -34.5l-28 -77q-25 11 -48.5 18.5t-46.5 9.5q-49 5 -73.5 -15.5t-24.5 -41.5q0 -28 36.5 -51.5
t72.5 -16.5l47.5 9.5l87.5 17.5l-20 -101q-108 -20 -184 -41.5t-127 -44.5z" />
    <glyph glyph-name="zah_alefMaksuraar" unicode="&#xfec7;&#xfef0;" horiz-adv-x="2407" 
d="M678 19l59 160h505v-179h-170l35 48q41 -73 41 -144q0 -92 -61.5 -167.5t-165.5 -124.5q-89 -41 -194 -66.5t-198 -25.5q-147 0 -244 60.5t-144.5 165t-47.5 237.5q0 158 64 335l102 -25q-21 -74 -33 -140.5t-12 -124.5q0 -144 76.5 -228.5t244.5 -84.5q78 0 169.5 18
t170.5 48q69 24 111 54t42 60q0 22 -19.5 40t-57.5 32q-32 15 -79.5 23t-96.5 12t-89 4zM1242 0v179q31 0 42.5 -20.5t11.5 -69.5q0 -45 -12 -67t-42 -22zM1776 -11q-49 0 -120 3t-147.5 5.5t-141.5 2.5h-261v179h236l-76 -32q67 34 76.5 88t-0.5 129l-94 686l138 10
l62 -560q5 -42 7.5 -80t2 -70.5t-5.5 -61.5l-17 9q79 89 169.5 164.5t183.5 121t180 45.5q103 0 180.5 -48t121.5 -135t44 -203q0 -46 -10 -85t-26 -67q-16 -27 -37.5 -40t-62.5 -24q-68 -16 -176.5 -26.5t-225.5 -10.5zM1453 144l-6 26q82 -3 155.5 -4t168.5 -1
q76 0 148 3.5t133.5 10.5t103.5 18q32 9 42.5 21.5t10.5 28.5q0 54 -40 99t-103.5 72.5t-133.5 27.5q-90 0 -175.5 -43t-162 -112t-141.5 -147zM1106 0q-30 0 -42 22t-12 67q0 49 11 69.5t43 20.5v-179zM1817 757l-163 121l98 125l162 -121z" />
    <glyph glyph-name="zah_alefMaksuraar.fina" unicode="&#xfec8;&#xfef0;" horiz-adv-x="2449" 
d="M2449 0q-36 0 -127.5 1.5t-218.5 8t-273 20.5l422 149h197v-179zM2449 0v179q32 0 43 -20.5t11 -69.5q0 -45 -12 -67t-42 -22zM1776 -11q-49 0 -120 3t-147.5 5.5t-141.5 2.5h-261v179h236l-76 -32q67 34 76.5 88t-0.5 129l-94 686l138 10l62 -560q5 -42 7.5 -80t2 -70.5
t-5.5 -61.5l-17 9q79 89 169.5 164.5t183.5 121t180 45.5q103 0 180.5 -48t121.5 -135t44 -203q0 -46 -10 -85t-26 -67q-16 -27 -37.5 -40t-62.5 -24q-68 -16 -176.5 -26.5t-225.5 -10.5zM1453 144l-6 26q82 -3 155.5 -4t168.5 -1q76 0 148 3.5t133.5 10.5t103.5 18
q32 9 42.5 21.5t10.5 28.5q0 54 -40 99t-103.5 72.5t-133.5 27.5q-90 0 -175.5 -43t-162 -112t-141.5 -147zM1106 0q-30 0 -42 22t-12 67q0 49 11 69.5t43 20.5v-179zM1817 757l-163 121l98 125l162 -121zM678 19l59 160h505v-179h-170l35 48q41 -73 41 -144
q0 -92 -61.5 -167.5t-165.5 -124.5q-89 -41 -194 -66.5t-198 -25.5q-147 0 -244 60.5t-144.5 165t-47.5 237.5q0 158 64 335l102 -25q-21 -74 -33 -140.5t-12 -124.5q0 -144 76.5 -228.5t244.5 -84.5q78 0 169.5 18t170.5 48q69 24 111 54t42 60q0 22 -19.5 40t-57.5 32
q-32 15 -79.5 23t-96.5 12t-89 4zM1242 0v179q31 0 42.5 -20.5t11.5 -69.5q0 -45 -12 -67t-42 -22z" />
    <glyph glyph-name="zah_yehar" unicode="&#xfec7;&#xfef2;" horiz-adv-x="2407" 
d="M722 -817l-153 114l93 118l151 -114zM476 -817l-152 114l92 118l152 -114zM1817 756l-163 122l98 125l162 -121zM678 19l59 160h505v-179h-170l35 48q41 -73 41 -144q0 -92 -61.5 -167.5t-165.5 -124.5q-89 -41 -194 -66.5t-198 -25.5q-147 0 -244 60.5t-144.5 165
t-47.5 237.5q0 158 64 335l102 -25q-21 -74 -33 -140.5t-12 -124.5q0 -144 76.5 -228.5t244.5 -84.5q78 0 169.5 18t170.5 48q69 24 111 54t42 60q0 22 -19.5 40t-57.5 32q-32 15 -79.5 23t-96.5 12t-89 4zM1242 0v179q31 0 42.5 -20.5t11.5 -69.5q0 -45 -12 -67t-42 -22z
M1776 -11q-49 0 -120 3t-147.5 5.5t-141.5 2.5h-261v179h236l-76 -32q67 34 76.5 88t-0.5 129l-94 686l138 10l62 -560q5 -42 7.5 -80t2 -70.5t-5.5 -61.5l-17 9q79 89 169.5 164.5t183.5 121t180 45.5q103 0 180.5 -48t121.5 -135t44 -203q0 -46 -10 -85t-26 -67
q-16 -27 -37.5 -40t-62.5 -24q-68 -16 -176.5 -26.5t-225.5 -10.5zM1453 144l-6 26q82 -3 155.5 -4t168.5 -1q76 0 148 3.5t133.5 10.5t103.5 18q32 9 42.5 21.5t10.5 28.5q0 54 -40 99t-103.5 72.5t-133.5 27.5q-90 0 -175.5 -43t-162 -112t-141.5 -147zM1106 0
q-30 0 -42 22t-12 67q0 49 11 69.5t43 20.5v-179zM1817 756l-163 122l98 125l162 -121z" />
    <glyph glyph-name="zah_yehar.fina" unicode="&#xfec8;&#xfef2;" horiz-adv-x="2449" 
d="M1817 756l-163 122l98 125l162 -121zM722 -817l-153 114l93 118l151 -114zM476 -817l-152 114l92 118l152 -114zM2449 0q-36 0 -127.5 1.5t-218.5 8t-273 20.5l422 149h197v-179zM2449 0v179q32 0 43 -20.5t11 -69.5q0 -45 -12 -67t-42 -22zM1776 -11q-49 0 -120 3
t-147.5 5.5t-141.5 2.5h-261v179h236l-76 -32q67 34 76.5 88t-0.5 129l-94 686l138 10l62 -560q5 -42 7.5 -80t2 -70.5t-5.5 -61.5l-17 9q79 89 169.5 164.5t183.5 121t180 45.5q103 0 180.5 -48t121.5 -135t44 -203q0 -46 -10 -85t-26 -67q-16 -27 -37.5 -40t-62.5 -24
q-68 -16 -176.5 -26.5t-225.5 -10.5zM1453 144l-6 26q82 -3 155.5 -4t168.5 -1q76 0 148 3.5t133.5 10.5t103.5 18q32 9 42.5 21.5t10.5 28.5q0 54 -40 99t-103.5 72.5t-133.5 27.5q-90 0 -175.5 -43t-162 -112t-141.5 -147zM1106 0q-30 0 -42 22t-12 67q0 49 11 69.5
t43 20.5v-179zM1817 756l-163 122l98 125l162 -121zM678 19l59 160h505v-179h-170l35 48q41 -73 41 -144q0 -92 -61.5 -167.5t-165.5 -124.5q-89 -41 -194 -66.5t-198 -25.5q-147 0 -244 60.5t-144.5 165t-47.5 237.5q0 158 64 335l102 -25q-21 -74 -33 -140.5t-12 -124.5
q0 -144 76.5 -228.5t244.5 -84.5q78 0 169.5 18t170.5 48q69 24 111 54t42 60q0 22 -19.5 40t-57.5 32q-32 15 -79.5 23t-96.5 12t-89 4zM1242 0v179q31 0 42.5 -20.5t11.5 -69.5q0 -45 -12 -67t-42 -22z" />
    <glyph glyph-name="zah_yehar.fina.loclFAR.isol" unicode="&#xfec6;&#xfef2;" horiz-adv-x="2449" 
d="M2449 0q-36 0 -127.5 1.5t-218.5 8t-273 20.5l422 149h197v-179zM2449 0v179q32 0 43 -20.5t11 -69.5q0 -45 -12 -67t-42 -22zM1776 -11q-49 0 -120 3t-147.5 5.5t-141.5 2.5h-261v179h236l-76 -32q67 34 76.5 88t-0.5 129l-94 686l138 10l62 -560q5 -42 7.5 -80t2 -70.5
t-5.5 -61.5l-17 9q79 89 169.5 164.5t183.5 121t180 45.5q103 0 180.5 -48t121.5 -135t44 -203q0 -46 -10 -85t-26 -67q-16 -27 -37.5 -40t-62.5 -24q-68 -16 -176.5 -26.5t-225.5 -10.5zM1453 144l-6 26q82 -3 155.5 -4t168.5 -1q76 0 148 3.5t133.5 10.5t103.5 18
q32 9 42.5 21.5t10.5 28.5q0 54 -40 99t-103.5 72.5t-133.5 27.5q-90 0 -175.5 -43t-162 -112t-141.5 -147zM1106 0q-30 0 -42 22t-12 67q0 49 11 69.5t43 20.5v-179zM1817 757l-163 121l98 125l162 -121zM678 19l59 160h505v-179h-170l35 48q41 -73 41 -144
q0 -92 -61.5 -167.5t-165.5 -124.5q-89 -41 -194 -66.5t-198 -25.5q-147 0 -244 60.5t-144.5 165t-47.5 237.5q0 158 64 335l102 -25q-21 -74 -33 -140.5t-12 -124.5q0 -144 76.5 -228.5t244.5 -84.5q78 0 169.5 18t170.5 48q69 24 111 54t42 60q0 22 -19.5 40t-57.5 32
q-32 15 -79.5 23t-96.5 12t-89 4zM1242 0v179q31 0 42.5 -20.5t11.5 -69.5q0 -45 -12 -67t-42 -22z" />
    <glyph glyph-name="zah_yehar.loclFAR.isol" unicode="&#x638;&#x64a;" horiz-adv-x="2407" 
d="M678 19l59 160h505v-179h-170l35 48q41 -73 41 -144q0 -92 -61.5 -167.5t-165.5 -124.5q-89 -41 -194 -66.5t-198 -25.5q-147 0 -244 60.5t-144.5 165t-47.5 237.5q0 158 64 335l102 -25q-21 -74 -33 -140.5t-12 -124.5q0 -144 76.5 -228.5t244.5 -84.5q78 0 169.5 18
t170.5 48q69 24 111 54t42 60q0 22 -19.5 40t-57.5 32q-32 15 -79.5 23t-96.5 12t-89 4zM1242 0v179q31 0 42.5 -20.5t11.5 -69.5q0 -45 -12 -67t-42 -22zM1776 -11q-49 0 -120 3t-147.5 5.5t-141.5 2.5h-261v179h236l-76 -32q67 34 76.5 88t-0.5 129l-94 686l138 10
l62 -560q5 -42 7.5 -80t2 -70.5t-5.5 -61.5l-17 9q79 89 169.5 164.5t183.5 121t180 45.5q103 0 180.5 -48t121.5 -135t44 -203q0 -46 -10 -85t-26 -67q-16 -27 -37.5 -40t-62.5 -24q-68 -16 -176.5 -26.5t-225.5 -10.5zM1453 144l-6 26q82 -3 155.5 -4t168.5 -1
q76 0 148 3.5t133.5 10.5t103.5 18q32 9 42.5 21.5t10.5 28.5q0 54 -40 99t-103.5 72.5t-133.5 27.5q-90 0 -175.5 -43t-162 -112t-141.5 -147zM1106 0q-30 0 -42 22t-12 67q0 49 11 69.5t43 20.5v-179zM1817 757l-163 121l98 125l162 -121z" />
    <glyph glyph-name="zah_yehHamzaabovear" unicode="&#xfec7;&#xfe8a;" horiz-adv-x="2407" 
d="M678 19l59 160h505v-179h-170l35 48q41 -73 41 -144q0 -92 -61.5 -167.5t-165.5 -124.5q-89 -41 -194 -66.5t-198 -25.5q-147 0 -244 60.5t-144.5 165t-47.5 237.5q0 158 64 335l102 -25q-21 -74 -33 -140.5t-12 -124.5q0 -144 76.5 -228.5t244.5 -84.5q78 0 169.5 18
t170.5 48q69 24 111 54t42 60q0 22 -19.5 40t-57.5 32q-32 15 -79.5 23t-96.5 12t-89 4zM1242 0v179q31 0 42.5 -20.5t11.5 -69.5q0 -45 -12 -67t-42 -22zM50 387l-4 1l-8 80l94 38l5 -34q-40 25 -58 59t-18 71q0 70 45.5 119t119.5 49q39 0 72.5 -14.5t59.5 -34.5l-28 -77
q-25 11 -48.5 18.5t-46.5 9.5q-49 5 -73.5 -15.5t-24.5 -41.5q0 -28 36.5 -51.5t72.5 -16.5l47.5 9.5l87.5 17.5l-20 -101q-108 -20 -184 -41.5t-127 -44.5zM1776 -11q-49 0 -120 3t-147.5 5.5t-141.5 2.5h-261v179h236l-76 -32q67 34 76.5 88t-0.5 129l-94 686l138 10
l62 -560q5 -42 7.5 -80t2 -70.5t-5.5 -61.5l-17 9q79 89 169.5 164.5t183.5 121t180 45.5q103 0 180.5 -48t121.5 -135t44 -203q0 -46 -10 -85t-26 -67q-16 -27 -37.5 -40t-62.5 -24q-68 -16 -176.5 -26.5t-225.5 -10.5zM1453 144l-6 26q82 -3 155.5 -4t168.5 -1
q76 0 148 3.5t133.5 10.5t103.5 18q32 9 42.5 21.5t10.5 28.5q0 54 -40 99t-103.5 72.5t-133.5 27.5q-90 0 -175.5 -43t-162 -112t-141.5 -147zM1106 0q-30 0 -42 22t-12 67q0 49 11 69.5t43 20.5v-179zM1817 757l-163 121l98 125l162 -121z" />
    <glyph glyph-name="zah_yehHamzaabovear.fina" unicode="&#xfec8;&#xfe8a;" horiz-adv-x="2449" 
d="M2449 0q-36 0 -127.5 1.5t-218.5 8t-273 20.5l422 149h197v-179zM2449 0v179q32 0 43 -20.5t11 -69.5q0 -45 -12 -67t-42 -22zM1776 -11q-49 0 -120 3t-147.5 5.5t-141.5 2.5h-261v179h236l-76 -32q67 34 76.5 88t-0.5 129l-94 686l138 10l62 -560q5 -42 7.5 -80t2 -70.5
t-5.5 -61.5l-17 9q79 89 169.5 164.5t183.5 121t180 45.5q103 0 180.5 -48t121.5 -135t44 -203q0 -46 -10 -85t-26 -67q-16 -27 -37.5 -40t-62.5 -24q-68 -16 -176.5 -26.5t-225.5 -10.5zM1453 144l-6 26q82 -3 155.5 -4t168.5 -1q76 0 148 3.5t133.5 10.5t103.5 18
q32 9 42.5 21.5t10.5 28.5q0 54 -40 99t-103.5 72.5t-133.5 27.5q-90 0 -175.5 -43t-162 -112t-141.5 -147zM1106 0q-30 0 -42 22t-12 67q0 49 11 69.5t43 20.5v-179zM1817 757l-163 121l98 125l162 -121zM678 19l59 160h505v-179h-170l35 48q41 -73 41 -144
q0 -92 -61.5 -167.5t-165.5 -124.5q-89 -41 -194 -66.5t-198 -25.5q-147 0 -244 60.5t-144.5 165t-47.5 237.5q0 158 64 335l102 -25q-21 -74 -33 -140.5t-12 -124.5q0 -144 76.5 -228.5t244.5 -84.5q78 0 169.5 18t170.5 48q69 24 111 54t42 60q0 22 -19.5 40t-57.5 32
q-32 15 -79.5 23t-96.5 12t-89 4zM1242 0v179q31 0 42.5 -20.5t11.5 -69.5q0 -45 -12 -67t-42 -22zM50 387l-4 1l-8 80l94 38l5 -34q-40 25 -58 59t-18 71q0 70 45.5 119t119.5 49q39 0 72.5 -14.5t59.5 -34.5l-28 -77q-25 11 -48.5 18.5t-46.5 9.5q-49 5 -73.5 -15.5
t-24.5 -41.5q0 -28 36.5 -51.5t72.5 -16.5l47.5 9.5l87.5 17.5l-20 -101q-108 -20 -184 -41.5t-127 -44.5z" />
    <glyph glyph-name="uniFCF8.fina.loclFAR.isol" unicode="&#xfeca;&#xfef2;" horiz-adv-x="2230" 
d="M1106 0v179h76q108 0 209.5 10t198.5 37l-48 -24q-59 35 -128 82.5t-147 114.5l15 165q83 35 183.5 51.5t207.5 16.5q116 0 230.5 -18.5t212.5 -53.5l-19 -155q-61 -61 -130 -110.5t-140 -92.5l-10 21q97 -26 176.5 -35t172.5 -9h64v-179h-61q-89 0 -167 12.5t-157.5 40
t-174.5 72.5l76 19q-132 -81 -253.5 -112.5t-258.5 -31.5h-128zM1955 457q-59 12 -130 18.5t-141 6.5q-71 0 -139.5 -6.5t-128.5 -20.5l-3 -16q44 -27 98.5 -57.5t107 -57.5t88.5 -45l-45 -9q68 35 144.5 77.5t145.5 96.5zM1106 0q-30 0 -42 22t-12 67q0 49 11 69.5t43 20.5
v-179zM2230 0v179q32 0 43 -20.5t11 -69.5q0 -45 -12 -67t-42 -22zM678 19l59 160h505v-179h-170l35 48q41 -73 41 -144q0 -92 -61.5 -167.5t-165.5 -124.5q-89 -41 -194 -66.5t-198 -25.5q-147 0 -244 60.5t-144.5 165t-47.5 237.5q0 158 64 335l102 -25
q-21 -74 -33 -140.5t-12 -124.5q0 -144 76.5 -228.5t244.5 -84.5q78 0 169.5 18t170.5 48q69 24 111 54t42 60q0 22 -19.5 40t-57.5 32q-32 15 -79.5 23t-96.5 12t-89 4zM1242 0v179q31 0 42.5 -20.5t11.5 -69.5q0 -45 -12 -67t-42 -22z" />
    <glyph glyph-name="uniFCF8.loclFAR.isol" unicode="&#x639;&#x64a;" horiz-adv-x="2081" 
d="M1106 0v179h175q38 0 84.5 3t118.5 22l-58 -50q-70 44 -108 105t-38 129q0 108 41.5 187t117 122.5t176.5 43.5q66 0 129 -17.5t133 -54.5l-30 -135q-58 18 -120 28t-120 10q-90 0 -153.5 -30t-63.5 -89q0 -55 51 -99.5t111 -69.5q23 -9 50.5 -15.5t50.5 -6.5t46 5.5
t53 15.5q63 21 121 41.5t116 43.5l9 -3l-18 -171q-66 -27 -155 -59t-176 -59.5t-149 -42.5q-63 -15 -125.5 -24t-128.5 -9h-140zM1106 0q-30 0 -42 22t-12 67q0 49 11 69.5t43 20.5v-179zM678 19l59 160h505v-179h-170l35 48q41 -73 41 -144q0 -92 -61.5 -167.5
t-165.5 -124.5q-89 -41 -194 -66.5t-198 -25.5q-147 0 -244 60.5t-144.5 165t-47.5 237.5q0 158 64 335l102 -25q-21 -74 -33 -140.5t-12 -124.5q0 -144 76.5 -228.5t244.5 -84.5q78 0 169.5 18t170.5 48q69 24 111 54t42 60q0 22 -19.5 40t-57.5 32q-32 15 -79.5 23
t-96.5 12t-89 4zM1242 0v179q31 0 42.5 -20.5t11.5 -69.5q0 -45 -12 -67t-42 -22z" />
    <glyph glyph-name="uni1D250626" unicode="&#xfecb;&#xfe8a;" horiz-adv-x="2081" 
d="M1106 0v179h175q38 0 84.5 3t118.5 22l-58 -50q-70 44 -108 105t-38 129q0 108 41.5 187t117 122.5t176.5 43.5q66 0 129 -17.5t133 -54.5l-30 -135q-58 18 -120 28t-120 10q-90 0 -153.5 -30t-63.5 -89q0 -55 51 -99.5t111 -69.5q23 -9 50.5 -15.5t50.5 -6.5t46 5.5
t53 15.5q63 21 121 41.5t116 43.5l9 -3l-18 -171q-66 -27 -155 -59t-176 -59.5t-149 -42.5q-63 -15 -125.5 -24t-128.5 -9h-140zM1106 0q-30 0 -42 22t-12 67q0 49 11 69.5t43 20.5v-179zM678 19l59 160h505v-179h-170l35 48q41 -73 41 -144q0 -92 -61.5 -167.5
t-165.5 -124.5q-89 -41 -194 -66.5t-198 -25.5q-147 0 -244 60.5t-144.5 165t-47.5 237.5q0 158 64 335l102 -25q-21 -74 -33 -140.5t-12 -124.5q0 -144 76.5 -228.5t244.5 -84.5q78 0 169.5 18t170.5 48q69 24 111 54t42 60q0 22 -19.5 40t-57.5 32q-32 15 -79.5 23
t-96.5 12t-89 4zM1242 0v179q31 0 42.5 -20.5t11.5 -69.5q0 -45 -12 -67t-42 -22zM50 387l-4 1l-8 80l94 38l5 -34q-40 25 -58 59t-18 71q0 70 45.5 119t119.5 49q39 0 72.5 -14.5t59.5 -34.5l-28 -77q-25 11 -48.5 18.5t-46.5 9.5q-49 5 -73.5 -15.5t-24.5 -41.5
q0 -28 36.5 -51.5t72.5 -16.5l47.5 9.5l87.5 17.5l-20 -101q-108 -20 -184 -41.5t-127 -44.5z" />
    <glyph glyph-name="uni1D250626.fina" unicode="&#xfecc;&#xfe8a;" horiz-adv-x="2230" 
d="M1106 0v179h76q108 0 209.5 10t198.5 37l-48 -24q-59 35 -128 82.5t-147 114.5l15 165q83 35 183.5 51.5t207.5 16.5q116 0 230.5 -18.5t212.5 -53.5l-19 -155q-61 -61 -130 -110.5t-140 -92.5l-10 21q97 -26 176.5 -35t172.5 -9h64v-179h-61q-89 0 -167 12.5t-157.5 40
t-174.5 72.5l76 19q-132 -81 -253.5 -112.5t-258.5 -31.5h-128zM1955 457q-59 12 -130 18.5t-141 6.5q-71 0 -139.5 -6.5t-128.5 -20.5l-3 -16q44 -27 98.5 -57.5t107 -57.5t88.5 -45l-45 -9q68 35 144.5 77.5t145.5 96.5zM1106 0q-30 0 -42 22t-12 67q0 49 11 69.5t43 20.5
v-179zM2230 0v179q32 0 43 -20.5t11 -69.5q0 -45 -12 -67t-42 -22zM678 19l59 160h505v-179h-170l35 48q41 -73 41 -144q0 -92 -61.5 -167.5t-165.5 -124.5q-89 -41 -194 -66.5t-198 -25.5q-147 0 -244 60.5t-144.5 165t-47.5 237.5q0 158 64 335l102 -25
q-21 -74 -33 -140.5t-12 -124.5q0 -144 76.5 -228.5t244.5 -84.5q78 0 169.5 18t170.5 48q69 24 111 54t42 60q0 22 -19.5 40t-57.5 32q-32 15 -79.5 23t-96.5 12t-89 4zM1242 0v179q31 0 42.5 -20.5t11.5 -69.5q0 -45 -12 -67t-42 -22zM50 387l-4 1l-8 80l94 38l5 -34
q-40 25 -58 59t-18 71q0 70 45.5 119t119.5 49q39 0 72.5 -14.5t59.5 -34.5l-28 -77q-25 11 -48.5 18.5t-46.5 9.5q-49 5 -73.5 -15.5t-24.5 -41.5q0 -28 36.5 -51.5t72.5 -16.5l47.5 9.5l87.5 17.5l-20 -101q-108 -20 -184 -41.5t-127 -44.5z" />
    <glyph glyph-name="uniFCFA.fina.loclFAR.isol" unicode="&#xfece;&#xfef2;" horiz-adv-x="2230" 
d="M678 19l59 160h505v-179h-170l35 48q41 -73 41 -144q0 -92 -61.5 -167.5t-165.5 -124.5q-89 -41 -194 -66.5t-198 -25.5q-147 0 -244 60.5t-144.5 165t-47.5 237.5q0 158 64 335l102 -25q-21 -74 -33 -140.5t-12 -124.5q0 -144 76.5 -228.5t244.5 -84.5q78 0 169.5 18
t170.5 48q69 24 111 54t42 60q0 22 -19.5 40t-57.5 32q-32 15 -79.5 23t-96.5 12t-89 4zM1242 0v179q31 0 42.5 -20.5t11.5 -69.5q0 -45 -12 -67t-42 -22zM1106 0v179h76q108 0 209.5 10t198.5 37l-48 -24q-59 35 -128 82.5t-147 114.5l15 165q83 35 183.5 51.5t207.5 16.5
q116 0 230.5 -18.5t212.5 -53.5l-19 -155q-61 -61 -130 -110.5t-140 -92.5l-10 21q97 -26 176.5 -35t172.5 -9h64v-179h-61q-89 0 -167 12.5t-157.5 40t-174.5 72.5l76 19q-132 -81 -253.5 -112.5t-258.5 -31.5h-128zM1955 457q-59 12 -130 18.5t-141 6.5q-71 0 -139.5 -6.5
t-128.5 -20.5l-3 -16q44 -27 98.5 -57.5t107 -57.5t88.5 -45l-45 -9q68 35 144.5 77.5t145.5 96.5zM1106 0q-30 0 -42 22t-12 67q0 49 11 69.5t43 20.5v-179zM2230 0v179q32 0 43 -20.5t11 -69.5q0 -45 -12 -67t-42 -22zM1654 775l-163 121l98 125l162 -121z" />
    <glyph glyph-name="uniFCFA.loclFAR.isol" unicode="&#x63a;&#x64a;" horiz-adv-x="2082" 
d="M678 19l59 160h505v-179h-170l35 48q41 -73 41 -144q0 -92 -61.5 -167.5t-165.5 -124.5q-89 -41 -194 -66.5t-198 -25.5q-147 0 -244 60.5t-144.5 165t-47.5 237.5q0 158 64 335l102 -25q-21 -74 -33 -140.5t-12 -124.5q0 -144 76.5 -228.5t244.5 -84.5q78 0 169.5 18
t170.5 48q69 24 111 54t42 60q0 22 -19.5 40t-57.5 32q-32 15 -79.5 23t-96.5 12t-89 4zM1242 0v179q31 0 42.5 -20.5t11.5 -69.5q0 -45 -12 -67t-42 -22zM1106 0v179h175q38 0 84.5 3t118.5 22l-58 -50q-70 44 -108 105t-38 129q0 108 41.5 187t117 122.5t176.5 43.5
q66 0 129 -17.5t133 -54.5l-30 -135q-58 18 -120 28t-120 10q-90 0 -153.5 -30t-63.5 -89q0 -55 51 -99.5t111 -69.5q23 -9 50.5 -15.5t50.5 -6.5t46 5.5t53 15.5q63 21 121 41.5t116 43.5l9 -3l-18 -171q-66 -27 -155 -59t-176 -59.5t-149 -42.5q-63 -15 -125.5 -24
t-128.5 -9h-140zM1106 0q-30 0 -42 22t-12 67q0 49 11 69.5t43 20.5v-179zM1565 871l-163 121l98 125l162 -121z" />
    <glyph glyph-name="ghain_yehHamzaabovear" unicode="&#xfecf;&#xfe8a;" horiz-adv-x="2081" 
d="M678 19l59 160h505v-179h-170l35 48q41 -73 41 -144q0 -92 -61.5 -167.5t-165.5 -124.5q-89 -41 -194 -66.5t-198 -25.5q-147 0 -244 60.5t-144.5 165t-47.5 237.5q0 158 64 335l102 -25q-21 -74 -33 -140.5t-12 -124.5q0 -144 76.5 -228.5t244.5 -84.5q78 0 169.5 18
t170.5 48q69 24 111 54t42 60q0 22 -19.5 40t-57.5 32q-32 15 -79.5 23t-96.5 12t-89 4zM1242 0v179q31 0 42.5 -20.5t11.5 -69.5q0 -45 -12 -67t-42 -22zM50 387l-4 1l-8 80l94 38l5 -34q-40 25 -58 59t-18 71q0 70 45.5 119t119.5 49q39 0 72.5 -14.5t59.5 -34.5l-28 -77
q-25 11 -48.5 18.5t-46.5 9.5q-49 5 -73.5 -15.5t-24.5 -41.5q0 -28 36.5 -51.5t72.5 -16.5l47.5 9.5l87.5 17.5l-20 -101q-108 -20 -184 -41.5t-127 -44.5zM1106 0v179h175q38 0 84.5 3t118.5 22l-58 -50q-70 44 -108 105t-38 129q0 108 41.5 187t117 122.5t176.5 43.5
q66 0 129 -17.5t133 -54.5l-30 -135q-58 18 -120 28t-120 10q-90 0 -153.5 -30t-63.5 -89q0 -55 51 -99.5t111 -69.5q23 -9 50.5 -15.5t50.5 -6.5t46 5.5t53 15.5q63 21 121 41.5t116 43.5l9 -3l-18 -171q-66 -27 -155 -59t-176 -59.5t-149 -42.5q-63 -15 -125.5 -24
t-128.5 -9h-140zM1106 0q-30 0 -42 22t-12 67q0 49 11 69.5t43 20.5v-179zM1564 871l-163 121l98 125l162 -121z" />
    <glyph glyph-name="ghain_yehHamzaabovear.fina" unicode="&#xfed0;&#xfe8a;" horiz-adv-x="2230" 
d="M678 19l59 160h505v-179h-170l35 48q41 -73 41 -144q0 -92 -61.5 -167.5t-165.5 -124.5q-89 -41 -194 -66.5t-198 -25.5q-147 0 -244 60.5t-144.5 165t-47.5 237.5q0 158 64 335l102 -25q-21 -74 -33 -140.5t-12 -124.5q0 -144 76.5 -228.5t244.5 -84.5q78 0 169.5 18
t170.5 48q69 24 111 54t42 60q0 22 -19.5 40t-57.5 32q-32 15 -79.5 23t-96.5 12t-89 4zM1242 0v179q31 0 42.5 -20.5t11.5 -69.5q0 -45 -12 -67t-42 -22zM50 387l-4 1l-8 80l94 38l5 -34q-40 25 -58 59t-18 71q0 70 45.5 119t119.5 49q39 0 72.5 -14.5t59.5 -34.5l-28 -77
q-25 11 -48.5 18.5t-46.5 9.5q-49 5 -73.5 -15.5t-24.5 -41.5q0 -28 36.5 -51.5t72.5 -16.5l47.5 9.5l87.5 17.5l-20 -101q-108 -20 -184 -41.5t-127 -44.5zM1106 0v179h76q108 0 209.5 10t198.5 37l-48 -24q-59 35 -128 82.5t-147 114.5l15 165q83 35 183.5 51.5
t207.5 16.5q116 0 230.5 -18.5t212.5 -53.5l-19 -155q-61 -61 -130 -110.5t-140 -92.5l-10 21q97 -26 176.5 -35t172.5 -9h64v-179h-61q-89 0 -167 12.5t-157.5 40t-174.5 72.5l76 19q-132 -81 -253.5 -112.5t-258.5 -31.5h-128zM1955 457q-59 12 -130 18.5t-141 6.5
q-71 0 -139.5 -6.5t-128.5 -20.5l-3 -16q44 -27 98.5 -57.5t107 -57.5t88.5 -45l-45 -9q68 35 144.5 77.5t145.5 96.5zM1106 0q-30 0 -42 22t-12 67q0 49 11 69.5t43 20.5v-179zM2230 0v179q32 0 43 -20.5t11 -69.5q0 -45 -12 -67t-42 -22zM1654 775l-163 121l98 125
l162 -121z" />
    <glyph glyph-name="uniFC32.fina.loclFAR.isol" unicode="&#xfed2;&#xfef2;" horiz-adv-x="1965" 
d="M1116 0v179h51q75 0 125.5 2.5t92.5 7.5l-9 -34q-36 27 -65.5 76t-29.5 118q0 63 26 132.5t69.5 129t95 97t101.5 37.5q51 0 100 -37t88.5 -97t63 -128.5t23.5 -132.5q0 -67 -25 -115t-56 -76l-39 43q70 -15 128 -19t109 -4v-179h-38q-58 0 -127.5 6t-142 19t-141.5 32
l117 11q-103 -38 -202 -53t-207 -15h-108zM1561 242q41 0 85 15t74 44t30 70q0 39 -27 82.5t-67 75t-79 31.5q-42 0 -87.5 -33t-76.5 -78t-31 -80q0 -46 55 -86t124 -41zM1116 0q-30 0 -42 22t-12 67q0 49 11 69.5t43 20.5v-179zM1965 0v179q32 0 43 -20.5t11 -69.5
q0 -45 -12 -67t-42 -22zM1570 859l-163 121l98 125l162 -121zM678 19l59 160h505v-179h-170l35 48q41 -73 41 -144q0 -92 -61.5 -167.5t-165.5 -124.5q-89 -41 -194 -66.5t-198 -25.5q-147 0 -244 60.5t-144.5 165t-47.5 237.5q0 158 64 335l102 -25q-21 -74 -33 -140.5
t-12 -124.5q0 -144 76.5 -228.5t244.5 -84.5q78 0 169.5 18t170.5 48q69 24 111 54t42 60q0 22 -19.5 40t-57.5 32q-32 15 -79.5 23t-96.5 12t-89 4zM1242 0v179q31 0 42.5 -20.5t11.5 -69.5q0 -45 -12 -67t-42 -22z" />
    <glyph glyph-name="uniFC32.loclFAR.isol" unicode="&#x641;&#x64a;" horiz-adv-x="1807" 
d="M1037 0v179h348q85 0 132 9t65 36.5t18 82.5v68q0 50 -12.5 105.5t-36.5 104.5t-62 79.5t-89 30.5q-70 0 -118.5 -46.5t-48.5 -105.5q0 -39 38 -61t97.5 -30t125.5 -8q57 0 102 3.5t72 5.5l-24 -145q-41 -11 -89.5 -18.5t-111.5 -7.5q-128 0 -196 36t-93 90.5t-25 109.5
q0 90 38.5 168t104 126.5t144.5 48.5q80 0 137 -43.5t92.5 -114.5t52 -155t16.5 -165q0 -63 -10.5 -118t-27.5 -98q-25 -60 -59 -93t-93 -50q-43 -12 -117.5 -18t-206.5 -6h-163zM1037 0q-30 0 -42 22t-12 67q0 49 11 69.5t43 20.5v-179zM1408 966l-163 121l98 125l162 -121
zM678 19l59 160h505v-179h-170l35 48q41 -73 41 -144q0 -92 -61.5 -167.5t-165.5 -124.5q-89 -41 -194 -66.5t-198 -25.5q-147 0 -244 60.5t-144.5 165t-47.5 237.5q0 158 64 335l102 -25q-21 -74 -33 -140.5t-12 -124.5q0 -144 76.5 -228.5t244.5 -84.5q78 0 169.5 18
t170.5 48q69 24 111 54t42 60q0 22 -19.5 40t-57.5 32q-32 15 -79.5 23t-96.5 12t-89 4zM1242 0v179q31 0 42.5 -20.5t11.5 -69.5q0 -45 -12 -67t-42 -22z" />
    <glyph glyph-name="feh_yehHamzaabovear" unicode="&#xfed3;&#xfe8a;" horiz-adv-x="1807" 
d="M1037 0v179h348q85 0 132 9t65 36.5t18 82.5v68q0 50 -12.5 105.5t-36.5 104.5t-62 79.5t-89 30.5q-70 0 -118.5 -46.5t-48.5 -105.5q0 -39 38 -61t97.5 -30t125.5 -8q57 0 102 3.5t72 5.5l-24 -145q-41 -11 -89.5 -18.5t-111.5 -7.5q-128 0 -196 36t-93 90.5t-25 109.5
q0 90 38.5 168t104 126.5t144.5 48.5q80 0 137 -43.5t92.5 -114.5t52 -155t16.5 -165q0 -63 -10.5 -118t-27.5 -98q-25 -60 -59 -93t-93 -50q-43 -12 -117.5 -18t-206.5 -6h-163zM1037 0q-30 0 -42 22t-12 67q0 49 11 69.5t43 20.5v-179zM1408 966l-163 121l98 125l162 -121
zM678 19l59 160h505v-179h-170l35 48q41 -73 41 -144q0 -92 -61.5 -167.5t-165.5 -124.5q-89 -41 -194 -66.5t-198 -25.5q-147 0 -244 60.5t-144.5 165t-47.5 237.5q0 158 64 335l102 -25q-21 -74 -33 -140.5t-12 -124.5q0 -144 76.5 -228.5t244.5 -84.5q78 0 169.5 18
t170.5 48q69 24 111 54t42 60q0 22 -19.5 40t-57.5 32q-32 15 -79.5 23t-96.5 12t-89 4zM1242 0v179q31 0 42.5 -20.5t11.5 -69.5q0 -45 -12 -67t-42 -22zM50 387l-4 1l-8 80l94 38l5 -34q-40 25 -58 59t-18 71q0 70 45.5 119t119.5 49q39 0 72.5 -14.5t59.5 -34.5l-28 -77
q-25 11 -48.5 18.5t-46.5 9.5q-49 5 -73.5 -15.5t-24.5 -41.5q0 -28 36.5 -51.5t72.5 -16.5l47.5 9.5l87.5 17.5l-20 -101q-108 -20 -184 -41.5t-127 -44.5z" />
    <glyph glyph-name="feh_yehHamzaabovear.fina" unicode="&#xfed4;&#xfe8a;" horiz-adv-x="1965" 
d="M1116 0v179h51q75 0 125.5 2.5t92.5 7.5l-9 -34q-36 27 -65.5 76t-29.5 118q0 63 26 132.5t69.5 129t95 97t101.5 37.5q51 0 100 -37t88.5 -97t63 -128.5t23.5 -132.5q0 -67 -25 -115t-56 -76l-39 43q70 -15 128 -19t109 -4v-179h-38q-58 0 -127.5 6t-142 19t-141.5 32
l117 11q-103 -38 -202 -53t-207 -15h-108zM1561 242q41 0 85 15t74 44t30 70q0 39 -27 82.5t-67 75t-79 31.5q-42 0 -87.5 -33t-76.5 -78t-31 -80q0 -46 55 -86t124 -41zM1116 0q-30 0 -42 22t-12 67q0 49 11 69.5t43 20.5v-179zM1965 0v179q32 0 43 -20.5t11 -69.5
q0 -45 -12 -67t-42 -22zM1570 859l-163 121l98 125l162 -121zM678 19l59 160h505v-179h-170l35 48q41 -73 41 -144q0 -92 -61.5 -167.5t-165.5 -124.5q-89 -41 -194 -66.5t-198 -25.5q-147 0 -244 60.5t-144.5 165t-47.5 237.5q0 158 64 335l102 -25q-21 -74 -33 -140.5
t-12 -124.5q0 -144 76.5 -228.5t244.5 -84.5q78 0 169.5 18t170.5 48q69 24 111 54t42 60q0 22 -19.5 40t-57.5 32q-32 15 -79.5 23t-96.5 12t-89 4zM1242 0v179q31 0 42.5 -20.5t11.5 -69.5q0 -45 -12 -67t-42 -22zM50 387l-4 1l-8 80l94 38l5 -34q-40 25 -58 59t-18 71
q0 70 45.5 119t119.5 49q39 0 72.5 -14.5t59.5 -34.5l-28 -77q-25 11 -48.5 18.5t-46.5 9.5q-49 5 -73.5 -15.5t-24.5 -41.5q0 -28 36.5 -51.5t72.5 -16.5l47.5 9.5l87.5 17.5l-20 -101q-108 -20 -184 -41.5t-127 -44.5z" />
    <glyph glyph-name="uniFC36.fina.loclFAR.isol" unicode="&#xfed6;&#xfef2;" horiz-adv-x="1965" 
d="M1692 857l-153 113l92 118l152 -114zM1446 857l-153 113l93 118l151 -114zM1116 0v179h51q75 0 125.5 2.5t92.5 7.5l-9 -34q-36 27 -65.5 76t-29.5 118q0 63 26 132.5t69.5 129t95 97t101.5 37.5q51 0 100 -37t88.5 -97t63 -128.5t23.5 -132.5q0 -67 -25 -115t-56 -76
l-39 43q70 -15 128 -19t109 -4v-179h-38q-58 0 -127.5 6t-142 19t-141.5 32l117 11q-103 -38 -202 -53t-207 -15h-108zM1561 242q41 0 85 15t74 44t30 70q0 39 -27 82.5t-67 75t-79 31.5q-42 0 -87.5 -33t-76.5 -78t-31 -80q0 -46 55 -86t124 -41zM1116 0q-30 0 -42 22
t-12 67q0 49 11 69.5t43 20.5v-179zM1965 0v179q32 0 43 -20.5t11 -69.5q0 -45 -12 -67t-42 -22zM678 19l59 160h505v-179h-170l35 48q41 -73 41 -144q0 -92 -61.5 -167.5t-165.5 -124.5q-89 -41 -194 -66.5t-198 -25.5q-147 0 -244 60.5t-144.5 165t-47.5 237.5
q0 158 64 335l102 -25q-21 -74 -33 -140.5t-12 -124.5q0 -144 76.5 -228.5t244.5 -84.5q78 0 169.5 18t170.5 48q69 24 111 54t42 60q0 22 -19.5 40t-57.5 32q-32 15 -79.5 23t-96.5 12t-89 4zM1242 0v179q31 0 42.5 -20.5t11.5 -69.5q0 -45 -12 -67t-42 -22z" />
    <glyph glyph-name="uniFC36.loclFAR.isol" unicode="&#x642;&#x64a;" horiz-adv-x="1807" 
d="M1533 964l-153 113l92 118l152 -114zM1287 964l-153 113l93 118l151 -114zM1037 0v179h349q84 0 131 9t65.5 36.5t17.5 82.5v68q0 50 -12 105.5t-36.5 104.5t-62 79.5t-89.5 30.5q-70 0 -118.5 -46.5t-48.5 -105.5q0 -39 38 -61t98 -30t125 -8q57 0 102 3.5t72 5.5
l-23 -145q-42 -11 -90.5 -18.5t-111.5 -7.5q-128 0 -196 36t-93 90.5t-25 109.5q0 90 39 168t104 126.5t144 48.5q81 0 137.5 -43.5t92 -114.5t52 -155t16.5 -165q0 -63 -10.5 -118t-27.5 -98q-25 -60 -59 -93t-93 -50q-43 -12 -117.5 -18t-206.5 -6h-163zM1037 0
q-30 0 -42 22t-12 67q0 49 11 69.5t43 20.5v-179zM678 19l59 160h505v-179h-170l35 48q41 -73 41 -144q0 -92 -61.5 -167.5t-165.5 -124.5q-89 -41 -194 -66.5t-198 -25.5q-147 0 -244 60.5t-144.5 165t-47.5 237.5q0 158 64 335l102 -25q-21 -74 -33 -140.5t-12 -124.5
q0 -144 76.5 -228.5t244.5 -84.5q78 0 169.5 18t170.5 48q69 24 111 54t42 60q0 22 -19.5 40t-57.5 32q-32 15 -79.5 23t-96.5 12t-89 4zM1242 0v179q31 0 42.5 -20.5t11.5 -69.5q0 -45 -12 -67t-42 -22z" />
    <glyph glyph-name="qaf_yehHamzaabovear" unicode="&#xfed7;&#xfe8a;" horiz-adv-x="1807" 
d="M1533 964l-153 113l92 118l152 -114zM1287 964l-153 113l93 118l151 -114zM1037 0v179h349q84 0 131 9t65.5 36.5t17.5 82.5v68q0 50 -12 105.5t-36.5 104.5t-62 79.5t-89.5 30.5q-70 0 -118.5 -46.5t-48.5 -105.5q0 -39 38 -61t98 -30t125 -8q57 0 102 3.5t72 5.5
l-23 -145q-42 -11 -90.5 -18.5t-111.5 -7.5q-128 0 -196 36t-93 90.5t-25 109.5q0 90 39 168t104 126.5t144 48.5q81 0 137.5 -43.5t92 -114.5t52 -155t16.5 -165q0 -63 -10.5 -118t-27.5 -98q-25 -60 -59 -93t-93 -50q-43 -12 -117.5 -18t-206.5 -6h-163zM1037 0
q-30 0 -42 22t-12 67q0 49 11 69.5t43 20.5v-179zM678 19l59 160h505v-179h-170l35 48q41 -73 41 -144q0 -92 -61.5 -167.5t-165.5 -124.5q-89 -41 -194 -66.5t-198 -25.5q-147 0 -244 60.5t-144.5 165t-47.5 237.5q0 158 64 335l102 -25q-21 -74 -33 -140.5t-12 -124.5
q0 -144 76.5 -228.5t244.5 -84.5q78 0 169.5 18t170.5 48q69 24 111 54t42 60q0 22 -19.5 40t-57.5 32q-32 15 -79.5 23t-96.5 12t-89 4zM1242 0v179q31 0 42.5 -20.5t11.5 -69.5q0 -45 -12 -67t-42 -22zM50 387l-4 1l-8 80l94 38l5 -34q-40 24 -58 58.5t-18 71.5
q0 70 45.5 118.5t119.5 48.5q39 0 72.5 -14.5t59.5 -34.5l-29 -76q-24 11 -47.5 18.5t-46.5 9.5q-49 5 -73.5 -15.5t-24.5 -41.5q0 -28 36.5 -51.5t71.5 -16.5l47.5 9.5t88.5 17.5l-20 -101q-108 -20 -184 -41.5t-127 -44.5z" />
    <glyph glyph-name="qaf_yehHamzaabovear.fina" unicode="&#xfed8;&#xfe8a;" horiz-adv-x="1965" 
d="M1692 857l-153 113l92 118l152 -114zM1446 857l-153 113l93 118l151 -114zM1116 0v179h51q75 0 125.5 2.5t92.5 7.5l-9 -34q-36 27 -65.5 76t-29.5 118q0 63 26 132.5t69.5 129t95 97t101.5 37.5q51 0 100 -37t88.5 -97t63 -128.5t23.5 -132.5q0 -67 -25 -115t-56 -76
l-39 43q70 -15 128 -19t109 -4v-179h-38q-58 0 -127.5 6t-142 19t-141.5 32l117 11q-103 -38 -202 -53t-207 -15h-108zM1561 242q41 0 85 15t74 44t30 70q0 39 -27 82.5t-67 75t-79 31.5q-42 0 -87.5 -33t-76.5 -78t-31 -80q0 -46 55 -86t124 -41zM1116 0q-30 0 -42 22
t-12 67q0 49 11 69.5t43 20.5v-179zM1965 0v179q32 0 43 -20.5t11 -69.5q0 -45 -12 -67t-42 -22zM678 19l59 160h505v-179h-170l35 48q41 -73 41 -144q0 -92 -61.5 -167.5t-165.5 -124.5q-89 -41 -194 -66.5t-198 -25.5q-147 0 -244 60.5t-144.5 165t-47.5 237.5
q0 158 64 335l102 -25q-21 -74 -33 -140.5t-12 -124.5q0 -144 76.5 -228.5t244.5 -84.5q78 0 169.5 18t170.5 48q69 24 111 54t42 60q0 22 -19.5 40t-57.5 32q-32 15 -79.5 23t-96.5 12t-89 4zM1242 0v179q31 0 42.5 -20.5t11.5 -69.5q0 -45 -12 -67t-42 -22zM50 387l-4 1
l-8 80l94 38l5 -34q-40 24 -58 58.5t-18 71.5q0 70 45.5 118.5t119.5 48.5q39 0 72.5 -14.5t59.5 -34.5l-29 -76q-24 11 -47.5 18.5t-46.5 9.5q-49 5 -73.5 -15.5t-24.5 -41.5q0 -28 36.5 -51.5t71.5 -16.5l47.5 9.5t88.5 17.5l-20 -101q-108 -20 -184 -41.5t-127 -44.5z
" />
    <glyph glyph-name="uniFC3E.fina.loclFAR.isol" unicode="&#xfeda;&#xfef2;" horiz-adv-x="1730" 
d="M907 0v179h462q53 0 75.5 6.5t22.5 23.5q0 19 -32 61q-55 76 -141.5 154.5t-174.5 149.5l58 14l-76 -69l-170 165l26 119l642 301l11 -155l-499 -214l3 44q116 -96 196 -171t132 -137.5t86 -118t60 -112.5q16 -35 36.5 -48t79.5 -13h26v-179q-46 0 -84.5 3t-75 14.5
t-78.5 37.5l88 10q-13 -20 -46 -35t-85.5 -22.5t-126.5 -7.5h-415zM907 0q-30 0 -42 22t-12 67q0 49 11 69.5t43 20.5v-179zM1730 0v179q32 0 43.5 -20.5t11.5 -69.5q0 -45 -12 -67t-43 -22zM678 19l59 160h505v-179h-170l35 48q41 -73 41 -144q0 -92 -61.5 -167.5
t-165.5 -124.5q-89 -41 -194 -66.5t-198 -25.5q-147 0 -244 60.5t-144.5 165t-47.5 237.5q0 158 64 335l102 -25q-21 -74 -33 -140.5t-12 -124.5q0 -144 76.5 -228.5t244.5 -84.5q78 0 169.5 18t170.5 48q69 24 111 54t42 60q0 22 -19.5 40t-57.5 32q-32 15 -79.5 23
t-96.5 12t-89 4zM1242 0v179q31 0 42.5 -20.5t11.5 -69.5q0 -45 -12 -67t-42 -22z" />
    <glyph glyph-name="uniFC3E.loclFAR.isol" unicode="&#x643;&#x64a;" horiz-adv-x="1688" 
d="M678 19l59 160h505v-179h-170l35 48q41 -73 41 -144q0 -92 -61.5 -167.5t-165.5 -124.5q-89 -41 -194 -66.5t-198 -25.5q-147 0 -244 60.5t-144.5 165t-47.5 237.5q0 158 64 335l102 -25q-21 -74 -33 -140.5t-12 -124.5q0 -144 76.5 -228.5t244.5 -84.5q78 0 169.5 18
t170.5 48q69 24 111 54t42 60q0 22 -19.5 40t-57.5 32q-32 15 -79.5 23t-96.5 12t-89 4zM1242 0v179q31 0 42.5 -20.5t11.5 -69.5q0 -45 -12 -67t-42 -22zM902 0v179h524q45 0 45 24q0 13 -12.5 33.5t-23.5 35.5q-39 54 -95.5 109.5t-120.5 109t-123 99.5l78 1l-78 -72
l-170 165l26 119l642 301l11 -155l-496 -213l5 41q131 -103 239 -208t172 -201t64 -174q0 -75 -41.5 -134.5t-101.5 -59.5h-544zM902 0q-30 0 -42 22t-12 67q0 49 11 69.5t43 20.5v-179z" />
    <glyph glyph-name="kaf_yehHamzaabovear" unicode="&#xfedb;&#xfe8a;" horiz-adv-x="1688" 
d="M902 0v179h524q45 0 45 24q0 13 -12.5 33.5t-23.5 35.5q-39 54 -95.5 109.5t-120.5 109t-123 99.5l78 1l-78 -72l-170 165l26 119l642 301l11 -155l-496 -213l5 41q131 -103 239 -208t172 -201t64 -174q0 -75 -41.5 -134.5t-101.5 -59.5h-544zM902 0q-30 0 -42 22t-12 67
q0 49 11 69.5t43 20.5v-179zM678 19l59 160h505v-179h-170l35 48q41 -73 41 -144q0 -92 -61.5 -167.5t-165.5 -124.5q-89 -41 -194 -66.5t-198 -25.5q-147 0 -244 60.5t-144.5 165t-47.5 237.5q0 158 64 335l102 -25q-21 -74 -33 -140.5t-12 -124.5q0 -144 76.5 -228.5
t244.5 -84.5q78 0 169.5 18t170.5 48q69 24 111 54t42 60q0 22 -19.5 40t-57.5 32q-32 15 -79.5 23t-96.5 12t-89 4zM1242 0v179q31 0 42.5 -20.5t11.5 -69.5q0 -45 -12 -67t-42 -22zM50 387l-4 1l-8 80l94 38l5 -34q-40 25 -58 59t-18 71q0 70 45.5 119t119.5 49
q39 0 72.5 -14.5t59.5 -34.5l-28 -77q-25 11 -48.5 18.5t-46.5 9.5q-49 5 -73.5 -15.5t-24.5 -41.5q0 -28 36.5 -51.5t72.5 -16.5l47.5 9.5l87.5 17.5l-20 -101q-108 -20 -184 -41.5t-127 -44.5z" />
    <glyph glyph-name="kaf_yehHamzaabovear.fina" unicode="&#xfedc;&#xfe8a;" horiz-adv-x="1730" 
d="M907 0v179h462q53 0 75.5 6.5t22.5 23.5q0 19 -32 61q-55 76 -141.5 154.5t-174.5 149.5l58 14l-76 -69l-170 165l26 119l642 301l11 -155l-499 -214l3 44q116 -96 196 -171t132 -137.5t86 -118t60 -112.5q16 -35 36.5 -48t79.5 -13h26v-179q-46 0 -84.5 3t-75 14.5
t-78.5 37.5l88 10q-13 -20 -46 -35t-85.5 -22.5t-126.5 -7.5h-415zM907 0q-30 0 -42 22t-12 67q0 49 11 69.5t43 20.5v-179zM1730 0v179q32 0 43.5 -20.5t11.5 -69.5q0 -45 -12 -67t-43 -22zM678 19l59 160h505v-179h-170l35 48q41 -73 41 -144q0 -92 -61.5 -167.5
t-165.5 -124.5q-89 -41 -194 -66.5t-198 -25.5q-147 0 -244 60.5t-144.5 165t-47.5 237.5q0 158 64 335l102 -25q-21 -74 -33 -140.5t-12 -124.5q0 -144 76.5 -228.5t244.5 -84.5q78 0 169.5 18t170.5 48q69 24 111 54t42 60q0 22 -19.5 40t-57.5 32q-32 15 -79.5 23
t-96.5 12t-89 4zM1242 0v179q31 0 42.5 -20.5t11.5 -69.5q0 -45 -12 -67t-42 -22zM50 387l-4 1l-8 80l94 38l5 -34q-40 25 -58 59t-18 71q0 70 45.5 119t119.5 49q39 0 72.5 -14.5t59.5 -34.5l-28 -77q-25 11 -48.5 18.5t-46.5 9.5q-49 5 -73.5 -15.5t-24.5 -41.5
q0 -28 36.5 -51.5t72.5 -16.5l47.5 9.5l87.5 17.5l-20 -101q-108 -20 -184 -41.5t-127 -44.5z" />
    <glyph glyph-name="kaf_yehbarreear.fina.liga" unicode="&#xfedc;&#xfbaf;" horiz-adv-x="1121" 
d="M296 -32q-44 -17 -64 -44t-21 -61q-2 -20 7.5 -29.5t39.5 -14.5q34 -4 103 -6.5t157 -2.5q119 0 238.5 4t223.5 12l-12 -178q-117 -9 -225 -13t-214 -4q-86 0 -170 5t-139 21q-27 8 -45 18.5t-30 22.5q-22 23 -40 74t-17 112q2 97 44.5 156t112.5 89t158 40t181 10h175
q53 0 75.5 6.5t22.5 23.5q0 19 -32 61q-58 81 -153 165.5t-189 160.5l112 17l-104 -94l-170 165l27 119l641 301l11 -155l-541 -232l5 93q129 -102 215.5 -182t143 -146t92.5 -124.5t63 -117.5q16 -35 36.5 -48t80.5 -13h26v-179q-49 0 -89 3.5t-78 16.5t-85 42l88 -13
q-29 -25 -90 -37t-155 -12h-103q-123 0 -195.5 -6.5t-117.5 -25.5zM1121 0v179q31 0 42.5 -20.5t11.5 -69.5q0 -45 -12 -67t-42 -22z" />
    <glyph glyph-name="kaf_yehbarreear.liga" unicode="&#xfedb;&#xfbaf;" horiz-adv-x="1072" 
d="M529 -369q-86 0 -170 5t-139 21q-27 8 -45 18.5t-30 22.5q-22 23 -40 74t-17 112q2 97 44.5 156t112.5 89t158 40t181 10h229q45 0 45 24q0 13 -12.5 33.5t-23.5 35.5q-39 53 -95.5 109t-121.5 110.5t-129 103.5l112 20l-105 -96l-170 165l27 119l641 301l11 -155
l-538 -231l18 81q104 -80 195 -161.5t160.5 -160.5t109 -151t39.5 -132q0 -75 -41.5 -134.5t-101.5 -59.5h-240q-106 0 -177.5 -6.5t-119.5 -25.5q-44 -17 -64 -44t-21 -61q-2 -20 7.5 -29.5t39.5 -14.5q34 -4 103 -6.5t157 -2.5q119 0 238.5 4t223.5 12l-12 -178
q-117 -9 -225 -13t-214 -4z" />
    <glyph glyph-name="keheh_alefMaksuraar" unicode="&#xfb90;&#xfef0;" horiz-adv-x="1688" 
d="M678 19l59 160h505v-179h-170l35 48q41 -73 41 -144q0 -92 -61.5 -167.5t-165.5 -124.5q-89 -41 -194 -66.5t-198 -25.5q-147 0 -244 60.5t-144.5 165t-47.5 237.5q0 158 64 335l102 -25q-21 -74 -33 -140.5t-12 -124.5q0 -144 76.5 -228.5t244.5 -84.5q78 0 169.5 18
t170.5 48q69 24 111 54t42 60q0 22 -19.5 40t-57.5 32q-32 15 -79.5 23t-96.5 12t-89 4zM1242 0v179q31 0 42.5 -20.5t11.5 -69.5q0 -45 -12 -67t-42 -22zM902 0v179h524q45 0 45 24q0 13 -12.5 33.5t-23.5 35.5q-39 54 -95.5 109.5t-120.5 109t-123 99.5l78 1l-78 -72
l-170 165l26 119l642 301l11 -155l-496 -213l5 41q131 -103 239 -208t172 -201t64 -174q0 -75 -41.5 -134.5t-101.5 -59.5h-544zM902 0q-30 0 -42 22t-12 67q0 49 11 69.5t43 20.5v-179z" />
    <glyph glyph-name="keheh_alefMaksuraar.fina" unicode="&#xfb91;&#xfef0;" horiz-adv-x="1730" 
d="M907 0v179h462q53 0 75.5 6.5t22.5 23.5q0 19 -32 61q-55 76 -141.5 154.5t-174.5 149.5l58 14l-76 -69l-170 165l26 119l642 301l11 -155l-499 -214l3 44q116 -96 196 -171t132 -137.5t86 -118t60 -112.5q16 -35 36.5 -48t79.5 -13h26v-179q-46 0 -84.5 3t-75 14.5
t-78.5 37.5l88 10q-13 -20 -46 -35t-85.5 -22.5t-126.5 -7.5h-415zM907 0q-30 0 -42 22t-12 67q0 49 11 69.5t43 20.5v-179zM1730 0v179q32 0 43.5 -20.5t11.5 -69.5q0 -45 -12 -67t-43 -22zM678 19l59 160h505v-179h-170l35 48q41 -73 41 -144q0 -92 -61.5 -167.5
t-165.5 -124.5q-89 -41 -194 -66.5t-198 -25.5q-147 0 -244 60.5t-144.5 165t-47.5 237.5q0 158 64 335l102 -25q-21 -74 -33 -140.5t-12 -124.5q0 -144 76.5 -228.5t244.5 -84.5q78 0 169.5 18t170.5 48q69 24 111 54t42 60q0 22 -19.5 40t-57.5 32q-32 15 -79.5 23
t-96.5 12t-89 4zM1242 0v179q31 0 42.5 -20.5t11.5 -69.5q0 -45 -12 -67t-42 -22z" />
    <glyph glyph-name="keheh_yehar" unicode="&#xfb90;&#xfef2;" horiz-adv-x="1688" 
d="M722 -817l-153 114l93 118l151 -114zM476 -817l-152 114l92 118l152 -114zM902 0v179h524q45 0 45 24q0 13 -12.5 33.5t-23.5 35.5q-39 54 -95.5 109.5t-120.5 109t-123 99.5l78 1l-78 -72l-170 165l26 119l642 301l11 -155l-496 -213l5 41q131 -103 239 -208t172 -201
t64 -174q0 -75 -41.5 -134.5t-101.5 -59.5h-544zM902 0q-30 0 -42 22t-12 67q0 49 11 69.5t43 20.5v-179zM678 19l59 160h505v-179h-170l35 48q41 -73 41 -144q0 -92 -61.5 -167.5t-165.5 -124.5q-89 -41 -194 -66.5t-198 -25.5q-147 0 -244 60.5t-144.5 165t-47.5 237.5
q0 158 64 335l102 -25q-21 -74 -33 -140.5t-12 -124.5q0 -144 76.5 -228.5t244.5 -84.5q78 0 169.5 18t170.5 48q69 24 111 54t42 60q0 22 -19.5 40t-57.5 32q-32 15 -79.5 23t-96.5 12t-89 4zM1242 0v179q31 0 42.5 -20.5t11.5 -69.5q0 -45 -12 -67t-42 -22z" />
    <glyph glyph-name="keheh_yehar.fina" unicode="&#xfb91;&#xfef2;" horiz-adv-x="1730" 
d="M722 -817l-153 114l93 118l151 -114zM476 -817l-152 114l92 118l152 -114zM907 0v179h462q53 0 75.5 6.5t22.5 23.5q0 19 -32 61q-55 76 -141.5 154.5t-174.5 149.5l58 14l-76 -69l-170 165l26 119l642 301l11 -155l-499 -214l3 44q116 -96 196 -171t132 -137.5t86 -118
t60 -112.5q16 -35 36.5 -48t79.5 -13h26v-179q-46 0 -84.5 3t-75 14.5t-78.5 37.5l88 10q-13 -20 -46 -35t-85.5 -22.5t-126.5 -7.5h-415zM907 0q-30 0 -42 22t-12 67q0 49 11 69.5t43 20.5v-179zM1730 0v179q32 0 43.5 -20.5t11.5 -69.5q0 -45 -12 -67t-43 -22zM678 19
l59 160h505v-179h-170l35 48q41 -73 41 -144q0 -92 -61.5 -167.5t-165.5 -124.5q-89 -41 -194 -66.5t-198 -25.5q-147 0 -244 60.5t-144.5 165t-47.5 237.5q0 158 64 335l102 -25q-21 -74 -33 -140.5t-12 -124.5q0 -144 76.5 -228.5t244.5 -84.5q78 0 169.5 18t170.5 48
q69 24 111 54t42 60q0 22 -19.5 40t-57.5 32q-32 15 -79.5 23t-96.5 12t-89 4zM1242 0v179q31 0 42.5 -20.5t11.5 -69.5q0 -45 -12 -67t-42 -22z" />
    <glyph glyph-name="keheh_yehar.fina.loclFAR.isol" unicode="&#xfb8f;&#xfef2;" horiz-adv-x="1730" 
d="M907 0v179h462q53 0 75.5 6.5t22.5 23.5q0 19 -32 61q-55 76 -141.5 154.5t-174.5 149.5l58 14l-76 -69l-170 165l26 119l642 301l11 -155l-499 -214l3 44q116 -96 196 -171t132 -137.5t86 -118t60 -112.5q16 -35 36.5 -48t79.5 -13h26v-179q-46 0 -84.5 3t-75 14.5
t-78.5 37.5l88 10q-13 -20 -46 -35t-85.5 -22.5t-126.5 -7.5h-415zM907 0q-30 0 -42 22t-12 67q0 49 11 69.5t43 20.5v-179zM1730 0v179q32 0 43.5 -20.5t11.5 -69.5q0 -45 -12 -67t-43 -22zM678 19l59 160h505v-179h-170l35 48q41 -73 41 -144q0 -92 -61.5 -167.5
t-165.5 -124.5q-89 -41 -194 -66.5t-198 -25.5q-147 0 -244 60.5t-144.5 165t-47.5 237.5q0 158 64 335l102 -25q-21 -74 -33 -140.5t-12 -124.5q0 -144 76.5 -228.5t244.5 -84.5q78 0 169.5 18t170.5 48q69 24 111 54t42 60q0 22 -19.5 40t-57.5 32q-32 15 -79.5 23
t-96.5 12t-89 4zM1242 0v179q31 0 42.5 -20.5t11.5 -69.5q0 -45 -12 -67t-42 -22z" />
    <glyph glyph-name="keheh_yehar.loclFAR.isol" unicode="&#x6a9;&#x64a;" horiz-adv-x="1688" 
d="M678 19l59 160h505v-179h-170l35 48q41 -73 41 -144q0 -92 -61.5 -167.5t-165.5 -124.5q-89 -41 -194 -66.5t-198 -25.5q-147 0 -244 60.5t-144.5 165t-47.5 237.5q0 158 64 335l102 -25q-21 -74 -33 -140.5t-12 -124.5q0 -144 76.5 -228.5t244.5 -84.5q78 0 169.5 18
t170.5 48q69 24 111 54t42 60q0 22 -19.5 40t-57.5 32q-32 15 -79.5 23t-96.5 12t-89 4zM1242 0v179q31 0 42.5 -20.5t11.5 -69.5q0 -45 -12 -67t-42 -22zM902 0v179h524q45 0 45 24q0 13 -12.5 33.5t-23.5 35.5q-39 54 -95.5 109.5t-120.5 109t-123 99.5l78 1l-78 -72
l-170 165l26 119l642 301l11 -155l-496 -213l5 41q131 -103 239 -208t172 -201t64 -174q0 -75 -41.5 -134.5t-101.5 -59.5h-544zM902 0q-30 0 -42 22t-12 67q0 49 11 69.5t43 20.5v-179z" />
    <glyph glyph-name="keheh_yehHamzaabovear" unicode="&#xfb90;&#xfe8a;" horiz-adv-x="1688" 
d="M902 0v179h524q45 0 45 24q0 13 -12.5 33.5t-23.5 35.5q-39 54 -95.5 109.5t-120.5 109t-123 99.5l78 1l-78 -72l-170 165l26 119l642 301l11 -155l-496 -213l5 41q131 -103 239 -208t172 -201t64 -174q0 -75 -41.5 -134.5t-101.5 -59.5h-544zM902 0q-30 0 -42 22t-12 67
q0 49 11 69.5t43 20.5v-179zM678 19l59 160h505v-179h-170l35 48q41 -73 41 -144q0 -92 -61.5 -167.5t-165.5 -124.5q-89 -41 -194 -66.5t-198 -25.5q-147 0 -244 60.5t-144.5 165t-47.5 237.5q0 158 64 335l102 -25q-21 -74 -33 -140.5t-12 -124.5q0 -144 76.5 -228.5
t244.5 -84.5q78 0 169.5 18t170.5 48q69 24 111 54t42 60q0 22 -19.5 40t-57.5 32q-32 15 -79.5 23t-96.5 12t-89 4zM1242 0v179q31 0 42.5 -20.5t11.5 -69.5q0 -45 -12 -67t-42 -22zM50 387l-4 1l-8 80l94 38l5 -34q-40 25 -58 59t-18 71q0 70 45.5 119t119.5 49
q39 0 72.5 -14.5t59.5 -34.5l-28 -77q-25 11 -48.5 18.5t-46.5 9.5q-49 5 -73.5 -15.5t-24.5 -41.5q0 -28 36.5 -51.5t72.5 -16.5l47.5 9.5l87.5 17.5l-20 -101q-108 -20 -184 -41.5t-127 -44.5z" />
    <glyph glyph-name="keheh_yehHamzaabovear.fina" unicode="&#xfb91;&#xfe8a;" horiz-adv-x="1730" 
d="M907 0v179h462q53 0 75.5 6.5t22.5 23.5q0 19 -32 61q-55 76 -141.5 154.5t-174.5 149.5l58 14l-76 -69l-170 165l26 119l642 301l11 -155l-499 -214l3 44q116 -96 196 -171t132 -137.5t86 -118t60 -112.5q16 -35 36.5 -48t79.5 -13h26v-179q-46 0 -84.5 3t-75 14.5
t-78.5 37.5l88 10q-13 -20 -46 -35t-85.5 -22.5t-126.5 -7.5h-415zM907 0q-30 0 -42 22t-12 67q0 49 11 69.5t43 20.5v-179zM1730 0v179q32 0 43.5 -20.5t11.5 -69.5q0 -45 -12 -67t-43 -22zM678 19l59 160h505v-179h-170l35 48q41 -73 41 -144q0 -92 -61.5 -167.5
t-165.5 -124.5q-89 -41 -194 -66.5t-198 -25.5q-147 0 -244 60.5t-144.5 165t-47.5 237.5q0 158 64 335l102 -25q-21 -74 -33 -140.5t-12 -124.5q0 -144 76.5 -228.5t244.5 -84.5q78 0 169.5 18t170.5 48q69 24 111 54t42 60q0 22 -19.5 40t-57.5 32q-32 15 -79.5 23
t-96.5 12t-89 4zM1242 0v179q31 0 42.5 -20.5t11.5 -69.5q0 -45 -12 -67t-42 -22zM50 387l-4 1l-8 80l94 38l5 -34q-40 25 -58 59t-18 71q0 70 45.5 119t119.5 49q39 0 72.5 -14.5t59.5 -34.5l-28 -77q-25 11 -48.5 18.5t-46.5 9.5q-49 5 -73.5 -15.5t-24.5 -41.5
q0 -28 36.5 -51.5t72.5 -16.5l47.5 9.5l87.5 17.5l-20 -101q-108 -20 -184 -41.5t-127 -44.5z" />
    <glyph glyph-name="keheh_yehbarreear.fina.liga" unicode="&#xfb91;&#xfbaf;" horiz-adv-x="1121" 
d="M296 -32q-44 -17 -64 -44t-21 -61q-2 -20 7.5 -29.5t39.5 -14.5q34 -4 103 -6.5t157 -2.5q119 0 238.5 4t223.5 12l-12 -178q-117 -9 -225 -13t-214 -4q-86 0 -170 5t-139 21q-27 8 -45 18.5t-30 22.5q-22 23 -40 74t-17 112q2 97 44.5 156t112.5 89t158 40t181 10h175
q53 0 75.5 6.5t22.5 23.5q0 19 -32 61q-58 81 -153 165.5t-189 160.5l112 17l-104 -94l-170 165l27 119l641 301l11 -155l-541 -232l5 93q129 -102 215.5 -182t143 -146t92.5 -124.5t63 -117.5q16 -35 36.5 -48t80.5 -13h26v-179q-49 0 -89 3.5t-78 16.5t-85 42l88 -13
q-29 -25 -90 -37t-155 -12h-103q-123 0 -195.5 -6.5t-117.5 -25.5zM1121 0v179q31 0 42.5 -20.5t11.5 -69.5q0 -45 -12 -67t-42 -22z" />
    <glyph glyph-name="keheh_yehbarreear.liga" unicode="&#xfb90;&#xfbaf;" horiz-adv-x="1072" 
d="M529 -369q-86 0 -170 5t-139 21q-27 8 -45 18.5t-30 22.5q-22 23 -40 74t-17 112q2 97 44.5 156t112.5 89t158 40t181 10h229q45 0 45 24q0 13 -12.5 33.5t-23.5 35.5q-39 53 -95.5 109t-121.5 110.5t-129 103.5l112 20l-105 -96l-170 165l27 119l641 301l11 -155
l-538 -231l18 81q104 -80 195 -161.5t160.5 -160.5t109 -151t39.5 -132q0 -75 -41.5 -134.5t-101.5 -59.5h-240q-106 0 -177.5 -6.5t-119.5 -25.5q-44 -17 -64 -44t-21 -61q-2 -20 7.5 -29.5t39.5 -14.5q34 -4 103 -6.5t157 -2.5q119 0 238.5 4t223.5 12l-12 -178
q-117 -9 -225 -13t-214 -4z" />
    <glyph glyph-name="gaf_alefMaksuraar" unicode="&#xfb94;&#xfef0;" horiz-adv-x="1688" 
d="M678 19l59 160h505v-179h-170l35 48q41 -73 41 -144q0 -92 -61.5 -167.5t-165.5 -124.5q-89 -41 -194 -66.5t-198 -25.5q-147 0 -244 60.5t-144.5 165t-47.5 237.5q0 158 64 335l102 -25q-21 -74 -33 -140.5t-12 -124.5q0 -144 76.5 -228.5t244.5 -84.5q78 0 169.5 18
t170.5 48q69 24 111 54t42 60q0 22 -19.5 40t-57.5 32q-32 15 -79.5 23t-96.5 12t-89 4zM1242 0v179q31 0 42.5 -20.5t11.5 -69.5q0 -45 -12 -67t-42 -22zM961 937v107l526 263v-121zM902 0v179h524q45 0 45 24q0 13 -12.5 33.5t-23.5 35.5q-39 54 -95.5 109.5t-120.5 109
t-123 99.5l78 1l-78 -72l-170 165l26 119l642 301l11 -155l-496 -213l5 41q131 -103 239 -208t172 -201t64 -174q0 -75 -41.5 -134.5t-101.5 -59.5h-544zM902 0q-30 0 -42 22t-12 67q0 49 11 69.5t43 20.5v-179z" />
    <glyph glyph-name="gaf_alefMaksuraar.fina" unicode="&#xfb95;&#xfef0;" horiz-adv-x="1729" 
d="M965 930v107l526 264v-121zM906 0v179h462q53 0 75.5 6.5t22.5 23.5q0 19 -32 61q-55 76 -141.5 154.5t-174.5 149.5l58 14l-76 -69l-170 165l26 119l642 301l11 -155l-499 -214l3 44q116 -96 196 -171t132 -137.5t86 -118t60 -112.5q16 -35 36.5 -48t79.5 -13h26v-179
q-46 0 -84.5 3t-75 14.5t-78.5 37.5l88 10q-13 -20 -46 -35t-85.5 -22.5t-126.5 -7.5h-415zM906 0q-30 0 -42 22t-12 67q0 49 11 69.5t43 20.5v-179zM1729 0v179q32 0 43.5 -20.5t11.5 -69.5q0 -45 -12 -67t-43 -22zM678 19l59 160h505v-179h-170l35 48q41 -73 41 -144
q0 -92 -61.5 -167.5t-165.5 -124.5q-89 -41 -194 -66.5t-198 -25.5q-147 0 -244 60.5t-144.5 165t-47.5 237.5q0 158 64 335l102 -25q-21 -74 -33 -140.5t-12 -124.5q0 -144 76.5 -228.5t244.5 -84.5q78 0 169.5 18t170.5 48q69 24 111 54t42 60q0 22 -19.5 40t-57.5 32
q-32 15 -79.5 23t-96.5 12t-89 4zM1242 0v179q31 0 42.5 -20.5t11.5 -69.5q0 -45 -12 -67t-42 -22z" />
    <glyph glyph-name="gaf_yehar" unicode="&#xfb94;&#xfef2;" horiz-adv-x="1688" 
d="M722 -817l-153 114l93 118l151 -114zM476 -817l-152 114l92 118l152 -114zM678 19l59 160h505v-179h-170l35 48q41 -73 41 -144q0 -92 -61.5 -167.5t-165.5 -124.5q-89 -41 -194 -66.5t-198 -25.5q-147 0 -244 60.5t-144.5 165t-47.5 237.5q0 158 64 335l102 -25
q-21 -74 -33 -140.5t-12 -124.5q0 -144 76.5 -228.5t244.5 -84.5q78 0 169.5 18t170.5 48q69 24 111 54t42 60q0 22 -19.5 40t-57.5 32q-32 15 -79.5 23t-96.5 12t-89 4zM1242 0v179q31 0 42.5 -20.5t11.5 -69.5q0 -45 -12 -67t-42 -22zM961 937v107l526 263v-121zM902 0
v179h524q45 0 45 24q0 13 -12.5 33.5t-23.5 35.5q-39 54 -95.5 109.5t-120.5 109t-123 99.5l78 1l-78 -72l-170 165l26 119l642 301l11 -155l-496 -213l5 41q131 -103 239 -208t172 -201t64 -174q0 -75 -41.5 -134.5t-101.5 -59.5h-544zM902 0q-30 0 -42 22t-12 67
q0 49 11 69.5t43 20.5v-179z" />
    <glyph glyph-name="gaf_yehar.fina" unicode="&#xfb95;&#xfef2;" horiz-adv-x="1730" 
d="M722 -817l-153 114l93 118l151 -114zM476 -817l-152 114l92 118l152 -114zM966 930v107l526 264v-121zM907 0v179h462q53 0 75.5 6.5t22.5 23.5q0 19 -32 61q-55 76 -141.5 154.5t-174.5 149.5l58 14l-76 -69l-170 165l26 119l642 301l11 -155l-499 -214l3 44
q116 -96 196 -171t132 -137.5t86 -118t60 -112.5q16 -35 36.5 -48t79.5 -13h26v-179q-46 0 -84.5 3t-75 14.5t-78.5 37.5l88 10q-13 -20 -46 -35t-85.5 -22.5t-126.5 -7.5h-415zM907 0q-30 0 -42 22t-12 67q0 49 11 69.5t43 20.5v-179zM1730 0v179q32 0 43.5 -20.5
t11.5 -69.5q0 -45 -12 -67t-43 -22zM678 19l59 160h505v-179h-170l35 48q41 -73 41 -144q0 -92 -61.5 -167.5t-165.5 -124.5q-89 -41 -194 -66.5t-198 -25.5q-147 0 -244 60.5t-144.5 165t-47.5 237.5q0 158 64 335l102 -25q-21 -74 -33 -140.5t-12 -124.5
q0 -144 76.5 -228.5t244.5 -84.5q78 0 169.5 18t170.5 48q69 24 111 54t42 60q0 22 -19.5 40t-57.5 32q-32 15 -79.5 23t-96.5 12t-89 4zM1242 0v179q31 0 42.5 -20.5t11.5 -69.5q0 -45 -12 -67t-42 -22z" />
    <glyph glyph-name="gaf_yehar.fina.loclFAR.isol" unicode="&#xfb93;&#xfef2;" horiz-adv-x="1729" 
d="M965 930v107l526 264v-121zM906 0v179h462q53 0 75.5 6.5t22.5 23.5q0 19 -32 61q-55 76 -141.5 154.5t-174.5 149.5l58 14l-76 -69l-170 165l26 119l642 301l11 -155l-499 -214l3 44q116 -96 196 -171t132 -137.5t86 -118t60 -112.5q16 -35 36.5 -48t79.5 -13h26v-179
q-46 0 -84.5 3t-75 14.5t-78.5 37.5l88 10q-13 -20 -46 -35t-85.5 -22.5t-126.5 -7.5h-415zM906 0q-30 0 -42 22t-12 67q0 49 11 69.5t43 20.5v-179zM1729 0v179q32 0 43.5 -20.5t11.5 -69.5q0 -45 -12 -67t-43 -22zM678 19l59 160h505v-179h-170l35 48q41 -73 41 -144
q0 -92 -61.5 -167.5t-165.5 -124.5q-89 -41 -194 -66.5t-198 -25.5q-147 0 -244 60.5t-144.5 165t-47.5 237.5q0 158 64 335l102 -25q-21 -74 -33 -140.5t-12 -124.5q0 -144 76.5 -228.5t244.5 -84.5q78 0 169.5 18t170.5 48q69 24 111 54t42 60q0 22 -19.5 40t-57.5 32
q-32 15 -79.5 23t-96.5 12t-89 4zM1242 0v179q31 0 42.5 -20.5t11.5 -69.5q0 -45 -12 -67t-42 -22z" />
    <glyph glyph-name="gaf_yehar.loclFAR.isol" unicode="&#x6af;&#x64a;" horiz-adv-x="1688" 
d="M678 19l59 160h505v-179h-170l35 48q41 -73 41 -144q0 -92 -61.5 -167.5t-165.5 -124.5q-89 -41 -194 -66.5t-198 -25.5q-147 0 -244 60.5t-144.5 165t-47.5 237.5q0 158 64 335l102 -25q-21 -74 -33 -140.5t-12 -124.5q0 -144 76.5 -228.5t244.5 -84.5q78 0 169.5 18
t170.5 48q69 24 111 54t42 60q0 22 -19.5 40t-57.5 32q-32 15 -79.5 23t-96.5 12t-89 4zM1242 0v179q31 0 42.5 -20.5t11.5 -69.5q0 -45 -12 -67t-42 -22zM961 937v107l526 263v-121zM902 0v179h524q45 0 45 24q0 13 -12.5 33.5t-23.5 35.5q-39 54 -95.5 109.5t-120.5 109
t-123 99.5l78 1l-78 -72l-170 165l26 119l642 301l11 -155l-496 -213l5 41q131 -103 239 -208t172 -201t64 -174q0 -75 -41.5 -134.5t-101.5 -59.5h-544zM902 0q-30 0 -42 22t-12 67q0 49 11 69.5t43 20.5v-179z" />
    <glyph glyph-name="gaf_yehHamzaabovear" unicode="&#xfb94;&#xfe8a;" horiz-adv-x="1688" 
d="M678 19l59 160h505v-179h-170l35 48q41 -73 41 -144q0 -92 -61.5 -167.5t-165.5 -124.5q-89 -41 -194 -66.5t-198 -25.5q-147 0 -244 60.5t-144.5 165t-47.5 237.5q0 158 64 335l102 -25q-21 -74 -33 -140.5t-12 -124.5q0 -144 76.5 -228.5t244.5 -84.5q78 0 169.5 18
t170.5 48q69 24 111 54t42 60q0 22 -19.5 40t-57.5 32q-32 15 -79.5 23t-96.5 12t-89 4zM1242 0v179q31 0 42.5 -20.5t11.5 -69.5q0 -45 -12 -67t-42 -22zM50 387l-4 1l-8 80l94 38l5 -34q-40 25 -58 59t-18 71q0 70 45.5 119t119.5 49q39 0 72.5 -14.5t59.5 -34.5l-28 -77
q-25 11 -48.5 18.5t-46.5 9.5q-49 5 -73.5 -15.5t-24.5 -41.5q0 -28 36.5 -51.5t72.5 -16.5l47.5 9.5l87.5 17.5l-20 -101q-108 -20 -184 -41.5t-127 -44.5zM961 937v107l526 263v-121zM902 0v179h524q45 0 45 24q0 13 -12.5 33.5t-23.5 35.5q-39 54 -95.5 109.5t-120.5 109
t-123 99.5l78 1l-78 -72l-170 165l26 119l642 301l11 -155l-496 -213l5 41q131 -103 239 -208t172 -201t64 -174q0 -75 -41.5 -134.5t-101.5 -59.5h-544zM902 0q-30 0 -42 22t-12 67q0 49 11 69.5t43 20.5v-179z" />
    <glyph glyph-name="gaf_yehHamzaabovear.fina" unicode="&#xfb95;&#xfe8a;" horiz-adv-x="1730" 
d="M966 930v107l526 264v-121zM907 0v179h462q53 0 75.5 6.5t22.5 23.5q0 19 -32 61q-55 76 -141.5 154.5t-174.5 149.5l58 14l-76 -69l-170 165l26 119l642 301l11 -155l-499 -214l3 44q116 -96 196 -171t132 -137.5t86 -118t60 -112.5q16 -35 36.5 -48t79.5 -13h26v-179
q-46 0 -84.5 3t-75 14.5t-78.5 37.5l88 10q-13 -20 -46 -35t-85.5 -22.5t-126.5 -7.5h-415zM907 0q-30 0 -42 22t-12 67q0 49 11 69.5t43 20.5v-179zM1730 0v179q32 0 43.5 -20.5t11.5 -69.5q0 -45 -12 -67t-43 -22zM678 19l59 160h505v-179h-170l35 48q41 -73 41 -144
q0 -92 -61.5 -167.5t-165.5 -124.5q-89 -41 -194 -66.5t-198 -25.5q-147 0 -244 60.5t-144.5 165t-47.5 237.5q0 158 64 335l102 -25q-21 -74 -33 -140.5t-12 -124.5q0 -144 76.5 -228.5t244.5 -84.5q78 0 169.5 18t170.5 48q69 24 111 54t42 60q0 22 -19.5 40t-57.5 32
q-32 15 -79.5 23t-96.5 12t-89 4zM1242 0v179q31 0 42.5 -20.5t11.5 -69.5q0 -45 -12 -67t-42 -22zM50 387l-4 1l-8 80l94 38l5 -34q-40 25 -58 59t-18 71q0 70 45.5 119t119.5 49q39 0 72.5 -14.5t59.5 -34.5l-28 -77q-25 11 -48.5 18.5t-46.5 9.5q-49 5 -73.5 -15.5
t-24.5 -41.5q0 -28 36.5 -51.5t72.5 -16.5l47.5 9.5l87.5 17.5l-20 -101q-108 -20 -184 -41.5t-127 -44.5z" />
    <glyph glyph-name="gaf_yehbarreear.fina.liga" unicode="&#xfb95;&#xfbaf;" horiz-adv-x="1121" 
d="M356 930v107l526 264v-121zM296 -32q-44 -17 -64 -44t-21 -61q-2 -20 7.5 -29.5t39.5 -14.5q34 -4 103 -6.5t157 -2.5q119 0 238.5 4t223.5 12l-12 -178q-117 -9 -225 -13t-214 -4q-86 0 -170 5t-139 21q-27 8 -45 18.5t-30 22.5q-22 23 -40 74t-17 112q2 97 44.5 156
t112.5 89t158 40t181 10h175q53 0 75.5 6.5t22.5 23.5q0 19 -32 61q-58 81 -153 165.5t-189 160.5l112 17l-104 -94l-170 165l27 119l641 301l11 -155l-541 -232l5 93q129 -102 215.5 -182t143 -146t92.5 -124.5t63 -117.5q16 -35 36.5 -48t80.5 -13h26v-179q-49 0 -89 3.5
t-78 16.5t-85 42l88 -13q-29 -25 -90 -37t-155 -12h-103q-123 0 -195.5 -6.5t-117.5 -25.5zM1121 0v179q31 0 42.5 -20.5t11.5 -69.5q0 -45 -12 -67t-42 -22z" />
    <glyph glyph-name="gaf_yehbarreear.liga" unicode="&#xfb94;&#xfbaf;" horiz-adv-x="1072" 
d="M348 937v107l526 263v-121zM529 -369q-86 0 -170 5t-139 21q-27 8 -45 18.5t-30 22.5q-22 23 -40 74t-17 112q2 97 44.5 156t112.5 89t158 40t181 10h229q45 0 45 24q0 13 -12.5 33.5t-23.5 35.5q-39 53 -95.5 109t-121.5 110.5t-129 103.5l112 20l-105 -96l-170 165
l27 119l641 301l11 -155l-538 -231l18 81q104 -80 195 -161.5t160.5 -160.5t109 -151t39.5 -132q0 -75 -41.5 -134.5t-101.5 -59.5h-240q-106 0 -177.5 -6.5t-119.5 -25.5q-44 -17 -64 -44t-21 -61q-2 -20 7.5 -29.5t39.5 -14.5q34 -4 103 -6.5t157 -2.5q119 0 238.5 4
t223.5 12l-12 -178q-117 -9 -225 -13t-214 -4z" />
    <glyph glyph-name="uniFC44.fina.loclFAR.isol" unicode="&#xfede;&#xfef2;" horiz-adv-x="1606" 
d="M1136 0v179h126q65 0 79.5 11t10.5 50q-4 28 -8 68t-10 87q-19 164 -40.5 333.5t-42.5 321.5l142 10q11 -105 22.5 -225t22 -234.5t18.5 -206.5t11 -141q3 -48 19 -61t77 -13h43v-179h-45q-52 0 -104 9.5t-95 48.5h90q-43 -37 -95.5 -47.5t-114.5 -10.5h-106zM1136 0
q-30 0 -42 22t-12 67q0 49 11 69.5t43 20.5v-179zM1606 0v179q32 0 43 -20.5t11 -69.5q0 -45 -12 -67t-42 -22zM678 19l59 160h505v-179h-170l35 48q41 -73 41 -144q0 -92 -61.5 -167.5t-165.5 -124.5q-89 -41 -194 -66.5t-198 -25.5q-147 0 -244 60.5t-144.5 165
t-47.5 237.5q0 158 64 335l102 -25q-21 -74 -33 -140.5t-12 -124.5q0 -144 76.5 -228.5t244.5 -84.5q78 0 169.5 18t170.5 48q69 24 111 54t42 60q0 22 -19.5 40t-57.5 32q-32 15 -79.5 23t-96.5 12t-89 4zM1242 0v179q31 0 42.5 -20.5t11.5 -69.5q0 -45 -12 -67t-42 -22z
" />
    <glyph glyph-name="uniFC44.loclFAR.isol" unicode="&#x644;&#x64a;" horiz-adv-x="1549" 
d="M1136 0v179h149q43 0 55 12.5t8 55.5q-6 57 -14 129t-18 154t-21 169.5t-23 176t-24 174.5l142 10q11 -110 23 -232.5t23 -238t18.5 -204t10.5 -130.5q5 -62 -4 -104.5t-42 -91.5q-25 -35 -60 -47t-100 -12h-123zM1136 0q-30 0 -42 22t-12 67q0 49 11 69.5t43 20.5v-179z
M678 19l59 160h505v-179h-170l35 48q41 -73 41 -144q0 -92 -61.5 -167.5t-165.5 -124.5q-89 -41 -194 -66.5t-198 -25.5q-147 0 -244 60.5t-144.5 165t-47.5 237.5q0 158 64 335l102 -25q-21 -74 -33 -140.5t-12 -124.5q0 -144 76.5 -228.5t244.5 -84.5q78 0 169.5 18
t170.5 48q69 24 111 54t42 60q0 22 -19.5 40t-57.5 32q-32 15 -79.5 23t-96.5 12t-89 4zM1242 0v179q31 0 42.5 -20.5t11.5 -69.5q0 -45 -12 -67t-42 -22z" />
    <glyph glyph-name="lam_yehHamzaabovear" unicode="&#xfedf;&#xfe8a;" horiz-adv-x="1549" 
d="M1136 0v179h149q43 0 55 12.5t8 55.5q-6 57 -14 129t-18 154t-21 169.5t-23 176t-24 174.5l142 10q11 -110 23 -232.5t23 -238t18.5 -204t10.5 -130.5q5 -62 -4 -104.5t-42 -91.5q-25 -35 -60 -47t-100 -12h-123zM1136 0q-30 0 -42 22t-12 67q0 49 11 69.5t43 20.5v-179z
M678 19l59 160h505v-179h-170l35 48q41 -73 41 -144q0 -92 -61.5 -167.5t-165.5 -124.5q-89 -41 -194 -66.5t-198 -25.5q-147 0 -244 60.5t-144.5 165t-47.5 237.5q0 158 64 335l102 -25q-21 -74 -33 -140.5t-12 -124.5q0 -144 76.5 -228.5t244.5 -84.5q78 0 169.5 18
t170.5 48q69 24 111 54t42 60q0 22 -19.5 40t-57.5 32q-32 15 -79.5 23t-96.5 12t-89 4zM1242 0v179q31 0 42.5 -20.5t11.5 -69.5q0 -45 -12 -67t-42 -22zM50 387l-4 1l-8 80l94 38l5 -34q-40 25 -58 59t-18 71q0 70 45.5 119t119.5 49q39 0 72.5 -14.5t59.5 -34.5l-28 -77
q-25 11 -48.5 18.5t-46.5 9.5q-49 5 -73.5 -15.5t-24.5 -41.5q0 -28 36.5 -51.5t72.5 -16.5l47.5 9.5l87.5 17.5l-20 -101q-108 -20 -184 -41.5t-127 -44.5z" />
    <glyph glyph-name="lam_yehHamzaabovear.fina" unicode="&#xfee0;&#xfe8a;" horiz-adv-x="1606" 
d="M1136 0v179h126q65 0 79.5 11t10.5 50q-4 28 -8 68t-10 87q-19 164 -40.5 333.5t-42.5 321.5l142 10q11 -105 22.5 -225t22 -234.5t18.5 -206.5t11 -141q3 -48 19 -61t77 -13h43v-179h-45q-52 0 -104 9.5t-95 48.5h90q-43 -37 -95.5 -47.5t-114.5 -10.5h-106zM1136 0
q-30 0 -42 22t-12 67q0 49 11 69.5t43 20.5v-179zM1606 0v179q32 0 43 -20.5t11 -69.5q0 -45 -12 -67t-42 -22zM678 19l59 160h505v-179h-170l35 48q41 -73 41 -144q0 -92 -61.5 -167.5t-165.5 -124.5q-89 -41 -194 -66.5t-198 -25.5q-147 0 -244 60.5t-144.5 165
t-47.5 237.5q0 158 64 335l102 -25q-21 -74 -33 -140.5t-12 -124.5q0 -144 76.5 -228.5t244.5 -84.5q78 0 169.5 18t170.5 48q69 24 111 54t42 60q0 22 -19.5 40t-57.5 32q-32 15 -79.5 23t-96.5 12t-89 4zM1242 0v179q31 0 42.5 -20.5t11.5 -69.5q0 -45 -12 -67t-42 -22z
M50 387l-4 1l-8 80l94 38l5 -34q-40 25 -58 59t-18 71q0 70 45.5 119t119.5 49q39 0 72.5 -14.5t59.5 -34.5l-28 -77q-25 11 -48.5 18.5t-46.5 9.5q-49 5 -73.5 -15.5t-24.5 -41.5q0 -28 36.5 -51.5t72.5 -16.5l47.5 9.5l87.5 17.5l-20 -101q-108 -20 -184 -41.5t-127 -44.5
z" />
    <glyph glyph-name="lam_yehbarreear.fina.liga" unicode="&#xfee0;&#xfbaf;" horiz-adv-x="1050" 
d="M1007 179h43v-179h-45q-54 0 -107 10t-97 52l94 -4q-43 -37 -95 -47.5t-114 -10.5h-77q-123 0 -195.5 -6.5t-117.5 -25.5q-44 -17 -64 -44t-21 -61q-2 -20 7.5 -29.5t39.5 -14.5q34 -4 103 -6.5t157 -2.5q119 0 238.5 4t223.5 12l-12 -178q-117 -9 -225 -13t-214 -4
q-86 0 -170 5t-139 21q-27 8 -45 18.5t-30 22.5q-22 23 -40 74t-17 112q2 97 44.5 156t112.5 89t158 40t181 10h122q65 0 79.5 11t10.5 50q-4 28 -8 68t-10 87q-19 164 -40.5 333.5t-42.5 321.5l142 10q11 -105 22.5 -225t21.5 -234.5t18 -206.5t12 -141q3 -48 19 -61
t77 -13zM1050 0v179q32 0 43 -20.5t11 -69.5q0 -45 -12 -67t-42 -22z" />
    <glyph glyph-name="lam_yehbarreear.liga" unicode="&#xfedf;&#xfbaf;" horiz-adv-x="1049" 
d="M518 -190q119 0 238.5 4t223.5 12l-12 -178q-117 -9 -225 -13t-214 -4q-86 0 -170 5t-139 21q-27 8 -45 18.5t-30 22.5q-22 23 -40 74t-17 112q2 97 44.5 156t112.5 89t158 40t181 10h149q43 0 55 12.5t8 55.5q-6 57 -14 129t-18 154t-21 169.5t-23 176t-24 174.5l142 10
q12 -110 24 -232.5t22.5 -238t18 -204t10.5 -130.5q5 -62 -4 -104.5t-42 -91.5q-25 -35 -60 -47t-100 -12h-114q-106 0 -177.5 -6.5t-119.5 -25.5q-44 -17 -64 -44t-21 -61q-2 -20 7.5 -29.5t39.5 -14.5q34 -4 103 -6.5t157 -2.5z" />
    <glyph glyph-name="meem_yehbarreear.fina.liga" unicode="&#xfee4;&#xfbaf;" horiz-adv-x="1583" 
d="M850 170q-41 -104 -102 -137t-157 -33h-18q-98 0 -165.5 -7t-111.5 -25q-44 -17 -64 -44t-21 -61q-2 -20 7.5 -29.5t39.5 -14.5q34 -4 103 -6.5t157 -2.5q119 0 238.5 4t223.5 12l-12 -178q-117 -9 -225 -13t-214 -4q-86 0 -170 5t-139 21q-27 8 -45 18.5t-30 22.5
q-22 23 -40 74t-17 112q2 96 43.5 154.5t110 89t154 41t176.5 10.5h9q68 0 109 20t67 61.5t47 106.5q41 126 104.5 201.5t166.5 75.5q97 0 166.5 -56.5t112.5 -139.5t59 -165q15 -69 34 -86.5t70 -17.5h66v-179h-44q-38 0 -73.5 9.5t-65.5 34t-54 68.5l65 25
q-14 -62 -32 -94.5t-46.5 -44t-70.5 -11.5q-60 0 -140.5 20.5t-158.5 59.5t-132 94l59 163q34 -42 102.5 -79.5t147 -60t139.5 -22.5q21 0 31.5 8.5t10.5 27.5q0 16 -6 36q-14 53 -47 107.5t-83.5 91.5t-117.5 37q-77 0 -117.5 -53t-55.5 -118zM1583 0v179q32 0 43.5 -20.5
t11.5 -69.5q0 -45 -12.5 -67t-42.5 -22z" />
    <glyph glyph-name="meem_yehbarreear.liga" unicode="&#xfee3;&#xfbaf;" horiz-adv-x="1517" 
d="M529 -369q-86 0 -170 5t-139 21q-27 8 -45 18.5t-30 22.5q-22 23 -40 74t-17 112q2 96 44 154.5t110.5 89t152 41t170.5 10.5h9q74 0 116 20t67 63t48 113q41 121 103.5 195t165.5 74q83 0 148 -45t110 -116t68.5 -152t23.5 -152q0 -52 -16.5 -99t-48.5 -73
q-15 -11 -37 -16t-49 -5q-36 0 -84 8q-96 16 -192.5 57t-166.5 110l59 161q35 -41 103.5 -77.5t146 -59t137.5 -22.5q24 0 33 9.5t9 27.5q0 16 -7 41q-14 55 -48 107.5t-83.5 87t-113.5 34.5q-77 0 -116.5 -53t-55.5 -120l-45 -128q-37 -96 -98.5 -132.5t-149.5 -36.5h-18
q-102 0 -171 -6.5t-116 -25.5q-44 -17 -64 -44t-21 -61q-2 -20 7.5 -29.5t39.5 -14.5q34 -4 103 -6.5t157 -2.5q119 0 238.5 4t223.5 12l-12 -178q-117 -9 -225 -13t-214 -4z" />
    <glyph glyph-name="uniFC50.fina.loclFAR.isol" unicode="&#xfee6;&#xfef2;" horiz-adv-x="1663" 
d="M1136 0v179h252q30 0 36.5 12t-1.5 52l-55 288l125 9q28 -111 48 -213t23 -193l-43 45h142v-179h-27q-53 0 -99 11t-78 27l87 -2q-44 -20 -122 -28t-190 -8h-98zM1663 0v179q32 0 43.5 -20.5t11.5 -69.5q0 -45 -12.5 -67t-42.5 -22zM1136 0q-30 0 -42 22t-12 67
q0 49 11 69.5t43 20.5v-179zM1401 667l-163 121l98 125l162 -121zM678 19l59 160h505v-179h-170l35 48q41 -73 41 -144q0 -92 -61.5 -167.5t-165.5 -124.5q-89 -41 -194 -66.5t-198 -25.5q-147 0 -244 60.5t-144.5 165t-47.5 237.5q0 158 64 335l102 -25q-21 -74 -33 -140.5
t-12 -124.5q0 -144 76.5 -228.5t244.5 -84.5q78 0 169.5 18t170.5 48q69 24 111 54t42 60q0 22 -19.5 40t-57.5 32q-32 15 -79.5 23t-96.5 12t-89 4zM1242 0v179q31 0 42.5 -20.5t11.5 -69.5q0 -45 -12 -67t-42 -22z" />
    <glyph glyph-name="uniFC50.loclFAR.isol" unicode="&#x646;&#x64a;" horiz-adv-x="1632" 
d="M1106 0v179h282q31 0 38.5 9.5t-1.5 54.5q-10 46 -37.5 132t-67.5 189l135 11q46 -108 69 -199.5t23 -168.5q0 -42 -7.5 -79t-20.5 -65q-18 -38 -36.5 -50.5t-52.5 -12.5h-324zM1106 0q-30 0 -42 22t-12 67q0 49 11 69.5t43 20.5v-179zM1355 696l-163 121l98 125
l162 -121zM678 19l59 160h505v-179h-170l35 48q41 -73 41 -144q0 -92 -61.5 -167.5t-165.5 -124.5q-89 -41 -194 -66.5t-198 -25.5q-147 0 -244 60.5t-144.5 165t-47.5 237.5q0 158 64 335l102 -25q-21 -74 -33 -140.5t-12 -124.5q0 -144 76.5 -228.5t244.5 -84.5
q78 0 169.5 18t170.5 48q69 24 111 54t42 60q0 22 -19.5 40t-57.5 32q-32 15 -79.5 23t-96.5 12t-89 4zM1242 0v179q31 0 42.5 -20.5t11.5 -69.5q0 -45 -12 -67t-42 -22z" />
    <glyph glyph-name="noon_yehHamzaabovear" unicode="&#xfee7;&#xfe8a;" horiz-adv-x="1632" 
d="M1106 0v179h282q31 0 38.5 9.5t-1.5 54.5q-10 46 -37.5 132t-67.5 189l135 11q46 -108 69 -199.5t23 -168.5q0 -42 -7.5 -79t-20.5 -65q-18 -38 -36.5 -50.5t-52.5 -12.5h-324zM1106 0q-30 0 -42 22t-12 67q0 49 11 69.5t43 20.5v-179zM1355 696l-163 121l98 125
l162 -121zM678 19l59 160h505v-179h-170l35 48q41 -73 41 -144q0 -92 -61.5 -167.5t-165.5 -124.5q-89 -41 -194 -66.5t-198 -25.5q-147 0 -244 60.5t-144.5 165t-47.5 237.5q0 158 64 335l102 -25q-21 -74 -33 -140.5t-12 -124.5q0 -144 76.5 -228.5t244.5 -84.5
q78 0 169.5 18t170.5 48q69 24 111 54t42 60q0 22 -19.5 40t-57.5 32q-32 15 -79.5 23t-96.5 12t-89 4zM1242 0v179q31 0 42.5 -20.5t11.5 -69.5q0 -45 -12 -67t-42 -22zM50 387l-4 1l-8 80l94 38l5 -34q-40 25 -58 59t-18 71q0 70 45.5 119t119.5 49q39 0 72.5 -14.5
t59.5 -34.5l-28 -77q-25 11 -48.5 18.5t-46.5 9.5q-49 5 -73.5 -15.5t-24.5 -41.5q0 -28 36.5 -51.5t72.5 -16.5l47.5 9.5l87.5 17.5l-20 -101q-108 -20 -184 -41.5t-127 -44.5z" />
    <glyph glyph-name="noon_yehHamzaabovear.fina" unicode="&#xfee8;&#xfe8a;" horiz-adv-x="1663" 
d="M1136 0v179h252q30 0 36.5 12t-1.5 52l-55 288l125 9q28 -111 48 -213t23 -193l-43 45h142v-179h-27q-53 0 -99 11t-78 27l87 -2q-44 -20 -122 -28t-190 -8h-98zM1663 0v179q32 0 43.5 -20.5t11.5 -69.5q0 -45 -12.5 -67t-42.5 -22zM1136 0q-30 0 -42 22t-12 67
q0 49 11 69.5t43 20.5v-179zM1401 667l-163 121l98 125l162 -121zM678 19l59 160h505v-179h-170l35 48q41 -73 41 -144q0 -92 -61.5 -167.5t-165.5 -124.5q-89 -41 -194 -66.5t-198 -25.5q-147 0 -244 60.5t-144.5 165t-47.5 237.5q0 158 64 335l102 -25q-21 -74 -33 -140.5
t-12 -124.5q0 -144 76.5 -228.5t244.5 -84.5q78 0 169.5 18t170.5 48q69 24 111 54t42 60q0 22 -19.5 40t-57.5 32q-32 15 -79.5 23t-96.5 12t-89 4zM1242 0v179q31 0 42.5 -20.5t11.5 -69.5q0 -45 -12 -67t-42 -22zM50 387l-4 1l-8 80l94 38l5 -34q-40 25 -58 59t-18 71
q0 70 45.5 119t119.5 49q39 0 72.5 -14.5t59.5 -34.5l-28 -77q-25 11 -48.5 18.5t-46.5 9.5q-49 5 -73.5 -15.5t-24.5 -41.5q0 -28 36.5 -51.5t72.5 -16.5l47.5 9.5l87.5 17.5l-20 -101q-108 -20 -184 -41.5t-127 -44.5z" />
    <glyph glyph-name="noon_yehbarreear.fina.liga" unicode="&#xfee8;&#xfbaf;" horiz-adv-x="1029" 
d="M929 128l-88 51h188v-179h-28q-53 0 -98.5 11t-76.5 28l74 -8q-41 -16 -112.5 -23.5t-178.5 -7.5q-123 0 -195.5 -6.5t-117.5 -25.5q-44 -17 -64 -44t-21 -61q-2 -20 7.5 -29.5t39.5 -14.5q34 -4 103 -6.5t157 -2.5q119 0 238.5 4t223.5 12l-12 -178q-117 -9 -225 -13
t-214 -4q-86 0 -170 5t-139 21q-27 8 -45 18.5t-30 22.5q-22 23 -40 74t-17 112q2 97 44.5 156t112.5 89t158 40t181 10h170q29 0 35.5 12t-1.5 52l-55 288l125 9q29 -113 49 -216t22 -196zM1029 0v179q31 0 42.5 -20.5t11.5 -69.5q0 -45 -12 -67t-42 -22zM766 667l-163 121
l98 125l162 -121z" />
    <glyph glyph-name="noon_yehbarreear.liga" unicode="&#xfee7;&#xfbaf;" horiz-adv-x="1049" 
d="M518 -190q119 0 238.5 4t223.5 12l-12 -178q-117 -9 -225 -13t-214 -4q-86 0 -170 5t-139 21q-27 8 -45 18.5t-30 22.5q-22 23 -40 74t-17 112q2 97 44.5 156t112.5 89t158 40t181 10h187q31 0 39.5 9.5t-2.5 54.5q-10 46 -37 132t-67 189l135 11q46 -108 68.5 -199.5
t22.5 -168.5q0 -42 -7.5 -79t-19.5 -65q-18 -38 -36.5 -50.5t-53.5 -12.5h-220q-106 0 -177.5 -6.5t-119.5 -25.5q-44 -17 -64 -44t-21 -61q-2 -20 7.5 -29.5t39.5 -14.5q34 -4 103 -6.5t157 -2.5zM683 696l-163 121l98 125l162 -121z" />
    <glyph glyph-name="uniFC54.loclFAR.isol" unicode="&#x647;&#x64a;" horiz-adv-x="2234" 
d="M1939 -9q-91 0 -201 17.5t-205 50.5l117 -1q-128 -36 -231 -47t-196 -11h-87v179h52q62 0 126 1.5t126 9.5l-40 -47q-33 40 -55 98t-22 126q0 101 51 185t130 141l30 -79l-124 77l87 144q109 -62 203 -118t169 -110q93 -66 153 -125.5t89.5 -121t29.5 -133.5
q0 -57 -15.5 -100t-34.5 -68q-25 -36 -58 -52t-94 -16zM1587 227q39 -4 76.5 12t64 44.5t30.5 64.5q6 45 -13.5 90.5t-51.5 78.5t-66 41q-47 12 -93.5 -17.5t-76.5 -74.5t-30 -81q0 -27 19 -62t55 -62.5t86 -33.5zM1750 131l-34 62q61 -18 125.5 -27.5t106.5 -11.5
q41 -1 68.5 8t27.5 38q0 14 -6 29t-17 32q-28 49 -88.5 102t-137.5 101l61 19q19 -205 -106 -352zM1136 0q-30 0 -42 22t-12 67q0 49 11 69.5t43 20.5v-179zM678 19l59 160h505v-179h-170l35 48q41 -73 41 -144q0 -92 -61.5 -167.5t-165.5 -124.5q-89 -41 -194 -66.5
t-198 -25.5q-147 0 -244 60.5t-144.5 165t-47.5 237.5q0 158 64 335l102 -25q-21 -74 -33 -140.5t-12 -124.5q0 -144 76.5 -228.5t244.5 -84.5q78 0 169.5 18t170.5 48q69 24 111 54t42 60q0 22 -19.5 40t-57.5 32q-32 15 -79.5 23t-96.5 12t-89 4zM1242 0v179
q31 0 42.5 -20.5t11.5 -69.5q0 -45 -12 -67t-42 -22z" />
    </font>
</defs>
</svg>
